<svg width="262" height="100" viewBox="0 0 262 100" fill="none" xmlns="http://www.w3.org/2000/svg">
<g clip-path="url(#clip0_249_1524)">
<path d="M89.3703 60.9595L97.3903 30.2295C97.5903 29.4695 97.3703 28.6595 96.8103 28.1095L90.7903 22.1695C89.8703 21.2595 88.3603 21.3395 87.5303 22.3395C78.4203 33.3795 74.1903 48.1695 76.9103 63.0395C77.1403 64.3195 78.4203 65.1195 79.6703 64.7795L87.8303 62.5395C88.5903 62.3295 89.1803 61.7295 89.3803 60.9695L89.3703 60.9595Z" fill="#ED6E64"/>
<path d="M98.6302 22.9704L129.25 14.5504C130.01 14.3404 130.6 13.7404 130.8 12.9804L132.94 4.7804C133.27 3.5304 132.45 2.2604 131.17 2.0404C124.21 0.860397 116.9 1.1404 109.65 3.1304C102.4 5.1204 95.9702 8.6304 90.5902 13.2004C89.6002 14.0404 89.5502 15.5504 90.4702 16.4504L96.5002 22.4004C97.0602 22.9504 97.8702 23.1604 98.6302 22.9604V22.9704Z" fill="#86CEDD"/>
<path d="M136.05 11.9599L158.65 34.2699C159.21 34.8199 160.02 35.0299 160.78 34.8299L168.94 32.5899C170.19 32.2499 170.87 30.8999 170.42 29.6799C165.15 15.5099 153.95 4.96992 140.48 0.129918C139.26 -0.310082 137.92 0.399918 137.6 1.64992L135.46 9.83992C135.26 10.5999 135.48 11.4099 136.04 11.9599H136.05Z" fill="#FAB751"/>
<path d="M164.69 38.79L156.67 69.52C156.47 70.28 156.69 71.09 157.25 71.64L163.27 77.58C164.19 78.49 165.7 78.41 166.53 77.41C175.64 66.37 179.87 51.58 177.15 36.71C176.92 35.43 175.64 34.63 174.39 34.97L166.23 37.21C165.47 37.42 164.88 38.02 164.68 38.78L164.69 38.79Z" fill="#ED6E64"/>
<path d="M118.01 87.7997L95.4102 65.4897C94.8502 64.9397 94.0402 64.7297 93.2802 64.9297L85.1202 67.1697C83.8702 67.5097 83.1902 68.8597 83.6402 70.0797C88.9102 84.2497 100.11 94.7897 113.58 99.6297C114.8 100.07 116.14 99.3597 116.46 98.1097L118.6 89.9197C118.8 89.1597 118.58 88.3497 118.02 87.7997H118.01Z" fill="#86CEDD"/>
<path d="M155.43 76.7898L124.81 85.2098C124.05 85.4198 123.46 86.0198 123.26 86.7798L121.12 94.9798C120.79 96.2298 121.61 97.4998 122.89 97.7198C129.85 98.8998 137.16 98.6198 144.41 96.6298C151.66 94.6398 158.09 91.1298 163.47 86.5598C164.46 85.7198 164.51 84.2098 163.59 83.3098L157.56 77.3598C157 76.8098 156.19 76.5998 155.43 76.7998V76.7898Z" fill="#FAB751"/>
<path d="M32.2 66.2898H11.83L8.33 76.2298H0L17.43 27.5098H26.67L44.1 76.2298H35.7L32.2 66.2898ZM29.96 59.7798L22.05 37.1698L14.07 59.7798H29.96Z" fill="white"/>
<path d="M59.6402 69.7901H76.0902V76.2301H51.6602V27.5801H59.6402V69.7901Z" fill="white"/>
<path d="M147.67 27.54L129.4 76.19H120.16L101.82 27.54H110.36L124.78 68L139.27 27.54H147.67Z" fill="white"/>
<path d="M191.3 34.0198V48.2998H208.1V54.8098H191.3V69.7198H210.2V76.2298H183.32V27.5098H210.2V34.0198H191.3Z" fill="white"/>
<path d="M249.33 66.2898H228.96L225.46 76.2298H217.13L234.56 27.5098H243.8L261.23 76.2298H252.83L249.33 66.2898ZM247.09 59.7798L239.18 37.1698L231.2 59.7798H247.09Z" fill="white"/>
</g>
<defs>
<clipPath id="clip0_249_1524">
<rect width="261.23" height="99.76" fill="white"/>
</clipPath>
</defs>
</svg>
