<?xml version="1.0" encoding="UTF-8"?>
<svg id="Calque_2" data-name="Calque 2" xmlns="http://www.w3.org/2000/svg" viewBox="0 0 261.23 165.13">
  <defs>
    <style>
      .cls-1 {
        fill: #1f7a93;
      }

      .cls-2 {
        fill: #fab751;
      }

      .cls-3 {
        fill: #fff;
      }

      .cls-4 {
        fill: #86cedd;
      }

      .cls-5 {
        fill: #ed6e64;
      }
    </style>
  </defs>
  <g id="Calque_1-2" data-name="Calque 1">
    <g>
      <path class="cls-5" d="M89.37,60.96l8.02-30.73c.2-.76-.02-1.57-.58-2.12l-6.02-5.94c-.92-.91-2.43-.83-3.26.17-9.11,11.04-13.34,25.83-10.62,40.7.23,1.28,1.51,2.08,2.76,1.74l8.16-2.24c.76-.21,1.35-.81,1.55-1.57h0Z"/>
      <path class="cls-4" d="M98.63,22.97l30.62-8.42c.76-.21,1.35-.81,1.55-1.57l2.14-8.2c.33-1.25-.49-2.52-1.77-2.74-6.96-1.18-14.27-.9-21.52,1.09-7.25,1.99-13.68,5.5-19.06,10.07-.99.84-1.04,2.35-.12,3.25l6.03,5.95c.56.55,1.37.76,2.13.56h0Z"/>
      <path class="cls-2" d="M136.05,11.96l22.6,22.31c.56.55,1.37.76,2.13.56l8.16-2.24c1.25-.34,1.93-1.69,1.48-2.91-5.27-14.17-16.47-24.71-29.94-29.55-1.22-.44-2.56.27-2.88,1.52l-2.14,8.19c-.2.76.02,1.57.58,2.12h.01Z"/>
      <path class="cls-5" d="M164.68,38.79l-8.02,30.73c-.2.76.02,1.57.58,2.12l6.02,5.94c.92.91,2.43.83,3.26-.17,9.11-11.04,13.34-25.83,10.62-40.7-.23-1.28-1.51-2.08-2.76-1.74l-8.16,2.24c-.76.21-1.35.81-1.55,1.57h.01Z"/>
      <path class="cls-4" d="M118.01,87.8l-22.6-22.31c-.56-.55-1.37-.76-2.13-.56l-8.16,2.24c-1.25.34-1.93,1.69-1.48,2.91,5.27,14.17,16.47,24.71,29.94,29.55,1.22.44,2.56-.27,2.88-1.52l2.14-8.19c.2-.76-.02-1.57-.58-2.12h0Z"/>
      <path class="cls-2" d="M155.43,76.79l-30.62,8.42c-.76.21-1.35.81-1.55,1.57l-2.14,8.2c-.33,1.25.49,2.52,1.77,2.74,6.96,1.18,14.27.9,21.52-1.09,7.25-1.99,13.68-5.5,19.06-10.07.99-.84,1.04-2.35.12-3.25l-6.03-5.95c-.56-.55-1.37-.76-2.13-.56h0Z"/>
      <path class="cls-1" d="M32.2,66.29H11.83l-3.5,9.94H0L17.43,27.51h9.24l17.43,48.72h-8.4l-3.5-9.94ZM29.96,59.78l-7.91-22.61-7.98,22.61h15.89Z"/>
      <path class="cls-1" d="M59.64,69.79h16.45v6.44h-24.43V27.58h7.98v42.21Z"/>
      <path class="cls-3" d="M147.67,27.54l-18.27,48.65h-9.24l-18.34-48.65h8.54l14.42,40.46,14.49-40.46h8.4Z"/>
      <path class="cls-1" d="M191.3,34.02v14.28h16.8v6.51h-16.8v14.91h18.9v6.51h-26.88V27.51h26.88v6.51h-18.9Z"/>
      <path class="cls-1" d="M249.33,66.29h-20.37l-3.5,9.94h-8.33l17.43-48.72h9.24l17.43,48.72h-8.4l-3.5-9.94ZM247.09,59.78l-7.91-22.61-7.98,22.61h15.89Z"/>
      <path class="cls-5" d="M89.37,60.96l8.02-30.73c.2-.76-.02-1.57-.58-2.12l-6.02-5.94c-.92-.91-2.43-.83-3.26.17-9.11,11.04-13.34,25.83-10.62,40.7.23,1.28,1.51,2.08,2.76,1.74l8.16-2.24c.76-.21,1.35-.81,1.55-1.57h0Z"/>
      <path class="cls-4" d="M98.63,22.97l30.62-8.42c.76-.21,1.35-.81,1.55-1.57l2.14-8.2c.33-1.25-.49-2.52-1.77-2.74-6.96-1.18-14.27-.9-21.52,1.09-7.25,1.99-13.68,5.5-19.06,10.07-.99.84-1.04,2.35-.12,3.25l6.03,5.95c.56.55,1.37.76,2.13.56h0Z"/>
      <path class="cls-2" d="M136.05,11.96l22.6,22.31c.56.55,1.37.76,2.13.56l8.16-2.24c1.25-.34,1.93-1.69,1.48-2.91-5.27-14.17-16.47-24.71-29.94-29.55-1.22-.44-2.56.27-2.88,1.52l-2.14,8.19c-.2.76.02,1.57.58,2.12h.01Z"/>
      <path class="cls-5" d="M164.68,38.79l-8.02,30.73c-.2.76.02,1.57.58,2.12l6.02,5.94c.92.91,2.43.83,3.26-.17,9.11-11.04,13.34-25.83,10.62-40.7-.23-1.28-1.51-2.08-2.76-1.74l-8.16,2.24c-.76.21-1.35.81-1.55,1.57h.01Z"/>
      <path class="cls-4" d="M118.01,87.8l-22.6-22.31c-.56-.55-1.37-.76-2.13-.56l-8.16,2.24c-1.25.34-1.93,1.69-1.48,2.91,5.27,14.17,16.47,24.71,29.94,29.55,1.22.44,2.56-.27,2.88-1.52l2.14-8.19c.2-.76-.02-1.57-.58-2.12h0Z"/>
      <path class="cls-2" d="M155.43,76.79l-30.62,8.42c-.76.21-1.35.81-1.55,1.57l-2.14,8.2c-.33,1.25.49,2.52,1.77,2.74,6.96,1.18,14.27.9,21.52-1.09,7.25-1.99,13.68-5.5,19.06-10.07.99-.84,1.04-2.35.12-3.25l-6.03-5.95c-.56-.55-1.37-.76-2.13-.56h0Z"/>
      <path class="cls-1" d="M32.2,66.29H11.83l-3.5,9.94H0L17.43,27.51h9.24l17.43,48.72h-8.4l-3.5-9.94ZM29.96,59.78l-7.91-22.61-7.98,22.61h15.89Z"/>
      <path class="cls-1" d="M59.64,69.79h16.45v6.44h-24.43V27.58h7.98v42.21Z"/>
      <path class="cls-1" d="M147.67,27.54l-18.27,48.65h-9.24l-18.34-48.65h8.54l14.42,40.46,14.49-40.46h8.4Z"/>
      <path class="cls-1" d="M191.3,34.02v14.28h16.8v6.51h-16.8v14.91h18.9v6.51h-26.88V27.51h26.88v6.51h-18.9Z"/>
      <path class="cls-1" d="M249.33,66.29h-20.37l-3.5,9.94h-8.33l17.43-48.72h9.24l17.43,48.72h-8.4l-3.5-9.94ZM247.09,59.78l-7.91-22.61-7.98,22.61h15.89Z"/>
      <path class="cls-4" d="M259.99,119.09c-86.24,1.34-172.5,1.34-258.75,0-.68-.01-1.24-.58-1.24-1.26s.55-1.24,1.24-1.24h258.75c.68,0,1.24.56,1.24,1.24s-.56,1.25-1.24,1.26Z"/>
      <path class="cls-1" d="M3.86,144.47h4.88v1.48H2.04v-13.94h1.82v12.46Z"/>
      <path class="cls-1" d="M21.62,141.15h-8.76c.07,1.08.44,1.92,1.11,2.53.67.61,1.49.91,2.45.91.79,0,1.44-.18,1.97-.55s.9-.86,1.11-1.47h1.96c-.29,1.05-.88,1.91-1.76,2.57-.88.66-1.97.99-3.28.99-1.04,0-1.97-.23-2.79-.7-.82-.47-1.46-1.13-1.93-1.99s-.7-1.86-.7-2.99.23-2.13.68-2.98c.45-.85,1.09-1.51,1.91-1.97.82-.46,1.76-.69,2.83-.69s1.96.23,2.76.68c.8.45,1.42,1.08,1.85,1.87.43.79.65,1.69.65,2.69,0,.35-.02.71-.06,1.1ZM19.34,137.88c-.31-.5-.72-.88-1.25-1.14-.53-.26-1.11-.39-1.75-.39-.92,0-1.7.29-2.35.88-.65.59-1.02,1.4-1.11,2.44h6.92c0-.69-.15-1.29-.46-1.79Z"/>
      <path class="cls-1" d="M26.7,145.7c-.67-.29-1.19-.69-1.58-1.2-.39-.51-.6-1.1-.64-1.77h1.88c.05.55.31.99.77,1.34.46.35,1.06.52,1.81.52.69,0,1.24-.15,1.64-.46.4-.31.6-.69.6-1.16s-.21-.84-.64-1.07c-.43-.23-1.09-.46-1.98-.69-.81-.21-1.48-.43-1.99-.65-.51-.22-.95-.55-1.32-.98-.37-.43-.55-1-.55-1.71,0-.56.17-1.07.5-1.54.33-.47.81-.84,1.42-1.11.61-.27,1.31-.41,2.1-.41,1.21,0,2.19.31,2.94.92s1.15,1.45,1.2,2.52h-1.82c-.04-.57-.27-1.03-.69-1.38-.42-.35-.98-.52-1.69-.52-.65,0-1.17.14-1.56.42s-.58.65-.58,1.1c0,.36.12.66.35.89s.53.42.88.56c.35.14.84.3,1.47.47.79.21,1.43.42,1.92.63.49.21.92.52,1.27.93.35.41.54.95.55,1.62,0,.6-.17,1.14-.5,1.62-.33.48-.8.86-1.41,1.13-.61.27-1.3.41-2.09.41-.84,0-1.59-.14-2.26-.43Z"/>
      <path class="cls-1" d="M46.94,144.27l3.4-9.28h1.94l-4.3,10.96h-2.12l-4.3-10.96h1.96l3.42,9.28Z"/>
      <path class="cls-1" d="M57.07,145.43c-.83-.47-1.49-1.13-1.96-1.99s-.71-1.86-.71-2.99.24-2.11.73-2.97,1.15-1.52,1.99-1.98c.84-.46,1.78-.69,2.82-.69s1.98.23,2.82.69c.84.46,1.5,1.12,1.99,1.97.49.85.73,1.85.73,2.98s-.25,2.13-.75,2.99-1.18,1.52-2.03,1.99-1.8.7-2.84.7-1.96-.23-2.79-.7ZM61.7,144.07c.57-.31,1.04-.77,1.39-1.38s.53-1.36.53-2.24-.17-1.63-.52-2.24-.8-1.07-1.36-1.37-1.17-.45-1.82-.45-1.28.15-1.83.45c-.55.3-1,.76-1.33,1.37-.33.61-.5,1.36-.5,2.24s.16,1.65.49,2.26.76,1.07,1.31,1.37c.55.3,1.15.45,1.8.45s1.27-.15,1.84-.46Z"/>
      <path class="cls-1" d="M68.94,132.85c-.24-.24-.36-.53-.36-.88s.12-.64.36-.88c.24-.24.53-.36.88-.36s.62.12.85.36c.23.24.35.53.35.88s-.12.64-.35.88c-.23.24-.52.36-.85.36s-.64-.12-.88-.36ZM70.7,134.99v10.96h-1.82v-10.96h1.82Z"/>
      <path class="cls-1" d="M80.52,145.95l-2.6-4.08-2.5,4.08h-1.9l3.54-5.44-3.54-5.52h2.06l2.6,4.06,2.48-4.06h1.9l-3.52,5.42,3.54,5.54h-2.06Z"/>
      <path class="cls-1" d="M91.72,137.48c.45-.85,1.08-1.5,1.87-1.97.79-.47,1.68-.7,2.67-.7.85,0,1.65.2,2.38.59.73.39,1.29.91,1.68,1.55v-5.8h1.84v14.8h-1.84v-2.06c-.36.65-.89,1.19-1.6,1.61-.71.42-1.53.63-2.48.63s-1.86-.24-2.65-.72c-.79-.48-1.42-1.15-1.87-2.02-.45-.87-.68-1.85-.68-2.96s.23-2.1.68-2.95ZM99.82,138.29c-.33-.61-.78-1.08-1.35-1.41s-1.19-.49-1.87-.49-1.3.16-1.86.48c-.56.32-1.01.79-1.34,1.4s-.5,1.33-.5,2.16.17,1.57.5,2.19.78,1.09,1.34,1.42c.56.33,1.18.49,1.86.49s1.3-.16,1.87-.49,1.02-.8,1.35-1.42.5-1.34.5-2.17-.17-1.55-.5-2.16Z"/>
      <path class="cls-1" d="M116.18,141.15h-8.76c.07,1.08.44,1.92,1.11,2.53s1.49.91,2.45.91c.79,0,1.44-.18,1.97-.55s.9-.86,1.11-1.47h1.96c-.29,1.05-.88,1.91-1.76,2.57-.88.66-1.97.99-3.28.99-1.04,0-1.97-.23-2.79-.7s-1.46-1.13-1.93-1.99-.7-1.86-.7-2.99.23-2.13.68-2.98c.45-.85,1.09-1.51,1.91-1.97.82-.46,1.76-.69,2.83-.69s1.96.23,2.76.68,1.42,1.08,1.85,1.87c.43.79.65,1.69.65,2.69,0,.35-.02.71-.06,1.1ZM113.9,137.88c-.31-.5-.72-.88-1.25-1.14-.53-.26-1.11-.39-1.75-.39-.92,0-1.7.29-2.35.88-.65.59-1.02,1.4-1.11,2.44h6.92c0-.69-.15-1.29-.46-1.79Z"/>
      <path class="cls-1" d="M127.8,131.15v14.8h-1.82v-14.8h1.82Z"/>
      <path class="cls-1" d="M132.18,132.01h2.02l-1.92,4.54h-1.28l1.18-4.54Z"/>
      <path class="cls-1" d="M147.22,141.15h-8.76c.07,1.08.44,1.92,1.11,2.53s1.49.91,2.45.91c.79,0,1.44-.18,1.97-.55s.9-.86,1.11-1.47h1.96c-.29,1.05-.88,1.91-1.76,2.57-.88.66-1.97.99-3.28.99-1.04,0-1.97-.23-2.79-.7-.82-.47-1.46-1.13-1.93-1.99s-.7-1.86-.7-2.99.23-2.13.68-2.98c.45-.85,1.09-1.51,1.91-1.97.82-.46,1.76-.69,2.83-.69s1.96.23,2.76.68c.8.45,1.42,1.08,1.85,1.87.43.79.65,1.69.65,2.69,0,.35-.02.71-.06,1.1ZM144.94,137.88c-.31-.5-.72-.88-1.25-1.14-.53-.26-1.11-.39-1.75-.39-.92,0-1.7.29-2.35.88-.65.59-1.02,1.4-1.11,2.44h6.92c0-.69-.15-1.29-.46-1.79Z"/>
      <path class="cls-1" d="M156.4,145.95l-2.6-4.08-2.5,4.08h-1.9l3.54-5.44-3.54-5.52h2.06l2.6,4.06,2.48-4.06h1.9l-3.52,5.42,3.54,5.54h-2.06Z"/>
      <path class="cls-1" d="M164.69,135.44c.71-.42,1.54-.63,2.49-.63s1.86.23,2.65.7c.79.47,1.42,1.12,1.87,1.97.45.85.68,1.83.68,2.95s-.23,2.09-.68,2.96c-.45.87-1.08,1.54-1.87,2.02-.79.48-1.68.72-2.65.72s-1.76-.21-2.47-.63c-.71-.42-1.26-.94-1.63-1.57v7.22h-1.82v-16.16h1.82v2.02c.36-.63.9-1.15,1.61-1.57ZM170.02,138.27c-.33-.61-.78-1.08-1.35-1.4-.57-.32-1.19-.48-1.87-.48s-1.28.16-1.85.49c-.57.33-1.02.8-1.36,1.42-.34.62-.51,1.34-.51,2.15s.17,1.55.51,2.17.79,1.09,1.36,1.42c.57.33,1.18.49,1.85.49s1.3-.16,1.87-.49c.57-.33,1.02-.8,1.35-1.42s.5-1.35.5-2.19-.17-1.55-.5-2.16Z"/>
      <path class="cls-1" d="M185.72,141.15h-8.76c.07,1.08.44,1.92,1.11,2.53s1.49.91,2.45.91c.79,0,1.44-.18,1.97-.55s.9-.86,1.11-1.47h1.96c-.29,1.05-.88,1.91-1.76,2.57-.88.66-1.97.99-3.28.99-1.04,0-1.97-.23-2.79-.7-.82-.47-1.46-1.13-1.93-1.99s-.7-1.86-.7-2.99.23-2.13.68-2.98c.45-.85,1.09-1.51,1.91-1.97.82-.46,1.76-.69,2.83-.69s1.96.23,2.76.68c.8.45,1.42,1.08,1.85,1.87.43.79.65,1.69.65,2.69,0,.35-.02.71-.06,1.1ZM183.44,137.88c-.31-.5-.72-.88-1.25-1.14-.53-.26-1.11-.39-1.75-.39-.92,0-1.7.29-2.35.88-.65.59-1.02,1.4-1.11,2.44h6.92c0-.69-.15-1.29-.46-1.79ZM182.4,131.89l-4.26,2.28v-1.36l4.26-2.5v1.58Z"/>
      <path class="cls-1" d="M192.37,135.31c.59-.35,1.32-.52,2.17-.52v1.88h-.48c-2.04,0-3.06,1.11-3.06,3.32v5.96h-1.82v-10.96h1.82v1.78c.32-.63.78-1.11,1.37-1.46Z"/>
      <path class="cls-1" d="M197.7,132.85c-.24-.24-.36-.53-.36-.88s.12-.64.36-.88c.24-.24.53-.36.88-.36s.62.12.85.36c.23.24.35.53.35.88s-.12.64-.35.88-.52.36-.85.36-.64-.12-.88-.36ZM199.46,134.99v10.96h-1.82v-10.96h1.82Z"/>
      <path class="cls-1" d="M213.5,141.15h-8.76c.07,1.08.44,1.92,1.11,2.53s1.49.91,2.45.91c.79,0,1.44-.18,1.97-.55s.9-.86,1.11-1.47h1.96c-.29,1.05-.88,1.91-1.76,2.57-.88.66-1.97.99-3.28.99-1.04,0-1.97-.23-2.79-.7-.82-.47-1.46-1.13-1.93-1.99s-.7-1.86-.7-2.99.23-2.13.68-2.98c.45-.85,1.09-1.51,1.91-1.97.82-.46,1.76-.69,2.83-.69s1.96.23,2.76.68c.8.45,1.42,1.08,1.85,1.87.43.79.65,1.69.65,2.69,0,.35-.02.71-.06,1.1ZM211.22,137.88c-.31-.5-.72-.88-1.25-1.14-.53-.26-1.11-.39-1.75-.39-.92,0-1.7.29-2.35.88-.65.59-1.02,1.4-1.11,2.44h6.92c0-.69-.15-1.29-.46-1.79Z"/>
      <path class="cls-1" d="M225.54,136c.83.81,1.24,1.97,1.24,3.49v6.46h-1.8v-6.2c0-1.09-.27-1.93-.82-2.51s-1.29-.87-2.24-.87-1.72.3-2.29.9c-.57.6-.85,1.47-.85,2.62v6.06h-1.82v-10.96h1.82v1.56c.36-.56.85-.99,1.47-1.3.62-.31,1.3-.46,2.05-.46,1.33,0,2.41.4,3.24,1.21Z"/>
      <path class="cls-1" d="M230.76,137.48c.45-.85,1.08-1.5,1.89-1.97s1.73-.7,2.77-.7c1.35,0,2.46.33,3.33.98s1.45,1.56,1.73,2.72h-1.96c-.19-.67-.55-1.19-1.09-1.58-.54-.39-1.21-.58-2.01-.58-1.04,0-1.88.36-2.52,1.07-.64.71-.96,1.72-.96,3.03s.32,2.34.96,3.06,1.48,1.08,2.52,1.08c.8,0,1.47-.19,2-.56.53-.37.9-.91,1.1-1.6h1.96c-.29,1.12-.88,2.02-1.76,2.69s-1.98,1.01-3.3,1.01c-1.04,0-1.96-.23-2.77-.7s-1.44-1.13-1.89-1.98c-.45-.85-.68-1.85-.68-3s.23-2.12.68-2.97Z"/>
      <path class="cls-1" d="M253.84,141.15h-8.76c.07,1.08.44,1.92,1.11,2.53.67.61,1.49.91,2.45.91.79,0,1.44-.18,1.97-.55s.9-.86,1.11-1.47h1.96c-.29,1.05-.88,1.91-1.76,2.57-.88.66-1.97.99-3.28.99-1.04,0-1.97-.23-2.79-.7-.82-.47-1.46-1.13-1.93-1.99s-.7-1.86-.7-2.99.23-2.13.68-2.98c.45-.85,1.09-1.51,1.91-1.97.82-.46,1.76-.69,2.83-.69s1.96.23,2.76.68,1.42,1.08,1.85,1.87c.43.79.65,1.69.65,2.69,0,.35-.02.71-.06,1.1ZM251.56,137.88c-.31-.5-.72-.88-1.25-1.14-.53-.26-1.11-.39-1.75-.39-.92,0-1.7.29-2.35.88s-1.02,1.4-1.11,2.44h6.92c0-.69-.15-1.29-.46-1.79Z"/>
      <path class="cls-1" d="M259.18,143.43l-2.24,5.38h-1.22l1.46-5.38h2Z"/>
      <path class="cls-1" d="M22.99,163.47h4.88v1.48h-6.7v-13.94h1.82v12.46Z"/>
      <path class="cls-1" d="M40.75,160.15h-8.76c.07,1.08.44,1.92,1.11,2.53.67.61,1.49.91,2.45.91.79,0,1.44-.18,1.97-.55.53-.37.9-.86,1.11-1.47h1.96c-.29,1.05-.88,1.91-1.76,2.57-.88.66-1.97.99-3.28.99-1.04,0-1.97-.23-2.79-.7s-1.46-1.13-1.93-1.99-.7-1.86-.7-2.99.23-2.13.68-2.98c.45-.85,1.09-1.51,1.91-1.97.82-.46,1.76-.69,2.83-.69s1.96.23,2.76.68,1.42,1.08,1.85,1.87c.43.79.65,1.69.65,2.69,0,.35-.02.71-.06,1.1ZM38.47,156.88c-.31-.5-.72-.88-1.25-1.14-.53-.26-1.11-.39-1.75-.39-.92,0-1.7.29-2.35.88-.65.59-1.02,1.4-1.11,2.44h6.92c0-.69-.15-1.29-.46-1.79Z"/>
      <path class="cls-1" d="M45.83,164.7c-.67-.29-1.19-.69-1.58-1.2-.39-.51-.6-1.1-.64-1.77h1.88c.05.55.31.99.77,1.34.46.35,1.06.52,1.81.52.69,0,1.24-.15,1.64-.46s.6-.69.6-1.16-.21-.84-.64-1.07-1.09-.46-1.98-.69c-.81-.21-1.48-.43-1.99-.65-.51-.22-.95-.55-1.32-.98-.37-.43-.55-1-.55-1.71,0-.56.17-1.07.5-1.54.33-.47.81-.84,1.42-1.11.61-.27,1.31-.41,2.1-.41,1.21,0,2.19.31,2.94.92s1.15,1.45,1.2,2.52h-1.82c-.04-.57-.27-1.03-.69-1.38-.42-.35-.98-.52-1.69-.52-.65,0-1.17.14-1.56.42s-.58.65-.58,1.1c0,.36.12.66.35.89.23.23.53.42.88.56s.84.3,1.47.47c.79.21,1.43.42,1.92.63.49.21.92.52,1.27.93.35.41.54.95.55,1.62,0,.6-.17,1.14-.5,1.62-.33.48-.8.86-1.41,1.13-.61.27-1.3.41-2.09.41-.84,0-1.59-.14-2.26-.43Z"/>
      <path class="cls-1" d="M66.07,163.27l3.4-9.28h1.94l-4.3,10.96h-2.12l-4.3-10.96h1.96l3.42,9.28Z"/>
      <path class="cls-1" d="M76.2,164.43c-.83-.47-1.49-1.13-1.96-1.99s-.71-1.86-.71-2.99.24-2.11.73-2.97c.49-.86,1.15-1.52,1.99-1.98.84-.46,1.78-.69,2.82-.69s1.98.23,2.82.69c.84.46,1.5,1.12,1.99,1.97.49.85.73,1.85.73,2.98s-.25,2.13-.75,2.99-1.18,1.52-2.03,1.99c-.85.47-1.8.7-2.84.7s-1.96-.23-2.79-.7ZM80.83,163.07c.57-.31,1.04-.77,1.39-1.38s.53-1.36.53-2.24-.17-1.63-.52-2.24c-.35-.61-.8-1.07-1.36-1.37-.56-.3-1.17-.45-1.82-.45s-1.28.15-1.83.45c-.55.3-1,.76-1.33,1.37s-.5,1.36-.5,2.24.16,1.65.49,2.26.76,1.07,1.31,1.37c.55.3,1.15.45,1.8.45s1.27-.15,1.84-.46Z"/>
      <path class="cls-1" d="M88.07,151.85c-.24-.24-.36-.53-.36-.88s.12-.64.36-.88c.24-.24.53-.36.88-.36s.62.12.85.36c.23.24.35.53.35.88s-.12.64-.35.88c-.23.24-.52.36-.85.36s-.64-.12-.88-.36ZM89.83,153.99v10.96h-1.82v-10.96h1.82Z"/>
      <path class="cls-1" d="M103.87,160.15h-8.76c.07,1.08.44,1.92,1.11,2.53s1.49.91,2.45.91c.79,0,1.44-.18,1.97-.55s.9-.86,1.11-1.47h1.96c-.29,1.05-.88,1.91-1.76,2.57-.88.66-1.97.99-3.28.99-1.04,0-1.97-.23-2.79-.7s-1.46-1.13-1.93-1.99c-.47-.86-.7-1.86-.7-2.99s.23-2.13.68-2.98c.45-.85,1.09-1.51,1.91-1.97.82-.46,1.76-.69,2.83-.69s1.96.23,2.76.68,1.42,1.08,1.85,1.87c.43.79.65,1.69.65,2.69,0,.35-.02.71-.06,1.1ZM101.59,156.88c-.31-.5-.72-.88-1.25-1.14-.53-.26-1.11-.39-1.75-.39-.92,0-1.7.29-2.35.88-.65.59-1.02,1.4-1.11,2.44h6.92c0-.69-.15-1.29-.46-1.79Z"/>
      <path class="cls-1" d="M108.95,164.7c-.67-.29-1.19-.69-1.58-1.2-.39-.51-.6-1.1-.64-1.77h1.88c.05.55.31.99.77,1.34s1.06.52,1.81.52c.69,0,1.24-.15,1.64-.46s.6-.69.6-1.16-.21-.84-.64-1.07c-.43-.23-1.09-.46-1.98-.69-.81-.21-1.48-.43-1.99-.65s-.95-.55-1.32-.98c-.37-.43-.55-1-.55-1.71,0-.56.17-1.07.5-1.54.33-.47.81-.84,1.42-1.11.61-.27,1.31-.41,2.1-.41,1.21,0,2.19.31,2.94.92s1.15,1.45,1.2,2.52h-1.82c-.04-.57-.27-1.03-.69-1.38-.42-.35-.98-.52-1.69-.52-.65,0-1.17.14-1.56.42-.39.28-.58.65-.58,1.1,0,.36.12.66.35.89.23.23.53.42.88.56s.84.3,1.47.47c.79.21,1.43.42,1.92.63.49.21.92.52,1.27.93.35.41.54.95.55,1.62,0,.6-.17,1.14-.5,1.62-.33.48-.8.86-1.41,1.13-.61.27-1.3.41-2.09.41-.84,0-1.59-.14-2.26-.43Z"/>
      <path class="cls-1" d="M125.11,156.48c.45-.85,1.08-1.5,1.87-1.97.79-.47,1.68-.7,2.67-.7.85,0,1.65.2,2.38.59.73.39,1.29.91,1.68,1.55v-5.8h1.84v14.8h-1.84v-2.06c-.36.65-.89,1.19-1.6,1.61-.71.42-1.53.63-2.48.63s-1.86-.24-2.65-.72c-.79-.48-1.42-1.15-1.87-2.02-.45-.87-.68-1.85-.68-2.96s.23-2.1.68-2.95ZM133.21,157.29c-.33-.61-.78-1.08-1.35-1.41-.57-.33-1.19-.49-1.87-.49s-1.3.16-1.86.48c-.56.32-1.01.79-1.34,1.4s-.5,1.33-.5,2.16.17,1.57.5,2.19.78,1.09,1.34,1.42,1.18.49,1.86.49,1.3-.16,1.87-.49c.57-.33,1.02-.8,1.35-1.42s.5-1.34.5-2.17-.17-1.55-.5-2.16Z"/>
      <path class="cls-1" d="M149.57,160.15h-8.76c.07,1.08.44,1.92,1.11,2.53s1.49.91,2.45.91c.79,0,1.44-.18,1.97-.55s.9-.86,1.11-1.47h1.96c-.29,1.05-.88,1.91-1.76,2.57-.88.66-1.97.99-3.28.99-1.04,0-1.97-.23-2.79-.7-.82-.47-1.46-1.13-1.93-1.99-.47-.86-.7-1.86-.7-2.99s.23-2.13.68-2.98c.45-.85,1.09-1.51,1.91-1.97.82-.46,1.76-.69,2.83-.69s1.96.23,2.76.68,1.42,1.08,1.85,1.87c.43.79.65,1.69.65,2.69,0,.35-.02.71-.06,1.1ZM147.29,156.88c-.31-.5-.72-.88-1.25-1.14-.53-.26-1.11-.39-1.75-.39-.92,0-1.7.29-2.35.88-.65.59-1.02,1.4-1.11,2.44h6.92c0-.69-.15-1.29-.46-1.79Z"/>
      <path class="cls-1" d="M159.37,156.48c.45-.85,1.08-1.5,1.87-1.97.79-.47,1.68-.7,2.67-.7.85,0,1.65.2,2.38.59.73.39,1.29.91,1.68,1.55v-5.8h1.84v14.8h-1.84v-2.06c-.36.65-.89,1.19-1.6,1.61-.71.42-1.53.63-2.48.63s-1.86-.24-2.65-.72c-.79-.48-1.42-1.15-1.87-2.02-.45-.87-.68-1.85-.68-2.96s.23-2.1.68-2.95ZM167.47,157.29c-.33-.61-.78-1.08-1.35-1.41-.57-.33-1.19-.49-1.87-.49s-1.3.16-1.86.48c-.56.32-1.01.79-1.34,1.4s-.5,1.33-.5,2.16.17,1.57.5,2.19.78,1.09,1.34,1.42,1.18.49,1.86.49,1.3-.16,1.87-.49c.57-.33,1.02-.8,1.35-1.42s.5-1.34.5-2.17-.17-1.55-.5-2.16Z"/>
      <path class="cls-1" d="M183.83,160.15h-8.76c.07,1.08.44,1.92,1.11,2.53s1.49.91,2.45.91c.79,0,1.44-.18,1.97-.55s.9-.86,1.11-1.47h1.96c-.29,1.05-.88,1.91-1.76,2.57-.88.66-1.97.99-3.28.99-1.04,0-1.97-.23-2.79-.7-.82-.47-1.46-1.13-1.93-1.99s-.7-1.86-.7-2.99.23-2.13.68-2.98c.45-.85,1.09-1.51,1.91-1.97.82-.46,1.76-.69,2.83-.69s1.96.23,2.76.68c.8.45,1.42,1.08,1.85,1.87.43.79.65,1.69.65,2.69,0,.35-.02.71-.06,1.1ZM181.55,156.88c-.31-.5-.72-.88-1.25-1.14-.53-.26-1.11-.39-1.75-.39-.92,0-1.7.29-2.35.88-.65.59-1.02,1.4-1.11,2.44h6.92c0-.69-.15-1.29-.46-1.79Z"/>
      <path class="cls-1" d="M202.75,154.32c.67.35,1.19.88,1.58,1.59.39.71.58,1.57.58,2.58v6.46h-1.8v-6.2c0-1.09-.27-1.93-.81-2.51-.54-.58-1.27-.87-2.19-.87s-1.7.3-2.26.91-.84,1.48-.84,2.63v6.04h-1.8v-6.2c0-1.09-.27-1.93-.81-2.51-.54-.58-1.27-.87-2.19-.87s-1.7.3-2.26.91-.84,1.48-.84,2.63v6.04h-1.82v-10.96h1.82v1.58c.36-.57.84-1.01,1.45-1.32.61-.31,1.28-.46,2.01-.46.92,0,1.73.21,2.44.62.71.41,1.23,1.02,1.58,1.82.31-.77.81-1.37,1.52-1.8.71-.43,1.49-.64,2.36-.64s1.61.18,2.28.53Z"/>
      <path class="cls-1" d="M208.89,156.48c.45-.85,1.08-1.5,1.87-1.97.79-.47,1.68-.7,2.65-.7s1.79.21,2.5.62c.71.41,1.23.93,1.58,1.56v-2h1.84v10.96h-1.84v-2.04c-.36.64-.9,1.17-1.61,1.59-.71.42-1.54.63-2.49.63s-1.85-.24-2.64-.72c-.79-.48-1.41-1.15-1.86-2.02-.45-.87-.68-1.85-.68-2.96s.23-2.1.68-2.95ZM216.99,157.29c-.33-.61-.78-1.08-1.35-1.41-.57-.33-1.19-.49-1.87-.49s-1.3.16-1.86.48c-.56.32-1.01.79-1.34,1.4s-.5,1.33-.5,2.16.17,1.57.5,2.19.78,1.09,1.34,1.42,1.18.49,1.86.49,1.3-.16,1.87-.49c.57-.33,1.02-.8,1.35-1.42s.5-1.34.5-2.17-.17-1.55-.5-2.16Z"/>
      <path class="cls-1" d="M223.47,151.85c-.24-.24-.36-.53-.36-.88s.12-.64.36-.88c.24-.24.53-.36.88-.36s.62.12.85.36c.23.24.35.53.35.88s-.12.64-.35.88c-.23.24-.52.36-.85.36s-.64-.12-.88-.36ZM225.23,153.99v10.96h-1.82v-10.96h1.82Z"/>
      <path class="cls-1" d="M237.91,155c.83.81,1.24,1.97,1.24,3.49v6.46h-1.8v-6.2c0-1.09-.27-1.93-.82-2.51-.55-.58-1.29-.87-2.24-.87s-1.72.3-2.29.9c-.57.6-.85,1.47-.85,2.62v6.06h-1.82v-10.96h1.82v1.56c.36-.56.85-.99,1.47-1.3.62-.31,1.3-.46,2.05-.46,1.33,0,2.41.4,3.24,1.21Z"/>
    </g>
  </g>
</svg>