<svg width="206" height="214" viewBox="0 0 206 214" fill="none" xmlns="http://www.w3.org/2000/svg">
<path d="M122.4 122.454C122.438 122.487 122.474 122.522 122.507 122.558L122.813 122.868L123.993 124.09L128.443 128.751L144.213 145.38H144.03L161.918 125.343L162.041 125.207L162.143 125.359L163.446 127.278L176.98 147.205L176.792 147.173L189.8 137.01L189.875 136.953L189.939 137.021L199.87 148.033L202.551 151.038L203.248 151.824C203.403 152.003 203.478 152.097 203.478 152.097C203.478 152.097 203.387 152.013 203.226 151.845L202.519 151.038L199.784 148.07L189.789 137.136H189.929L176.953 147.367L176.845 147.451L176.765 147.336L163.215 127.441L161.907 125.516H162.127C155.617 132.805 149.494 139.648 144.218 145.553L144.127 145.652L144.036 145.553C137.558 138.662 132.138 132.905 128.336 128.856L123.939 124.137L122.786 122.889C122.663 122.747 122.566 122.642 122.491 122.564C122.416 122.485 122.395 122.459 122.4 122.454Z" fill="#E6E6E6"/>
<path d="M142.364 145.515C142.361 145.879 142.469 146.236 142.674 146.541C142.879 146.845 143.172 147.082 143.515 147.223C143.859 147.364 144.238 147.402 144.603 147.331C144.969 147.261 145.305 147.086 145.568 146.828C145.831 146.571 146.01 146.242 146.082 145.885C146.154 145.527 146.116 145.157 145.972 144.821C145.828 144.485 145.585 144.199 145.274 143.998C144.962 143.798 144.597 143.692 144.225 143.695C143.732 143.698 143.261 143.891 142.912 144.231C142.564 144.572 142.367 145.033 142.364 145.515Z" fill="#E0E0E0"/>
<path d="M175.215 147.702C175.217 148.066 175.329 148.42 175.538 148.721C175.746 149.022 176.041 149.255 176.385 149.392C176.729 149.529 177.106 149.563 177.47 149.489C177.834 149.416 178.167 149.239 178.428 148.98C178.689 148.722 178.865 148.393 178.935 148.036C179.005 147.68 178.964 147.311 178.82 146.976C178.675 146.642 178.432 146.357 178.121 146.157C177.811 145.958 177.447 145.853 177.075 145.857C176.579 145.861 176.104 146.057 175.755 146.403C175.406 146.749 175.212 147.216 175.215 147.702Z" fill="#E0E0E0"/>
<path d="M187.993 137.597C187.996 137.959 188.109 138.312 188.318 138.611C188.526 138.91 188.82 139.142 189.163 139.278C189.506 139.413 189.883 139.447 190.245 139.373C190.608 139.299 190.94 139.122 191.199 138.864C191.458 138.606 191.634 138.278 191.703 137.923C191.772 137.567 191.732 137.199 191.587 136.866C191.443 136.533 191.2 136.249 190.891 136.051C190.581 135.852 190.219 135.748 189.848 135.751C189.353 135.757 188.879 135.954 188.531 136.3C188.184 136.646 187.99 137.112 187.993 137.597Z" fill="#E0E0E0"/>
<path d="M160.149 125.589C160.152 125.952 160.264 126.306 160.472 126.607C160.68 126.908 160.975 127.141 161.319 127.278C161.663 127.415 162.041 127.449 162.405 127.376C162.769 127.302 163.102 127.125 163.363 126.866C163.623 126.608 163.8 126.279 163.869 125.923C163.939 125.566 163.899 125.197 163.754 124.862C163.609 124.528 163.366 124.243 163.056 124.044C162.745 123.844 162.381 123.74 162.01 123.743C161.513 123.747 161.038 123.944 160.69 124.29C160.341 124.636 160.147 125.103 160.149 125.589Z" fill="#E0E0E0"/>
<path d="M201.999 152.149C202.001 152.512 202.113 152.866 202.322 153.167C202.53 153.468 202.825 153.701 203.169 153.838C203.513 153.975 203.891 154.009 204.254 153.936C204.618 153.862 204.951 153.685 205.212 153.427C205.473 153.168 205.649 152.839 205.719 152.483C205.789 152.126 205.749 151.757 205.604 151.422C205.459 151.088 205.216 150.803 204.906 150.604C204.595 150.404 204.231 150.3 203.86 150.303C203.363 150.307 202.888 150.504 202.539 150.85C202.19 151.196 201.996 151.663 201.999 152.149Z" fill="#E0E0E0"/>
<path d="M37.6333 13.2822H25.585V60.1464H37.6333V13.2822Z" fill="#E6E6E6"/>
<path d="M55.355 23.502H43.3066V60.1406H55.355V23.502Z" fill="#E6E6E6"/>
<path d="M73.3491 31.8711H61.3008V60.1406H73.3491V31.8711Z" fill="#E6E6E6"/>
<path d="M90.0092 43.355H77.9609V60.1457H90.0092V43.355Z" fill="#E6E6E6"/>
<path d="M80.363 1.58838C80.363 1.58838 80.2504 1.72996 80.0305 1.98167L79.0278 3.10909L75.2155 7.35659L61.4674 22.5637L61.3924 22.6424L61.3066 22.5794L52.336 15.8568H52.5183L39.9714 31.41L39.8212 31.5988L39.7301 31.7142L39.6175 31.6146L22.722 17.021H22.9096C16.2769 25.537 10.6576 32.8102 6.63611 37.9543L1.95512 43.9376L0.705785 45.5107L0.378706 45.9145C0.342199 45.9622 0.302807 46.0077 0.260742 46.0508C0.291201 45.9996 0.325242 45.9506 0.362621 45.904L0.673611 45.4845L1.89078 43.8746L6.50742 37.8495L22.7005 16.8427L22.7863 16.7326L22.8882 16.8217L39.8052 31.3786H39.6014L39.7515 31.1898L52.3146 15.6471L52.395 15.5475L52.4969 15.6261L61.4514 22.3435H61.2905L75.1083 7.25696C76.7758 5.44784 78.0841 4.02676 78.9796 3.0619L80.0037 1.96069C80.2396 1.6985 80.363 1.58838 80.363 1.58838Z" fill="#E6E6E6"/>
<path d="M78.373 12.4585C78.3687 12.3789 78.3778 12.2992 78.3999 12.2225L78.5339 11.5513C78.6733 10.9273 78.861 10.0988 79.0701 9.08671C79.5473 6.98918 80.2229 4.12605 81.0004 0.916826L81.172 1.07414L80.5661 1.25767C77.2041 2.26973 74.1586 3.16643 71.9494 3.80618L69.3274 4.54556L68.6089 4.73433C68.5265 4.76438 68.4395 4.78035 68.3516 4.78153C68.4285 4.74066 68.5093 4.70729 68.5928 4.6819L69.2953 4.44592L71.8904 3.62264C74.0835 2.9357 77.1237 2.00754 80.4696 1.00073L81.0755 0.822437L81.3114 0.749023L81.2524 0.984994C80.5071 4.20995 79.8261 7.0626 79.2899 9.13391C79.0272 10.1355 78.8127 10.9588 78.6572 11.5775C78.5822 11.8345 78.5178 12.0547 78.4696 12.233C78.4489 12.3124 78.4164 12.3884 78.373 12.4585Z" fill="#E6E6E6"/>
<path d="M173.421 80.8277C175.815 80.7897 178.167 81.4467 180.179 82.7159C182.192 83.985 183.774 85.8091 184.726 87.9577C185.679 90.1062 185.958 92.4827 185.529 94.7865C185.101 97.0904 183.983 99.2182 182.318 100.901C180.653 102.584 178.515 103.746 176.174 104.24C173.834 104.735 171.396 104.539 169.169 103.679C166.942 102.819 165.026 101.332 163.663 99.4064C162.3 97.4811 161.552 95.2037 161.512 92.8623C161.463 89.7231 162.69 86.6931 164.922 84.437C167.155 82.1809 170.211 80.8829 173.421 80.8277ZM173.711 98.3316C174.855 98.3108 175.968 97.9586 176.908 97.3195C177.848 96.6805 178.573 95.7834 178.992 94.7414C179.411 93.6995 179.504 92.5595 179.261 91.4655C179.018 90.3715 178.448 89.3726 177.625 88.595C176.801 87.8173 175.76 87.2959 174.634 87.0965C173.507 86.8971 172.346 87.0287 171.296 87.4747C170.246 87.9207 169.354 88.6611 168.734 89.6023C168.114 90.5435 167.794 91.6433 167.812 92.7627C167.826 93.5071 167.989 94.2417 168.292 94.9245C168.596 95.6073 169.034 96.2249 169.582 96.7421C170.13 97.2592 170.776 97.6658 171.485 97.9385C172.193 98.2113 172.949 98.3448 173.711 98.3316Z" fill="#E0E0E0"/>
<path d="M173.398 79.3544C177.009 79.3039 180.493 80.6555 183.086 83.1129C185.679 85.5704 187.17 88.9331 187.232 92.464L178.975 92.6737C178.921 89.1656 176.492 87.7393 173.613 87.561C172.905 87.5196 172.196 87.6219 171.531 87.8614C170.866 88.1009 170.259 88.4725 169.748 88.9527C169.236 89.433 168.832 90.0115 168.561 90.6519C168.289 91.2922 168.156 91.9806 168.17 92.6737L159.999 92.8887C159.943 89.3569 161.323 85.9478 163.835 83.4101C166.347 80.8724 169.787 79.4137 173.398 79.3544Z" fill="#F0F0F0"/>
<path d="M75.3819 133.003C79.5502 128.726 85.2688 126.219 91.3075 126.023C97.3461 125.827 103.222 127.957 107.672 131.955C109.857 133.925 111.621 136.299 112.862 138.941C114.102 141.583 114.794 144.439 114.897 147.344C115 150.249 114.513 153.145 113.463 155.865C112.413 158.584 110.822 161.073 108.781 163.187C104.613 167.464 98.8945 169.971 92.8559 170.167C86.8172 170.363 80.9411 168.233 76.4918 164.236C74.3062 162.266 72.5421 159.891 71.3018 157.249C70.0615 154.607 69.3697 151.751 69.2665 148.846C69.1632 145.941 69.6506 143.045 70.7004 140.325C71.7501 137.606 73.3414 135.117 75.3819 133.003ZM100.047 155.311C101.025 154.3 101.788 153.11 102.291 151.809C102.795 150.508 103.028 149.121 102.978 147.731C102.928 146.341 102.596 144.974 102.001 143.71C101.405 142.447 100.559 141.311 99.5106 140.371C97.381 138.462 94.5698 137.447 91.6824 137.545C88.7951 137.643 86.0627 138.846 84.0736 140.895C83.0954 141.905 82.3324 143.096 81.8292 144.397C81.3259 145.698 81.0925 147.085 81.1424 148.475C81.1923 149.865 81.5245 151.232 82.1198 152.496C82.7151 153.759 83.5615 154.894 84.6098 155.835C86.7394 157.749 89.5532 158.766 92.4435 158.668C95.3339 158.57 98.0688 157.364 100.058 155.311H100.047Z" fill="#F5F5F5"/>
<path d="M75.3813 133.003C79.5496 128.726 85.2683 126.219 91.3069 126.023C97.3456 125.827 103.222 127.957 107.671 131.955L99.5316 140.387C97.4019 138.477 94.5907 137.463 91.7033 137.561C88.816 137.659 86.0836 138.862 84.0945 140.911C83.1163 141.921 82.3533 143.112 81.8501 144.413C81.3468 145.714 81.1134 147.1 81.1633 148.491C81.2132 149.881 81.5454 151.248 82.1407 152.511C82.736 153.775 83.5824 154.91 84.6307 155.851L76.4805 164.251C74.2932 162.28 72.5279 159.904 71.2872 157.261C70.0464 154.617 69.3548 151.759 69.2525 148.852C69.1503 145.945 69.6394 143.047 70.6915 140.326C71.7436 137.606 73.3377 135.117 75.3813 133.003Z" fill="#E0E0E0"/>
<path d="M106.739 128.332C118 138.52 119.367 155.075 108.831 166.003L97.3936 156.36C102.428 151.142 103.522 144.173 98.1335 139.302L106.739 128.332Z" fill="#F0F0F0"/>
<path d="M96.2031 157.052L102.997 170.193C105.806 169.186 108.337 167.555 110.391 165.427L98.1871 155.789L96.2031 157.052Z" fill="#E0E0E0"/>
<path d="M121.832 35.7515C121.733 29.8612 123.423 24.0745 126.687 19.1235C129.952 14.1725 134.645 10.2796 140.172 7.93738C145.699 5.59513 151.813 4.90875 157.739 5.96508C163.665 7.0214 169.138 9.77296 173.464 13.8717C177.791 17.9704 180.778 23.232 182.046 28.991C183.315 34.7501 182.808 40.7476 180.591 46.225C178.373 51.7024 174.544 56.4135 169.588 59.7624C164.633 63.1112 158.772 64.9473 152.749 65.0383C144.682 65.1506 136.899 62.1312 131.104 56.6418C125.309 51.1523 121.975 43.6404 121.832 35.7515ZM166.835 35.0436C166.788 32.2283 165.889 29.4899 164.25 27.1746C162.612 24.8593 160.308 23.071 157.631 22.036C154.953 21.001 152.022 20.7656 149.208 21.3597C146.394 21.9537 143.823 23.3506 141.82 25.3735C139.817 27.3965 138.473 29.9548 137.957 32.7248C137.441 35.4949 137.777 38.3524 138.921 40.936C140.066 43.5196 141.968 45.7133 144.388 47.2397C146.807 48.766 149.635 49.5566 152.513 49.5113C156.373 49.4465 160.049 47.8867 162.734 45.1743C165.419 42.4619 166.894 38.8184 166.835 35.0436Z" fill="#FAFAFA"/>
<path d="M121.833 35.7517C121.711 27.8571 124.797 20.2378 130.413 14.5661C136.03 8.89444 143.718 5.63384 151.79 5.5L152.047 21.0375C148.186 21.098 144.508 22.656 141.822 25.3687C139.135 28.0814 137.661 31.7267 137.723 35.5026C137.785 39.2785 139.378 42.8757 142.152 45.5028C144.925 48.13 148.653 49.572 152.514 49.5115L152.75 65.0385C144.682 65.1535 136.897 62.1351 131.101 56.645C125.305 51.155 121.972 43.6414 121.833 35.7517Z" fill="#E0E0E0"/>
<path d="M149.055 3.10827C168.696 2.79888 184.369 17.6389 184.68 36.8471L166.09 37.1407C165.939 27.9535 158.76 22.1696 149.371 22.3217L149.055 3.10827Z" fill="#F0F0F0"/>
<path d="M184.918 212.877C184.918 212.951 144.827 213.014 95.3737 213.014C45.9204 213.014 5.8291 212.951 5.8291 212.877C5.8291 212.804 45.9097 212.736 95.3737 212.736C144.838 212.736 184.918 212.799 184.918 212.877Z" fill="#1F7A93"/>
<path d="M60.7734 140.167L160.13 139.469V140.833L60.7734 141.703V140.167Z" fill="#1F7A93"/>
<path d="M58.6064 41.3779L60.8692 140.979L160.13 140.224V39.7051L58.6064 41.3779Z" fill="white"/>
<path d="M58.6069 41.378L160.13 39.5898H160.253V39.7104C160.253 68.4834 160.253 102.437 160.253 138.662V140.366H160.114L60.8536 141.105H60.7356V140.99C59.4541 81.294 58.6176 42.4058 58.5908 41.3832C58.5908 42.39 59.5452 81.294 60.9715 140.979L60.8536 140.864L160.114 140.093L159.975 140.229V138.656C159.975 102.432 159.975 68.4781 159.975 39.7052L160.098 39.8258L58.6069 41.378Z" fill="#1F7A93"/>
<path d="M58.21 42.0439L160.564 41.4723L160.693 37.272L58.21 37.896V42.0439Z" fill="#1F7A93"/>
<path d="M107.208 143.696C107.036 143.696 106.854 142.915 106.806 141.939C106.757 140.964 106.865 140.167 107.036 140.156C107.208 140.146 107.39 140.932 107.438 141.908C107.487 142.883 107.385 143.696 107.208 143.696Z" fill="#1F7A93"/>
<path d="M107.169 142.978C107.169 142.941 107.341 142.931 107.609 143.036C107.771 143.102 107.922 143.19 108.059 143.298C108.244 143.443 108.399 143.621 108.515 143.822C108.674 144.101 108.754 144.416 108.747 144.735C108.739 145.054 108.644 145.365 108.472 145.636C108.369 145.8 108.239 145.945 108.086 146.066C107.927 146.192 107.745 146.286 107.55 146.344C107.136 146.456 106.694 146.425 106.301 146.255C106.102 146.169 105.92 146.048 105.765 145.899C105.61 145.749 105.488 145.571 105.405 145.374C105.257 145.017 105.225 144.623 105.314 144.247C105.38 143.933 105.535 143.644 105.76 143.413C105.986 143.181 106.273 143.016 106.59 142.936C106.996 142.827 107.428 142.865 107.807 143.041C108.065 143.167 108.161 143.298 108.14 143.329C108.118 143.361 107.974 143.329 107.727 143.266C107.391 143.205 107.045 143.234 106.724 143.35C106.518 143.429 106.334 143.555 106.188 143.717C106.021 143.909 105.911 144.143 105.873 144.392C105.834 144.641 105.867 144.896 105.968 145.128C106.085 145.377 106.294 145.574 106.553 145.678C106.811 145.791 107.1 145.815 107.373 145.747C107.625 145.683 107.843 145.53 107.984 145.317C108.124 145.116 108.207 144.882 108.226 144.64C108.242 144.531 108.242 144.419 108.226 144.31C108.208 144.207 108.178 144.106 108.135 144.011C107.997 143.702 107.781 143.433 107.507 143.23C107.309 143.093 107.169 143.02 107.169 142.978Z" fill="#1F7A93"/>
<path d="M121.937 95.8828C121.937 95.8828 121.937 95.8828 121.873 95.8828H121.691L120.983 95.9143L118.254 96.0297L108.216 96.3967C99.7388 96.7009 88.0229 97.1046 75.0899 97.5399L70.6394 97.6867H70.5376V97.5871C69.6368 86.0139 68.8217 75.6416 68.2587 68.1849C67.9799 64.4618 67.7601 61.4676 67.6046 59.4067C67.5349 58.358 67.4759 57.5766 67.4384 57.0365C67.4384 56.7639 67.4062 56.5593 67.4008 56.4178C67.3955 56.2762 67.4008 56.2971 67.4008 56.2604C67.4008 56.2237 67.4008 56.208 67.4008 56.208C67.4033 56.2254 67.4033 56.243 67.4008 56.2604C67.4008 56.2971 67.4008 56.3496 67.4008 56.4178C67.4008 56.4859 67.433 56.7638 67.4598 57.0313C67.5027 57.5557 67.5724 58.3685 67.6636 59.4015C67.8298 61.4623 68.0764 64.4566 68.3821 68.1692C68.9826 75.6049 69.8083 85.951 70.7199 97.5713L70.6126 97.477L75.063 97.3249C87.9961 96.8949 99.728 96.5121 108.189 96.2499L118.232 95.9458L120.961 95.8723H121.669H121.916L121.937 95.8828Z" fill="#455A64"/>
<path d="M85.9961 52.9833V54.3205L100.141 53.6598V52.5376L85.9961 52.9833Z" fill="#1F7A93"/>
<path d="M75.2879 94.7394H80.2048L79.4327 81.6875H74.6123L75.2879 94.7394Z" fill="#80D8E5"/>
<path d="M75.2879 94.7394H80.2048L79.4327 81.6875H74.6123L75.2879 94.7394Z" fill="#FFB84D"/>
<path d="M75.2879 94.7394H80.2048L79.4327 81.6875H74.6123L75.2879 94.7394Z" fill="#FF6E61"/>
<path d="M84.2 94.7443H89.1116L88.3448 76.501H83.5244L84.2 94.7443Z" fill="#80D8E5"/>
<path d="M84.2 94.7443H89.1116L88.3448 76.501H83.5244L84.2 94.7443Z" fill="#FFB84D"/>
<path d="M84.2 94.7443H89.1116L88.3448 76.501H83.5244L84.2 94.7443Z" fill="#FF6E61"/>
<path d="M92.5423 94.163H97.4592L96.6871 70.2773H91.8721L92.5423 94.163Z" fill="#80D8E5"/>
<path d="M92.5423 94.163H97.4592L96.6871 70.2773H91.8721L92.5423 94.163Z" fill="#FFB84D"/>
<path d="M92.5423 94.163H97.4592L96.6871 70.2773H91.8721L92.5423 94.163Z" fill="#FF6E61"/>
<path d="M111.683 93.2349H116.595L115.828 60.6812H111.008L111.683 93.2349Z" fill="#80D8E5"/>
<path d="M111.683 93.2349H116.595L115.828 60.6812H111.008L111.683 93.2349Z" fill="#FFB84D"/>
<path d="M111.683 93.2349H116.595L115.828 60.6812H111.008L111.683 93.2349Z" fill="#FF6E61"/>
<path d="M102.372 93.3446H107.283L106.511 65.332H101.696L102.372 93.3446Z" fill="#80D8E5"/>
<path d="M102.372 93.3446H107.283L106.511 65.332H101.696L102.372 93.3446Z" fill="#FFB84D"/>
<path d="M102.372 93.3446H107.283L106.511 65.332H101.696L102.372 93.3446Z" fill="#FF6E61"/>
<path d="M72.1996 78.3053C72.071 78.1112 80.8538 72.385 91.8083 65.5155C102.763 58.6461 111.76 53.2345 111.889 53.4547C112.018 53.675 103.235 59.375 92.2748 66.2444C81.315 73.1139 72.3176 78.4993 72.1996 78.3053Z" fill="#80D8E5"/>
<path d="M72.1996 78.3053C72.071 78.1112 80.8538 72.385 91.8083 65.5155C102.763 58.6461 111.76 53.2345 111.889 53.4547C112.018 53.675 103.235 59.375 92.2748 66.2444C81.315 73.1139 72.3176 78.4993 72.1996 78.3053Z" fill="#FFB84D"/>
<path d="M72.1996 78.3053C72.071 78.1112 80.8538 72.385 91.8083 65.5155C102.763 58.6461 111.76 53.2345 111.889 53.4547C112.018 53.675 103.235 59.375 92.2748 66.2444C81.315 73.1139 72.3176 78.4993 72.1996 78.3053Z" fill="#FF6E61"/>
<path d="M107.025 53.4343C106.982 53.2035 110.162 52.4274 114.14 51.6933L115.148 51.5098L114.574 52.3435L114.542 52.3907C112.269 55.6943 110.253 58.2691 110.065 58.1589C109.877 58.0488 111.556 55.2486 113.818 51.9398L113.851 51.8926L114.29 52.5428C110.317 53.2507 107.068 53.6597 107.025 53.4343Z" fill="#80D8E5"/>
<path d="M107.025 53.4343C106.982 53.2035 110.162 52.4274 114.14 51.6933L115.148 51.5098L114.574 52.3435L114.542 52.3907C112.269 55.6943 110.253 58.2691 110.065 58.1589C109.877 58.0488 111.556 55.2486 113.818 51.9398L113.851 51.8926L114.29 52.5428C110.317 53.2507 107.068 53.6597 107.025 53.4343Z" fill="#FFB84D"/>
<path d="M107.025 53.4343C106.982 53.2035 110.162 52.4274 114.14 51.6933L115.148 51.5098L114.574 52.3435L114.542 52.3907C112.269 55.6943 110.253 58.2691 110.065 58.1589C109.877 58.0488 111.556 55.2486 113.818 51.9398L113.851 51.8926L114.29 52.5428C110.317 53.2507 107.068 53.6597 107.025 53.4343Z" fill="#FF6E61"/>
<path d="M74.6123 99.1499H79.7491L79.9099 100.041H74.6123V99.1499Z" fill="#1F7A93"/>
<path d="M83.7051 98.7822H88.8418L89.0027 99.6737H83.7051V98.7822Z" fill="#1F7A93"/>
<path d="M93.0684 98.52H98.2051L98.366 99.4115H93.0684V98.52Z" fill="#1F7A93"/>
<path d="M101.841 98.3052H106.978L107.138 99.2019H101.841V98.3052Z" fill="#1F7A93"/>
<path d="M112.709 97.9912H117.846L118.007 98.8879H112.709V97.9912Z" fill="#1F7A93"/>
<path d="M135.748 133.534C144.804 133.534 152.145 126.354 152.145 117.498C152.145 108.642 144.804 101.462 135.748 101.462C126.693 101.462 119.352 108.642 119.352 117.498C119.352 126.354 126.693 133.534 135.748 133.534Z" fill="#80D8E5"/>
<path d="M135.748 133.534C144.804 133.534 152.145 126.354 152.145 117.498C152.145 108.642 144.804 101.462 135.748 101.462C126.693 101.462 119.352 108.642 119.352 117.498C119.352 126.354 126.693 133.534 135.748 133.534Z" fill="#FFB84D"/>
<path d="M135.748 133.534C144.804 133.534 152.145 126.354 152.145 117.498C152.145 108.642 144.804 101.462 135.748 101.462C126.693 101.462 119.352 108.642 119.352 117.498C119.352 126.354 126.693 133.534 135.748 133.534Z" fill="#FF6E61"/>
<path opacity="0.3" d="M135.748 133.534C144.804 133.534 152.145 126.354 152.145 117.498C152.145 108.642 144.804 101.462 135.748 101.462C126.693 101.462 119.352 108.642 119.352 117.498C119.352 126.354 126.693 133.534 135.748 133.534Z" fill="black"/>
<path d="M135.748 117.477L119.754 120.996C117.18 109.459 126.692 101.441 135.748 101.441" fill="#80D8E5"/>
<path d="M135.748 117.477L119.754 120.996C117.18 109.459 126.692 101.441 135.748 101.441" fill="#FFB84D"/>
<path d="M135.748 117.477L119.754 120.996C117.18 109.459 126.692 101.441 135.748 101.441" fill="#FF6E61"/>
<path d="M135.769 117.477L135.662 101.441C147.737 101.441 153.721 112.238 151.791 120.891L135.769 117.477Z" fill="#80D8E5"/>
<path d="M135.769 117.477L135.662 101.441C147.737 101.441 153.721 112.238 151.791 120.891L135.769 117.477Z" fill="#FFB84D"/>
<path d="M135.769 117.477L135.662 101.441C147.737 101.441 153.721 112.238 151.791 120.891L135.769 117.477Z" fill="#FF6E61"/>
<path d="M135.769 117.477L135.662 101.441C147.737 101.441 153.721 112.238 151.791 120.891L135.769 117.477Z" fill="#80D8E5"/>
<path d="M135.769 117.477L135.662 101.441C147.737 101.441 153.721 112.238 151.791 120.891L135.769 117.477Z" fill="#FFB84D"/>
<path d="M135.769 117.477L135.662 101.441C147.737 101.441 153.721 112.238 151.791 120.891L135.769 117.477Z" fill="#FF6E61"/>
<path opacity="0.1" d="M135.769 117.477L135.662 101.441C147.737 101.441 153.721 112.238 151.791 120.891L135.769 117.477Z" fill="black"/>
<path d="M152.569 79.527C152.25 79.3187 151.911 79.143 151.555 79.0026C150.565 78.7064 149.503 78.7359 148.531 79.0865C147.277 79.4693 146.033 80.4447 144.826 81.6665C143.62 82.8883 142.328 84.3671 140.44 85.2323C139.529 85.6749 138.504 85.841 137.496 85.7095C136.587 85.525 135.708 85.2179 134.885 84.7971C134.161 84.4281 133.386 84.1615 132.585 84.0053C131.888 83.8983 131.174 83.9855 130.526 84.257C129.572 84.6531 128.791 85.3663 128.322 86.2706C128.171 86.6104 128.048 86.961 127.952 87.3194C127.969 86.94 128.062 86.5676 128.226 86.2234C128.675 85.2685 129.464 84.5061 130.445 84.0787C131.118 83.7859 131.861 83.6823 132.59 83.7798C133.418 83.93 134.22 84.1948 134.971 84.5663C135.773 84.9731 136.628 85.2696 137.513 85.4473C138.466 85.5634 139.434 85.4029 140.295 84.9858C142.108 84.1573 143.378 82.6891 144.617 81.4882C145.856 80.2874 147.137 79.2753 148.44 78.903C149.452 78.5577 150.554 78.5577 151.566 78.903C151.836 79.0048 152.091 79.1424 152.322 79.312C152.413 79.3735 152.496 79.4457 152.569 79.527Z" fill="#1F7A93"/>
<path d="M153.958 89.8893C153.958 89.9679 148.135 90.0256 140.955 90.0256C133.775 90.0256 127.952 89.9679 127.952 89.8893C127.952 89.8106 133.775 89.7529 140.955 89.7529C148.135 89.7529 153.958 89.8159 153.958 89.8893Z" fill="#1F7A93"/>
<path d="M152.51 89.8889C152.434 89.8889 152.37 86.6482 152.37 82.6471C152.37 78.6461 152.434 75.4106 152.51 75.4106C152.585 75.4106 152.649 78.6513 152.649 82.6471C152.649 86.6429 152.59 89.8889 152.51 89.8889Z" fill="#1F7A93"/>
<path d="M130.576 83.79C130.576 83.79 130.538 83.7376 130.576 83.6432C130.6 83.5769 130.64 83.5168 130.691 83.467C130.741 83.4172 130.803 83.3788 130.871 83.3547C130.973 83.3107 131.085 83.2947 131.196 83.3086C131.306 83.3224 131.411 83.3656 131.498 83.4334C131.593 83.5371 131.648 83.669 131.656 83.8077C131.664 83.9464 131.624 84.0835 131.541 84.1968C131.459 84.31 131.34 84.3927 131.204 84.4312C131.067 84.4697 130.921 84.4618 130.79 84.4088C130.698 84.3548 130.622 84.2778 130.57 84.1857C130.518 84.0935 130.492 83.9895 130.495 83.8844C130.494 83.8145 130.507 83.7451 130.534 83.6802C130.561 83.6154 130.6 83.5564 130.651 83.5068C130.731 83.4439 130.79 83.4439 130.796 83.4544C130.801 83.4649 130.651 83.6065 130.688 83.8739C130.696 83.9427 130.72 84.0088 130.758 84.0671C130.796 84.1253 130.847 84.1741 130.908 84.2095C130.983 84.228 131.063 84.224 131.135 84.1979C131.208 84.1718 131.271 84.1248 131.317 84.0631C131.362 84.0014 131.387 83.9278 131.389 83.852C131.39 83.7762 131.369 83.7016 131.326 83.6379C131.273 83.5947 131.209 83.565 131.141 83.5513C131.072 83.5376 131.002 83.5403 130.935 83.5593C130.662 83.6012 130.613 83.8005 130.576 83.79Z" fill="#1F7A93"/>
<path d="M148.108 78.5305C148.108 78.5305 148.108 78.4676 148.205 78.4152C148.329 78.3539 148.474 78.3426 148.607 78.3837C148.713 78.4118 148.809 78.4678 148.884 78.5454C148.96 78.6231 149.012 78.7195 149.036 78.8242C149.044 78.9594 149.005 79.0934 148.926 79.2046C148.847 79.3158 148.732 79.3977 148.599 79.437C148.467 79.4764 148.325 79.471 148.196 79.4216C148.067 79.3723 147.958 79.2819 147.888 79.165C147.85 79.064 147.84 78.9545 147.86 78.8483C147.879 78.7422 147.928 78.6432 148.001 78.562C148.091 78.4572 148.22 78.3913 148.36 78.3785C148.457 78.3785 148.505 78.4099 148.5 78.4257C148.494 78.4414 148.296 78.4519 148.162 78.6774C148.125 78.7335 148.101 78.7974 148.094 78.8638C148.087 78.9303 148.095 78.9975 148.119 79.0602C148.166 79.1168 148.229 79.1584 148.301 79.1796C148.372 79.2008 148.448 79.2007 148.52 79.1793C148.591 79.1579 148.654 79.1162 148.701 79.0595C148.748 79.0028 148.777 78.9336 148.784 78.8609C148.77 78.7956 148.74 78.7346 148.697 78.6826C148.654 78.6307 148.599 78.5894 148.537 78.562C148.301 78.4466 148.135 78.5672 148.108 78.5305Z" fill="#1F7A93"/>
<path d="M152.049 61.3678C152.049 61.4412 146.408 61.5041 139.454 61.5041C132.499 61.5041 126.858 61.4412 126.858 61.3678C126.858 61.2944 132.494 61.2314 139.454 61.2314C146.413 61.2314 152.049 61.3049 152.049 61.3678Z" fill="#1F7A93"/>
<path d="M152.049 64.8024C152.049 64.881 146.408 64.9387 139.454 64.9387C132.499 64.9387 126.858 64.881 126.858 64.8024C126.858 64.7237 132.494 64.666 139.454 64.666C146.413 64.666 152.049 64.7289 152.049 64.8024Z" fill="#1F7A93"/>
<path d="M152.049 68.2267C152.049 68.3001 146.408 68.363 139.454 68.363C132.499 68.363 126.858 68.3001 126.858 68.2267C126.858 68.1533 132.494 68.0903 139.454 68.0903C146.413 68.0903 152.049 68.148 152.049 68.2267Z" fill="#1F7A93"/>
<path d="M152.049 71.6456C152.049 71.7243 146.408 71.782 139.454 71.782C132.499 71.782 126.858 71.7243 126.858 71.6456C126.858 71.567 132.494 71.5093 139.454 71.5093C146.413 71.5093 152.049 71.5722 152.049 71.6456Z" fill="#1F7A93"/>
<path d="M140.263 55.1226H126.858V56.229H140.263V55.1226Z" fill="#1F7A93"/>
<path d="M84.9273 110.057H71.5225V111.163H84.9273V110.057Z" fill="#1F7A93"/>
<path d="M108.204 116.47C108.204 116.548 100.07 116.606 90.0379 116.606C80.0057 116.606 71.8662 116.548 71.8662 116.47C71.8662 116.391 80.0003 116.333 90.0379 116.333C100.075 116.333 108.204 116.396 108.204 116.47Z" fill="#1F7A93"/>
<path d="M108.418 119.574C108.418 119.648 100.14 119.711 89.9304 119.711C79.7212 119.711 71.4424 119.648 71.4424 119.574C71.4424 119.501 79.7159 119.438 89.9304 119.438C100.145 119.438 108.418 119.511 108.418 119.574Z" fill="#1F7A93"/>
<path d="M108.844 122.5C108.844 122.574 100.517 122.636 90.2486 122.636C79.9804 122.636 71.6533 122.574 71.6533 122.5C71.6533 122.427 79.9804 122.364 90.2486 122.364C100.517 122.364 108.844 122.421 108.844 122.5Z" fill="#1F7A93"/>
<path d="M90.9923 125.615C90.9923 125.689 86.7027 125.752 81.4266 125.752C76.1504 125.752 71.8662 125.689 71.8662 125.615C71.8662 125.542 76.1558 125.479 81.4266 125.479C86.6974 125.479 90.9923 125.542 90.9923 125.615Z" fill="#1F7A93"/>
<path d="M32.6011 210.502V205.783L23.5233 205.704L23.4482 212.642L23.9844 212.678C26.4885 212.83 36.7244 213.276 38.4027 212.794C40.3009 212.248 32.6011 210.502 32.6011 210.502Z" fill="#80D8E5"/>
<path d="M32.6011 210.502V205.783L23.5233 205.704L23.4482 212.642L23.9844 212.678C26.4885 212.83 36.7244 213.276 38.4027 212.794C40.3009 212.248 32.6011 210.502 32.6011 210.502Z" fill="#FFB84D"/>
<path d="M32.6011 210.502V205.783L23.5233 205.704L23.4482 212.642L23.9844 212.678C26.4885 212.83 36.7244 213.276 38.4027 212.794C40.3009 212.248 32.6011 210.502 32.6011 210.502Z" fill="#FF6E61"/>
<path d="M38.6446 212.358C38.6446 212.442 35.2504 212.51 31.0627 212.51C26.8751 212.51 23.4756 212.442 23.4756 212.358C23.4756 212.274 26.8751 212.206 31.0627 212.206C35.2504 212.206 38.6446 212.274 38.6446 212.358Z" fill="#1F7A93"/>
<path d="M32.7623 211.473C32.6872 211.431 32.7623 211.174 32.9446 210.948C33.1269 210.723 33.3789 210.576 33.4325 210.634C33.4861 210.691 33.3682 210.906 33.1912 211.158C33.0143 211.41 32.8373 211.515 32.7623 211.473Z" fill="#1F7A93"/>
<path d="M33.3417 211.782C33.2613 211.751 33.3042 211.467 33.4811 211.174C33.6581 210.88 33.894 210.702 33.9583 210.754C34.0227 210.807 33.9154 211.053 33.7492 211.326C33.583 211.598 33.4221 211.813 33.3417 211.782Z" fill="#1F7A93"/>
<path d="M26.206 212.327C26.1685 212.353 26.0291 212.227 25.8307 212.018C25.5892 211.744 25.3217 211.492 25.0318 211.268C24.7426 211.06 24.4056 210.925 24.0505 210.874C23.7771 210.838 23.6001 210.874 23.584 210.832C23.568 210.791 23.7395 210.68 24.0559 210.659C24.4728 210.648 24.8813 210.775 25.2141 211.021C25.5313 211.259 25.8004 211.552 26.0076 211.886C26.1739 212.133 26.2489 212.301 26.206 212.327Z" fill="#1F7A93"/>
<path d="M32.7895 210.581C32.8324 210.649 32.6715 210.817 32.4142 210.906C32.1568 210.995 31.9262 210.964 31.9155 210.88C31.9048 210.796 32.0817 210.701 32.3123 210.623C32.5429 210.544 32.7412 210.507 32.7895 210.581Z" fill="#1F7A93"/>
<path d="M32.6408 210.119C32.6408 210.203 32.4048 210.277 32.1046 210.282C31.8043 210.287 31.5684 210.219 31.5684 210.135C31.5684 210.051 31.815 209.983 32.1046 209.978C32.3941 209.973 32.6408 210.036 32.6408 210.119Z" fill="#80D8E5"/>
<path d="M32.6408 210.119C32.6408 210.203 32.4048 210.277 32.1046 210.282C31.8043 210.287 31.5684 210.219 31.5684 210.135C31.5684 210.051 31.815 209.983 32.1046 209.978C32.3941 209.973 32.6408 210.036 32.6408 210.119Z" fill="#FFB84D"/>
<path d="M32.6408 210.119C32.6408 210.203 32.4048 210.277 32.1046 210.282C31.8043 210.287 31.5684 210.219 31.5684 210.135C31.5684 210.051 31.815 209.983 32.1046 209.978C32.3941 209.973 32.6408 210.036 32.6408 210.119Z" fill="#FF6E61"/>
<path d="M38.6446 212.358C38.6446 212.442 35.2504 212.51 31.0627 212.51C26.8751 212.51 23.4756 212.442 23.4756 212.358C23.4756 212.274 26.8751 212.206 31.0627 212.206C35.2504 212.206 38.6446 212.274 38.6446 212.358Z" fill="#1F7A93"/>
<path d="M32.7623 211.473C32.6872 211.431 32.7623 211.174 32.9446 210.948C33.1269 210.723 33.3789 210.576 33.4325 210.634C33.4861 210.691 33.3682 210.906 33.1912 211.158C33.0143 211.41 32.8373 211.515 32.7623 211.473Z" fill="#1F7A93"/>
<path d="M33.3417 211.782C33.2613 211.751 33.3042 211.467 33.4811 211.174C33.6581 210.88 33.894 210.702 33.9583 210.754C34.0227 210.807 33.9154 211.053 33.7492 211.326C33.583 211.598 33.4221 211.813 33.3417 211.782Z" fill="#1F7A93"/>
<path d="M26.206 212.327C26.1685 212.353 26.0291 212.227 25.8307 212.018C25.5892 211.744 25.3217 211.492 25.0318 211.268C24.7426 211.06 24.4056 210.925 24.0505 210.874C23.7771 210.838 23.6001 210.874 23.584 210.832C23.568 210.791 23.7395 210.68 24.0559 210.659C24.4728 210.648 24.8813 210.775 25.2141 211.021C25.5313 211.259 25.8004 211.552 26.0076 211.886C26.1739 212.133 26.2489 212.301 26.206 212.327Z" fill="#1F7A93"/>
<path d="M32.7895 210.581C32.8324 210.649 32.6715 210.817 32.4142 210.906C32.1568 210.995 31.9262 210.964 31.9155 210.88C31.9048 210.796 32.0817 210.701 32.3123 210.623C32.5429 210.544 32.7412 210.507 32.7895 210.581Z" fill="#1F7A93"/>
<path d="M32.6408 210.119C32.6408 210.203 32.4048 210.277 32.1046 210.282C31.8043 210.287 31.5684 210.219 31.5684 210.135C31.5684 210.051 31.815 209.983 32.1046 209.978C32.3941 209.973 32.6408 210.036 32.6408 210.119Z" fill="#1F7A93"/>
<path d="M42.1788 208.824L43.6105 204.298L34.9563 201.613L32.8115 208.215L33.3477 208.415C35.6909 209.285 45.337 212.673 47.085 212.699C49.0046 212.72 42.1788 208.824 42.1788 208.824Z" fill="#80D8E5"/>
<path d="M42.1788 208.824L43.6105 204.298L34.9563 201.613L32.8115 208.215L33.3477 208.415C35.6909 209.285 45.337 212.673 47.085 212.699C49.0046 212.72 42.1788 208.824 42.1788 208.824Z" fill="#FFB84D"/>
<path d="M42.1788 208.824L43.6105 204.298L34.9563 201.613L32.8115 208.215L33.3477 208.415C35.6909 209.285 45.337 212.673 47.085 212.699C49.0046 212.72 42.1788 208.824 42.1788 208.824Z" fill="#FF6E61"/>
<path d="M47.3905 212.343C47.3905 212.427 44.0983 211.509 40.0983 210.293C36.0982 209.076 32.8757 208.033 32.9025 207.954C32.9293 207.875 36.1894 208.793 40.1948 210.004C44.2001 211.216 47.4173 212.264 47.3905 212.343Z" fill="#1F7A93"/>
<path d="M42.0408 209.794C41.9818 209.731 42.1212 209.511 42.3786 209.328C42.636 209.144 42.9148 209.097 42.9416 209.17C42.9684 209.244 42.7968 209.412 42.5609 209.579C42.325 209.747 42.0998 209.852 42.0408 209.794Z" fill="#1F7A93"/>
<path d="M42.4953 210.261C42.431 210.208 42.5543 209.946 42.817 209.736C43.0798 209.527 43.3532 209.406 43.4015 209.474C43.4497 209.542 43.2674 209.747 43.0261 209.962C42.7849 210.177 42.565 210.292 42.4953 210.261Z" fill="#1F7A93"/>
<path d="M35.5234 208.719C35.4805 208.719 35.3893 208.578 35.266 208.316C35.1187 207.985 34.9391 207.669 34.7298 207.372C34.5169 207.09 34.2372 206.863 33.9148 206.711C33.6628 206.601 33.4805 206.58 33.4805 206.538C33.4805 206.496 33.6735 206.433 33.9845 206.506C34.3844 206.618 34.7341 206.858 34.9765 207.188C35.206 207.505 35.375 207.861 35.4751 208.237C35.5448 208.52 35.5609 208.719 35.5234 208.719Z" fill="#455A64"/>
<path d="M42.3347 208.949C42.3347 209.028 42.1524 209.143 41.8789 209.154C41.6055 209.164 41.391 209.065 41.4071 208.981C41.4232 208.897 41.6269 208.86 41.8682 208.85C42.1095 208.839 42.2918 208.866 42.3347 208.949Z" fill="#1F7A93"/>
<path d="M42.3335 208.473C42.3335 208.552 42.0654 208.552 41.7705 208.473C41.4756 208.394 41.2665 208.253 41.2933 208.174C41.3201 208.096 41.5775 208.101 41.8563 208.174C42.1352 208.248 42.355 208.389 42.3335 208.473Z" fill="#1F7A93"/>
<path d="M48.3396 116.758L36.4253 115.862L18.377 114.43L20.393 209.244L36.066 209.045C36.066 209.045 36.066 207.996 36.0285 206.14L45.2189 208.599C45.2189 208.599 54.1734 179.013 57.2243 166.874C59.7712 156.758 48.3396 116.758 48.3396 116.758ZM35.8569 191.415C35.621 169.527 35.3475 132.306 35.6746 127.755C35.6746 127.755 44.4039 160.523 44.4843 163.109C44.5379 164.671 39.6746 179.795 35.8569 191.415Z" fill="#455A64"/>
<path d="M36.1525 205.452C36.1525 205.536 32.6458 205.604 28.324 205.604C24.0023 205.604 20.4902 205.536 20.4902 205.452C20.4902 205.368 23.997 205.3 28.324 205.3C32.6511 205.3 36.1525 205.368 36.1525 205.452Z" fill="#455A64"/>
<path d="M36.0127 202.044C36.5029 202.158 36.9834 202.308 37.4497 202.495L41.0369 203.717L44.624 204.944C45.1313 205.086 45.6233 205.275 46.0932 205.51C45.5694 205.439 45.054 205.318 44.5543 205.148C43.6213 204.881 42.3398 204.482 40.935 204.005C39.5301 203.528 38.254 203.056 37.3746 202.694C36.8921 202.54 36.4337 202.321 36.0127 202.044Z" fill="#455A64"/>
<path d="M50.3717 162.815C49.4024 163.036 48.4124 163.159 47.4173 163.182C46.4304 163.305 45.4331 163.328 44.4414 163.25C45.4102 163.025 46.4004 162.901 47.3958 162.878C48.3828 162.755 49.3803 162.734 50.3717 162.815Z" fill="#455A64"/>
<path d="M49.3474 164.535C48.5766 164.471 47.8177 164.309 47.09 164.052C46.3327 163.89 45.6007 163.631 44.9131 163.281C45.6861 163.339 46.4474 163.499 47.1758 163.758C48.3984 164.105 49.3742 164.451 49.3474 164.535Z" fill="#455A64"/>
<path d="M37.1173 115.982C37.1893 116.581 37.2162 117.184 37.1977 117.786C37.1977 118.903 37.1977 120.445 37.1977 122.149C37.1977 122.993 37.1977 123.801 37.1655 124.546C37.1852 125.216 37.0572 125.883 36.7902 126.502C36.6 126.923 36.296 127.285 35.9108 127.55C35.7795 127.657 35.6227 127.729 35.4551 127.76C35.4551 127.76 35.6052 127.666 35.8465 127.466C36.1851 127.183 36.4482 126.823 36.6133 126.418C36.8368 125.817 36.937 125.179 36.9082 124.54C36.9082 123.79 36.9082 122.967 36.9082 122.139C36.9082 120.434 36.9511 118.893 36.9832 117.781C36.9815 117.179 37.0263 116.578 37.1173 115.982Z" fill="#455A64"/>
<path d="M28.1463 115.447C28.1521 115.524 28.1521 115.601 28.1463 115.678C28.1463 115.846 28.1463 116.071 28.1463 116.36C28.1463 116.968 28.0981 117.849 28.0606 118.982C27.9855 121.263 27.8782 124.54 27.7442 128.583C27.4922 136.69 27.2348 147.896 27.1705 160.266C27.1061 172.636 27.2509 183.864 27.4171 191.965C27.5083 196.008 27.578 199.307 27.6316 201.567C27.6316 202.694 27.6745 203.57 27.6906 204.189C27.6906 204.477 27.6906 204.713 27.6906 204.87C27.6964 204.947 27.6964 205.024 27.6906 205.101C27.6848 205.024 27.6848 204.947 27.6906 204.87C27.6906 204.708 27.6906 204.482 27.653 204.194C27.653 203.58 27.5941 202.705 27.5458 201.572C27.4547 199.307 27.3474 196.024 27.2402 191.97C27.0203 183.858 26.8488 172.652 26.9131 160.266C26.9774 147.88 27.267 136.669 27.5673 128.578C27.7174 124.524 27.8568 121.236 27.9748 118.976C28.0337 117.854 28.082 116.978 28.1142 116.354C28.1142 116.066 28.1463 115.83 28.1571 115.673C28.148 115.598 28.1444 115.523 28.1463 115.447Z" fill="#455A64"/>
<path d="M44.4357 117.833C44.4682 117.902 44.4951 117.974 44.5161 118.048C44.5644 118.205 44.6341 118.415 44.7199 118.688C44.8914 119.249 45.1649 120.077 45.4652 121.158C46.0818 123.313 46.9129 126.443 47.8405 130.34C48.7681 134.236 49.7976 138.882 50.87 144.063C51.9424 149.244 53.0738 154.949 54.0872 160.969C54.2159 161.724 54.3338 162.474 54.4357 163.224C54.4357 163.423 54.4733 163.627 54.4733 163.821L54.3767 164.377C54.307 164.75 54.2534 165.122 54.1676 165.484C53.862 166.941 53.5188 168.368 53.1489 169.763C52.4196 172.552 51.6475 175.221 50.8861 177.76C49.374 182.836 47.9156 187.377 46.677 191.189C45.4384 195.001 44.4035 198.069 43.6743 200.187L42.8271 202.626L42.5965 203.26C42.5765 203.333 42.5477 203.404 42.5107 203.47C42.5247 203.395 42.5445 203.322 42.5697 203.25C42.6233 203.092 42.6877 202.883 42.7735 202.61L43.5724 200.156L46.4893 191.131C47.7011 187.314 49.1381 182.767 50.6395 177.691C51.3901 175.153 52.1569 172.479 52.8861 169.694C53.2507 168.305 53.5939 166.884 53.8995 165.431C53.9853 165.069 54.0336 164.702 54.0979 164.335L54.1944 163.785C54.1944 163.606 54.1676 163.433 54.1569 163.26C54.055 162.521 53.9424 161.771 53.8137 161.021C52.795 155.007 51.669 149.301 50.5966 144.12C49.5242 138.939 48.5537 134.257 47.6529 130.381C46.752 126.506 45.9424 123.344 45.3579 121.184C45.0791 120.104 44.8217 119.27 44.6662 118.703L44.4893 118.058C44.463 117.985 44.445 117.91 44.4357 117.833Z" fill="#455A64"/>
<path d="M35.8087 189.49C35.8519 189.734 35.8681 189.982 35.857 190.229C35.857 190.754 35.857 191.44 35.8838 192.253C35.8838 194.01 35.9481 196.343 35.9857 198.918C36.0232 201.493 36.1251 203.826 36.1733 205.583C36.1733 206.396 36.2162 207.078 36.2323 207.607C36.2565 207.853 36.2565 208.101 36.2323 208.347C36.1732 208.106 36.1408 207.86 36.1358 207.612C36.0929 207.135 36.0446 206.448 35.991 205.594C35.8838 203.889 35.7819 201.53 35.7229 198.923C35.664 196.317 35.6747 193.958 35.7229 192.253C35.7229 191.399 35.7605 190.68 35.7819 190.229C35.7711 189.982 35.78 189.735 35.8087 189.49Z" fill="#455A64"/>
<path d="M48.3396 116.758L36.4253 115.862L18.377 114.43L20.393 209.244L36.066 209.045C36.066 209.045 36.066 207.996 36.0285 206.14L45.2189 208.599C45.2189 208.599 54.1734 179.013 57.2243 166.874C59.7712 156.758 48.3396 116.758 48.3396 116.758ZM35.8569 191.415C35.621 169.527 35.3475 132.306 35.6746 127.755C35.6746 127.755 44.4039 160.523 44.4843 163.109C44.5379 164.671 39.6746 179.795 35.8569 191.415Z" fill="#1F7A93"/>
<path d="M36.1525 205.452C36.1525 205.536 32.6458 205.604 28.324 205.604C24.0023 205.604 20.4902 205.536 20.4902 205.452C20.4902 205.368 23.997 205.3 28.324 205.3C32.6511 205.3 36.1525 205.368 36.1525 205.452Z" fill="#455A64"/>
<path d="M36.0127 202.044C36.5029 202.158 36.9834 202.308 37.4497 202.495L41.0369 203.717L44.624 204.944C45.1313 205.086 45.6233 205.275 46.0932 205.51C45.5694 205.439 45.054 205.318 44.5543 205.148C43.6213 204.881 42.3398 204.482 40.935 204.005C39.5301 203.528 38.254 203.056 37.3746 202.694C36.8921 202.54 36.4337 202.321 36.0127 202.044Z" fill="#455A64"/>
<path d="M50.3717 162.815C49.4024 163.036 48.4124 163.159 47.4173 163.182C46.4304 163.305 45.4331 163.328 44.4414 163.25C45.4102 163.025 46.4004 162.901 47.3958 162.878C48.3828 162.755 49.3803 162.734 50.3717 162.815Z" fill="#455A64"/>
<path d="M49.3474 164.535C48.5766 164.471 47.8177 164.309 47.09 164.052C46.3327 163.89 45.6007 163.631 44.9131 163.281C45.6861 163.339 46.4474 163.499 47.1758 163.758C48.3984 164.105 49.3742 164.451 49.3474 164.535Z" fill="#455A64"/>
<path d="M37.1173 115.982C37.1893 116.581 37.2162 117.184 37.1977 117.786C37.1977 118.903 37.1977 120.445 37.1977 122.149C37.1977 122.993 37.1977 123.801 37.1655 124.546C37.1852 125.216 37.0572 125.883 36.7902 126.502C36.6 126.923 36.296 127.285 35.9108 127.55C35.7795 127.657 35.6227 127.729 35.4551 127.76C35.4551 127.76 35.6052 127.666 35.8465 127.466C36.1851 127.183 36.4482 126.823 36.6133 126.418C36.8368 125.817 36.937 125.179 36.9082 124.54C36.9082 123.79 36.9082 122.967 36.9082 122.139C36.9082 120.434 36.9511 118.893 36.9832 117.781C36.9815 117.179 37.0263 116.578 37.1173 115.982Z" fill="#455A64"/>
<path d="M28.1463 115.447C28.1521 115.524 28.1521 115.601 28.1463 115.678C28.1463 115.846 28.1463 116.071 28.1463 116.36C28.1463 116.968 28.0981 117.849 28.0606 118.982C27.9855 121.263 27.8782 124.54 27.7442 128.583C27.4922 136.69 27.2348 147.896 27.1705 160.266C27.1061 172.636 27.2509 183.864 27.4171 191.965C27.5083 196.008 27.578 199.307 27.6316 201.567C27.6316 202.694 27.6745 203.57 27.6906 204.189C27.6906 204.477 27.6906 204.713 27.6906 204.87C27.6964 204.947 27.6964 205.024 27.6906 205.101C27.6848 205.024 27.6848 204.947 27.6906 204.87C27.6906 204.708 27.6906 204.482 27.653 204.194C27.653 203.58 27.5941 202.705 27.5458 201.572C27.4547 199.307 27.3474 196.024 27.2402 191.97C27.0203 183.858 26.8488 172.652 26.9131 160.266C26.9774 147.88 27.267 136.669 27.5673 128.578C27.7174 124.524 27.8568 121.236 27.9748 118.976C28.0337 117.854 28.082 116.978 28.1142 116.354C28.1142 116.066 28.1463 115.83 28.1571 115.673C28.148 115.598 28.1444 115.523 28.1463 115.447Z" fill="#455A64"/>
<path d="M44.4357 117.833C44.4682 117.902 44.4951 117.974 44.5161 118.048C44.5644 118.205 44.6341 118.415 44.7199 118.688C44.8914 119.249 45.1649 120.077 45.4652 121.158C46.0818 123.313 46.9129 126.443 47.8405 130.34C48.7681 134.236 49.7976 138.882 50.87 144.063C51.9424 149.244 53.0738 154.949 54.0872 160.969C54.2159 161.724 54.3338 162.474 54.4357 163.224C54.4357 163.423 54.4733 163.627 54.4733 163.821L54.3767 164.377C54.307 164.75 54.2534 165.122 54.1676 165.484C53.862 166.941 53.5188 168.368 53.1489 169.763C52.4196 172.552 51.6475 175.221 50.8861 177.76C49.374 182.836 47.9156 187.377 46.677 191.189C45.4384 195.001 44.4035 198.069 43.6743 200.187L42.8271 202.626L42.5965 203.26C42.5765 203.333 42.5477 203.404 42.5107 203.47C42.5247 203.395 42.5445 203.322 42.5697 203.25C42.6233 203.092 42.6877 202.883 42.7735 202.61L43.5724 200.156L46.4893 191.131C47.7011 187.314 49.1381 182.767 50.6395 177.691C51.3901 175.153 52.1569 172.479 52.8861 169.694C53.2507 168.305 53.5939 166.884 53.8995 165.431C53.9853 165.069 54.0336 164.702 54.0979 164.335L54.1944 163.785C54.1944 163.606 54.1676 163.433 54.1569 163.26C54.055 162.521 53.9424 161.771 53.8137 161.021C52.795 155.007 51.669 149.301 50.5966 144.12C49.5242 138.939 48.5537 134.257 47.6529 130.381C46.752 126.506 45.9424 123.344 45.3579 121.184C45.0791 120.104 44.8217 119.27 44.6662 118.703L44.4893 118.058C44.463 117.985 44.445 117.91 44.4357 117.833Z" fill="#455A64"/>
<path d="M35.8087 189.49C35.8519 189.734 35.8681 189.982 35.857 190.229C35.857 190.754 35.857 191.44 35.8838 192.253C35.8838 194.01 35.9481 196.343 35.9857 198.918C36.0232 201.493 36.1251 203.826 36.1733 205.583C36.1733 206.396 36.2162 207.078 36.2323 207.607C36.2565 207.853 36.2565 208.101 36.2323 208.347C36.1732 208.106 36.1408 207.86 36.1358 207.612C36.0929 207.135 36.0446 206.448 35.991 205.594C35.8838 203.889 35.7819 201.53 35.7229 198.923C35.664 196.317 35.6747 193.958 35.7229 192.253C35.7229 191.399 35.7605 190.68 35.7819 190.229C35.7711 189.982 35.78 189.735 35.8087 189.49Z" fill="#455A64"/>
<path d="M27.8141 71.252L36.9295 71.9127C37.0528 70.8639 37.2297 66.8734 37.2297 66.8734C37.2297 66.8734 41.0314 66.5325 41.3102 62.8514C41.589 59.1702 41.471 50.67 41.471 50.67C39.387 49.6399 37.0595 49.173 34.7291 49.3178C32.3988 49.4625 30.1503 50.2136 28.2163 51.4932L27.6318 51.8813L27.8141 71.252Z" fill="#E5BAAB"/>
<path d="M40.1728 56.9471C40.1006 56.8727 40.0523 56.7793 40.0338 56.6783C40.0153 56.5773 40.0275 56.4733 40.0689 56.379C40.1102 56.2848 40.179 56.2045 40.2666 56.148C40.3541 56.0916 40.4567 56.0615 40.5616 56.0615C40.6665 56.0615 40.769 56.0916 40.8566 56.148C40.9442 56.2045 41.0129 56.2848 41.0543 56.379C41.0957 56.4733 41.1079 56.5773 41.0894 56.6783C41.0709 56.7793 41.0226 56.8727 40.9503 56.9471C40.9002 56.9986 40.8399 57.0397 40.7731 57.0678C40.7063 57.0958 40.6343 57.1103 40.5616 57.1103C40.4889 57.1103 40.4169 57.0958 40.3501 57.0678C40.2832 57.0397 40.2229 56.9986 40.1728 56.9471Z" fill="#1F7A93"/>
<path d="M41.139 56.1603C41.0747 56.2233 40.7261 55.9244 40.206 55.8877C39.6859 55.851 39.2945 56.0922 39.2409 56.024C39.1873 55.9558 39.2784 55.8824 39.4554 55.7723C39.6835 55.6258 39.9557 55.5592 40.2275 55.5835C40.5013 55.5995 40.7618 55.7047 40.9674 55.8824C41.1229 56.0135 41.1712 56.1236 41.139 56.1603Z" fill="#1F7A93"/>
<path d="M35.1318 56.2445C35.2167 56.3051 35.2815 56.3889 35.3181 56.4853C35.3547 56.5817 35.3616 56.6865 35.3378 56.7866C35.314 56.8868 35.2606 56.9779 35.1843 57.0486C35.1079 57.1193 35.012 57.1665 34.9085 57.1844C34.8049 57.2022 34.6983 57.1899 34.6018 57.1489C34.5054 57.1079 34.4234 57.0401 34.3661 56.9539C34.3087 56.8677 34.2785 56.767 34.2793 56.6641C34.2801 56.5613 34.3117 56.4609 34.3704 56.3756C34.4106 56.317 34.4625 56.2669 34.5231 56.2284C34.5836 56.1899 34.6514 56.1637 34.7225 56.1515C34.7936 56.1393 34.8665 56.1412 34.9368 56.1572C35.0072 56.1731 35.0735 56.2028 35.1318 56.2445Z" fill="#1F7A93"/>
<path d="M35.476 56.2707C35.4116 56.3283 35.0631 56.0294 34.543 55.9927C34.0229 55.956 33.6315 56.2025 33.5778 56.1343C33.5242 56.0661 33.6154 55.9875 33.7869 55.8774C34.0194 55.7362 34.2914 55.6701 34.5644 55.6886C34.8375 55.708 35.0969 55.8128 35.3044 55.9875C35.4599 56.1238 35.5081 56.2444 35.476 56.2707Z" fill="#1F7A93"/>
<path d="M37.2944 60.5806C37.5687 60.4976 37.8545 60.4569 38.1416 60.46C38.281 60.46 38.3936 60.4338 38.4097 60.3603C38.4232 60.2249 38.3972 60.0886 38.3346 59.9671L37.9914 58.9183C37.6613 58.0216 37.4189 57.0963 37.2676 56.1548C37.6831 57.0157 38.0152 57.9129 38.2595 58.8344L38.5813 59.8831C38.6587 60.0567 38.6738 60.2507 38.6242 60.4338C38.6016 60.4828 38.5675 60.526 38.5246 60.5597C38.4818 60.5935 38.4314 60.6168 38.3775 60.6278C38.301 60.6375 38.2235 60.6375 38.1469 60.6278C37.862 60.6567 37.5742 60.6408 37.2944 60.5806Z" fill="#1F7A93"/>
<path d="M35.5731 61.0373C35.0369 60.6912 37.0101 61.9025 38.0717 61.9182C37.8789 62.1737 37.603 62.3576 37.2892 62.4395C36.9755 62.5215 36.6426 62.4967 36.3452 62.3692C35.2406 61.892 35.5731 61.0373 35.5731 61.0373Z" fill="white"/>
<path d="M37.2066 66.8211C35.4656 66.7492 33.7857 66.1724 32.3809 65.1641C32.3809 65.1641 33.3728 67.8856 37.153 67.786L37.2066 66.8211Z" fill="#D78776"/>
<path d="M28.3508 55.1484C28.265 55.1169 25.5518 54.7708 25.8092 57.9066C26.0666 61.0424 29.2194 59.7472 29.214 59.6581C29.2087 59.5689 28.3508 55.1484 28.3508 55.1484Z" fill="#E5BAAB"/>
<path d="M28.1141 58.6355C28.1141 58.6355 28.0659 58.6775 27.9747 58.7299C27.8456 58.7946 27.6963 58.8096 27.5565 58.7718C27.3394 58.6586 27.1566 58.4913 27.0267 58.2869C26.8968 58.0825 26.8243 57.8482 26.8165 57.6077C26.787 57.34 26.82 57.0693 26.913 56.8159C26.9345 56.7156 26.9803 56.6218 27.0465 56.5424C27.1128 56.463 27.1976 56.4003 27.2937 56.3597C27.3571 56.3397 27.4254 56.3413 27.4877 56.3641C27.55 56.387 27.6026 56.4298 27.6369 56.4855C27.6852 56.5694 27.6744 56.6324 27.6905 56.6376C27.7066 56.6428 27.7549 56.5799 27.6905 56.4541C27.6681 56.3771 27.6188 56.3103 27.5511 56.2653C27.456 56.21 27.3432 56.1913 27.2348 56.2129C27.107 56.2482 26.9907 56.315 26.8969 56.4068C26.803 56.4986 26.7347 56.6123 26.6986 56.7372C26.5829 57.0181 26.5405 57.3226 26.5752 57.6234C26.5812 57.9036 26.672 58.1757 26.8362 58.4053C27.0003 58.635 27.2305 58.8118 27.4975 58.9134C27.5854 58.9315 27.6763 58.93 27.7635 58.9091C27.8507 58.8882 27.9321 58.8485 28.0015 58.7928C28.1141 58.7142 28.1302 58.6407 28.1141 58.6355Z" fill="#D78776"/>
<path d="M41.7118 49.3435C41.9288 49.3378 42.1416 49.2834 42.3337 49.1844C42.5257 49.0855 42.692 48.9446 42.8195 48.7728C42.947 48.601 43.0325 48.4028 43.0691 48.1935C43.1058 47.9843 43.0928 47.7696 43.0311 47.566C42.9694 47.3625 42.8606 47.1755 42.7132 47.0196C42.5658 46.8638 42.3837 46.7431 42.181 46.6671C41.9783 46.591 41.7605 46.5616 41.5443 46.581C41.3281 46.6005 41.1194 46.6683 40.9343 46.7792C41.3827 46.4152 41.748 45.9632 42.0067 45.4525C42.1318 45.1949 42.1732 44.9061 42.1252 44.6248C42.0773 44.3435 41.9423 44.0834 41.7386 43.8794C41.5026 43.7267 41.2297 43.6376 40.9473 43.621C40.6648 43.6044 40.3829 43.661 40.13 43.785C39.3311 44.1206 38.6984 44.7813 37.878 45.0592C37.0576 45.3372 36.1407 45.2008 35.2614 45.2375C34.2746 45.2548 33.319 45.5779 32.5321 46.1604C31.8616 46.6756 31.4277 47.4301 31.3257 48.258C31.2203 48.1165 31.1038 47.9832 30.9771 47.8595C30.5601 47.3727 29.9975 47.0261 29.3686 46.8684C29.331 46.9365 30.0656 47.3351 30.768 48.0482C30.9593 48.2272 31.1384 48.4181 31.3042 48.6198C30.0817 48.473 28.7359 48.4625 27.7707 49.2071C27.3797 49.548 27.0707 49.9692 26.8658 50.4407C26.6609 50.9121 26.5653 51.422 26.5857 51.9339C26.5857 52.9512 27.0147 53.9213 27.3203 54.8967C27.3942 55.173 27.5216 55.4329 27.6956 55.6623L28.1568 58.2842L29.8351 58.2527L29.7278 52.7519C29.7278 52.7519 29.5562 50.4342 31.5938 50.6544C33.6313 50.8747 36.4195 53.1033 40.3767 52.537C41.026 52.5015 41.6585 52.3222 42.2265 52.0126C42.5015 51.8422 42.7249 51.6033 42.8739 51.3202C43.0228 51.0372 43.0918 50.7205 43.0737 50.4027C43.0347 50.0865 42.8699 49.798 42.615 49.5998C42.3601 49.4015 42.0356 49.3095 41.7118 49.3435Z" fill="#1F7A93"/>
<path d="M75.8133 76.491L76.06 74.8235C76.3121 73.9113 76.4701 72.9767 76.5318 72.0337C76.5722 71.565 76.5287 71.093 76.4031 70.6389C76.2767 70.0673 76.0672 69.5163 75.7812 69.0028C75.4702 68.5571 75.8777 67.954 76.3174 68.1376C76.757 68.3211 77.6739 69.5062 77.9688 71.2157C78.2637 72.9252 79.6418 70.555 80.1565 69.7002C80.6713 68.8455 82.4032 66.2708 82.8 66.2183C83.3791 66.1397 83.5721 66.7427 83.0305 67.5765C82.489 68.4102 81.0627 71.0584 81.5399 71.2996C81.8972 71.2438 82.2625 71.2616 82.6123 71.352C82.6687 71.3682 82.7186 71.4011 82.7551 71.4462C82.7916 71.4913 82.8129 71.5463 82.816 71.6037C82.814 71.8683 82.8428 72.1322 82.9018 72.3903C82.9018 72.3903 83.6043 72.233 83.749 72.5319C83.8469 72.8389 83.8922 73.1596 83.8831 73.481C83.8831 73.481 84.4193 73.3027 84.6766 73.481C85.2128 73.9058 84.5265 74.6347 84.5265 74.6347C82.9477 76.4765 81.2517 78.2191 79.4487 79.8523L75.7544 76.3704" fill="#E5BAAB"/>
<path d="M82.6877 72.5059C82.53 72.8301 82.318 73.1261 82.0603 73.3817C81.8458 73.6334 81.5777 73.906 81.2614 74.2364C81.0964 74.4081 80.9171 74.5659 80.7252 74.7084C80.607 74.8002 80.4644 74.8569 80.3142 74.8718C80.164 74.8867 80.0126 74.8591 79.878 74.7923C79.8046 74.7502 79.7425 74.6916 79.6968 74.6214C79.6511 74.5512 79.6232 74.4713 79.6153 74.3885C79.6044 74.2407 79.638 74.0931 79.7118 73.9637C79.8439 73.769 79.9871 73.5817 80.1407 73.4026C80.4142 73.067 80.6394 72.7524 80.8271 72.4797C81.0071 72.1714 81.2134 71.8785 81.4437 71.604C81.3543 71.9528 81.2018 72.2832 80.9933 72.5794C80.7985 72.9165 80.5837 73.2422 80.3499 73.5547C80.2075 73.722 80.075 73.8971 79.9531 74.0791C79.8566 74.2521 79.8619 74.4671 80.0174 74.5458C80.105 74.5819 80.2007 74.5946 80.2949 74.5826C80.3892 74.5707 80.4784 74.5344 80.5536 74.4776C80.7316 74.3459 80.9 74.2022 81.0576 74.0476C81.3794 73.754 81.6582 73.476 81.8887 73.2401C82.1289 72.9695 82.3966 72.7235 82.6877 72.5059Z" fill="#D78776"/>
<path d="M83.627 73.5803C83.4693 73.8602 83.2665 74.1134 83.0265 74.3302C82.7843 74.584 82.5207 74.8173 82.2383 75.0276C82.0688 75.153 81.8895 75.2652 81.7021 75.3632C81.5907 75.4178 81.4713 75.455 81.3482 75.4733C81.2736 75.4852 81.1974 75.4815 81.1244 75.4625C81.0514 75.4436 80.9833 75.4097 80.9246 75.3632C80.8256 75.2631 80.763 75.1339 80.7465 74.9955C80.7301 74.8571 80.7606 74.7173 80.8335 74.5976C80.942 74.4108 81.0696 74.2351 81.2142 74.0732C81.4501 73.8058 81.6699 73.5489 81.8898 73.2919C82.2812 72.8514 82.5386 72.5945 82.5707 72.6155C82.4292 72.9034 82.2489 73.1714 82.0345 73.4125L81.434 74.2463C81.3073 74.3947 81.1926 74.5525 81.0908 74.7182C81.0495 74.7851 81.0303 74.8629 81.0361 74.9409C81.0419 75.0188 81.0722 75.0931 81.123 75.1535C81.2195 75.2426 81.4233 75.2059 81.6002 75.122C81.7762 75.0329 81.9464 74.9331 82.1096 74.8231C82.3882 74.6287 82.6549 74.4186 82.9085 74.1938C83.1216 73.9615 83.3629 73.7555 83.627 73.5803Z" fill="#D78776"/>
<path d="M83.8471 75.0801C83.8739 75.0801 83.8471 75.3161 83.5951 75.6045C83.5187 75.6938 83.4248 75.7671 83.3188 75.8203C83.2129 75.8734 83.0972 75.9052 82.9785 75.9139C82.8249 75.9151 82.6755 75.8652 82.5549 75.7723C82.4884 75.7178 82.4351 75.6496 82.399 75.5725C82.3628 75.4954 82.3446 75.4114 82.3458 75.3266C82.3882 75.0593 82.4989 74.8068 82.6675 74.5924C82.7806 74.4194 82.9041 74.253 83.0375 74.0943C83.268 73.8216 83.4342 73.68 83.4664 73.7062C83.4986 73.7324 83.3806 73.9107 83.1983 74.2306C83.0911 74.4141 82.9838 74.5819 82.8873 74.755C82.7581 74.94 82.6687 75.1487 82.6246 75.3685C82.6287 75.4575 82.6678 75.5416 82.7337 75.6031C82.7997 75.6647 82.8873 75.699 82.9785 75.6989C83.1564 75.6933 83.3262 75.6243 83.4557 75.5049C83.697 75.2531 83.8096 75.0591 83.8471 75.0801Z" fill="#D78776"/>
<path d="M75.4109 74.3251C75.4109 74.3251 61.3465 87.8595 59.3733 87.9591C57.1213 88.064 50.1936 78.4573 50.1936 78.4573C45.7593 71.7662 39.9094 70.6859 37.7753 70.5181V69.6896L27.2927 68.8506C27.2927 68.8506 27.2927 69.7315 27.2927 70.5024H22.6654C22.6654 70.5024 14.3543 70.1301 13.1104 81.0477L19.0836 85.6675L21.534 94.5821C22.3865 97.6864 19.3409 102.631 17.8879 110.639C17.6638 111.974 17.8916 113.343 18.5366 114.54L48.8049 117.943L47.1963 95.311L46.7084 90.0671C49.2017 93.397 53.6789 98.1059 59.1642 98.001C68.5208 97.828 81.5182 78.5989 81.5182 78.5989L75.4109 74.3251Z" fill="#E0E0E0"/>
<path d="M34.2487 69.5425C34.3007 70.0078 34.3007 70.4773 34.2487 70.9426C34.1705 72.1075 34.0092 73.2658 33.7661 74.4088L33.7286 74.5818L33.5677 74.4979C33.2031 74.3091 32.8224 74.1099 32.4363 73.8896C30.935 73.0244 29.6535 72.1329 28.683 71.5142C28.159 71.2024 27.6542 70.8609 27.1709 70.4916C27.3314 70.5375 27.4847 70.6045 27.6267 70.6909C27.9055 70.843 28.3076 71.0632 28.7902 71.3516C29.7661 71.9284 31.0637 72.7989 32.5436 73.6536C32.9189 73.8686 33.2942 74.0732 33.6589 74.2619L33.4605 74.3511C33.7715 72.9982 33.9216 71.7868 34.0342 70.9269C34.077 70.4616 34.1486 69.9993 34.2487 69.5425Z" fill="#FAFAFA"/>
<path d="M37.8084 70.5755C37.741 71.026 37.6407 71.4711 37.5081 71.9075C37.4062 72.3217 37.299 72.8146 37.1167 73.3495C37.0218 73.6323 36.909 73.909 36.7789 74.178C36.7414 74.2745 36.6739 74.3571 36.5858 74.414C36.5248 74.4506 36.4528 74.4659 36.3817 74.4574C36.3106 74.4488 36.2446 74.4169 36.1944 74.3668C36.094 74.2219 36.0129 74.0651 35.9531 73.9001C35.4169 72.7098 34.9933 71.6295 34.6823 70.8377C34.4868 70.4229 34.3375 69.9886 34.2373 69.5425C34.4878 69.9282 34.6979 70.3375 34.8647 70.7643C35.2239 71.5351 35.7011 72.6049 36.2105 73.7952C36.26 73.9277 36.321 74.0558 36.3928 74.178C36.4196 74.178 36.3928 74.178 36.4411 74.178C36.4814 74.1461 36.5128 74.1045 36.5322 74.0574C36.6605 73.7995 36.7751 73.5352 36.8754 73.2656C37.0631 72.7412 37.1917 72.2588 37.3151 71.855C37.4217 71.4093 37.5875 70.9791 37.8084 70.5755Z" fill="#FAFAFA"/>
<path d="M35.8563 107.198C35.8307 107.076 35.8163 106.951 35.8134 106.826C35.8134 106.553 35.792 106.204 35.7491 105.777C35.7062 104.812 35.6418 103.475 35.5668 101.834C35.4381 98.4777 35.2558 93.8894 35.0627 88.8238C34.8697 83.7583 34.7464 79.1699 34.6391 75.8139C34.6016 74.1673 34.5694 72.8302 34.5426 71.8653C34.5426 71.4248 34.5426 71.0682 34.5426 70.8165C34.5288 70.691 34.5288 70.5645 34.5426 70.439C34.5673 70.5616 34.5799 70.6863 34.5802 70.8113C34.5802 71.084 34.6231 71.4405 34.6499 71.86C34.6928 72.8197 34.7571 74.1568 34.8322 75.7982C34.9609 79.1542 35.1378 83.7426 35.3362 88.8081C35.5346 93.8736 35.6472 98.462 35.7598 101.823C35.7973 103.465 35.8295 104.802 35.8563 105.767C35.8563 106.212 35.8563 106.569 35.8563 106.842C35.8689 106.96 35.8689 107.08 35.8563 107.198Z" fill="#F5F5F5"/>
<path d="M33.9482 72.8568L34.8276 75.227L35.5836 72.6838L34.4094 70.1353L33.9482 72.8568Z" fill="#80D8E5"/>
<path d="M33.9482 72.8568L34.8276 75.227L35.5836 72.6838L34.4094 70.1353L33.9482 72.8568Z" fill="#FFB84D"/>
<path d="M33.9482 72.8568L34.8276 75.227L35.5836 72.6838L34.4094 70.1353L33.9482 72.8568Z" fill="#FF6E61"/>
<path d="M34.9883 74.5195L34.4092 101.2L38.5272 109.622L40.1518 100.146L34.9883 74.5195Z" fill="#80D8E5"/>
<path d="M34.9883 74.5195L34.4092 101.2L38.5272 109.622L40.1518 100.146L34.9883 74.5195Z" fill="#FFB84D"/>
<path d="M34.9883 74.5195L34.4092 101.2L38.5272 109.622L40.1518 100.146L34.9883 74.5195Z" fill="#FF6E61"/>
<path d="M59.5255 91.2578C59.5255 91.2578 59.5255 91.3365 59.5255 91.4676L59.4934 91.6668L59.4022 91.4676C59.1947 90.9372 59.0752 90.3778 59.0483 89.8105C58.9596 89.1779 59.0371 88.5337 59.2735 87.9385C59.354 87.9385 59.2735 88.7775 59.3272 89.7948C59.3701 90.5184 59.488 91.1372 59.5255 91.4361H59.4022C59.4505 91.2945 59.5041 91.2578 59.5255 91.2578Z" fill="#FAFAFA"/>
<path d="M60.7307 91.168C60.3308 90.7576 60.0335 90.2623 59.8621 89.7207C59.6041 89.2207 59.463 88.6708 59.4492 88.1108C59.7222 88.5984 59.9449 89.1114 60.1141 89.642C60.3698 90.1299 60.5763 90.641 60.7307 91.168Z" fill="#FAFAFA"/>
<path d="M80.6403 79.8728C79.4806 79.2728 78.3661 78.5929 77.3051 77.8382C76.1935 77.1596 75.1327 76.4043 74.1309 75.5781C75.29 76.1828 76.4045 76.8662 77.466 77.6232C78.5773 78.2985 79.6381 79.0502 80.6403 79.8728Z" fill="#FAFAFA"/>
<path d="M22.1777 84.1574C22.1777 84.1574 19.9471 99.3645 21.0034 100.214C26.8373 105.012 34.9445 107.529 37.84 108.321C38.2636 108.221 38.7569 108.09 39.3252 107.912C39.8179 107.759 40.2803 107.525 40.6925 107.22C41.2189 106.859 41.6917 106.428 42.0974 105.94C42.1586 105.836 42.2516 105.752 42.3635 105.701C42.4754 105.651 42.6006 105.635 42.7219 105.657C42.8431 105.679 42.9545 105.737 43.0405 105.824C43.1265 105.91 43.1829 106.02 43.2019 106.14C43.2287 106.664 42.3708 108.012 40.7569 108.997C40.7569 108.997 44.4727 114.844 45.6577 115.374C46.8427 115.904 50.2315 117.393 49.6577 117.676C49.084 117.959 44.9607 116.79 44.9607 116.79L36.596 114.603C36.596 114.603 8.92833 110.361 10.7675 97.9487C11.8988 90.3399 13.1321 83.4862 13.5771 81.7505L22.1777 84.1574Z" fill="#E5BAAB"/>
<path d="M13.1112 81.0425L10.6555 97.6182C10.0817 102.72 13.5777 106.774 18.2802 109.055C25.4384 112.521 36.0658 114.996 35.9746 114.981C35.8834 114.965 36.6931 107.582 36.6931 107.582C36.6931 107.582 21.7922 101.289 21.3257 98.5621C20.8593 95.8353 23.2185 84.5087 23.2185 84.5087L13.1112 81.0425Z" fill="#E0E0E0"/>
<path d="M35.9522 114.981C35.9466 114.937 35.9466 114.893 35.9522 114.85C35.9522 114.745 35.9522 114.619 35.979 114.467C36.0058 114.105 36.0433 113.617 36.097 112.993C36.2096 111.693 36.3758 109.847 36.5742 107.577L36.6332 107.671L29.1264 104.121L26.9816 103.072C26.2578 102.695 25.5285 102.28 24.8047 101.824C24.0702 101.361 23.3648 100.854 22.6921 100.309C22.3543 100.031 22.0165 99.7371 21.6947 99.4277C21.5133 99.2719 21.3672 99.0808 21.2658 98.8666C21.2089 98.7627 21.1674 98.6515 21.1425 98.5362C21.1073 98.4268 21.0821 98.3144 21.0674 98.2006C20.8261 96.3862 21.3194 94.6768 21.6036 93.0459C21.8878 91.4151 22.172 89.8262 22.4401 88.3265C22.9763 85.3165 23.4642 82.6107 23.8717 80.3244C24.0917 79.3116 24.2174 78.2813 24.247 77.2463C24.2574 76.4674 24.0926 75.6959 23.7645 74.9862C23.554 74.5384 23.2551 74.1357 22.8851 73.8011C22.6277 73.5756 22.4722 73.4864 22.4776 73.4707C22.6371 73.5492 22.7865 73.6461 22.9226 73.7591C23.3163 74.0839 23.636 74.4859 23.861 74.939C24.2129 75.6595 24.3961 76.4477 24.3972 77.2463C24.3852 78.2909 24.2721 79.3321 24.0594 80.3559C23.6679 82.6474 23.2015 85.3585 22.6867 88.3737C22.424 89.8787 22.1505 91.4623 21.8663 93.0931C21.7966 93.5021 21.7216 93.9164 21.6465 94.3359C21.5714 94.7554 21.491 95.1644 21.432 95.5839C21.291 96.4317 21.2676 97.2942 21.3623 98.1482C21.3793 98.2526 21.4026 98.3559 21.432 98.4576C21.4531 98.5583 21.4892 98.6555 21.5393 98.746C21.6276 98.9312 21.7556 99.0957 21.9146 99.2284C22.2309 99.5325 22.558 99.821 22.8905 100.094C23.5542 100.634 24.2508 101.135 24.9763 101.593C25.6894 102.05 26.4079 102.459 27.121 102.836L29.2658 103.885L36.7136 107.514L36.7726 107.545V107.608C36.5313 109.879 36.3382 111.719 36.2042 113.02C36.1291 113.638 36.0755 114.131 36.0326 114.488C36.0112 114.642 35.9951 114.768 35.9844 114.866C35.9775 114.905 35.9667 114.944 35.9522 114.981Z" fill="#FAFAFA"/>
<path d="M34.5702 106.57C34.5861 106.95 34.5555 107.33 34.479 107.702C34.3879 108.395 34.2377 109.349 34.0394 110.398C33.841 111.447 33.6158 112.39 33.4335 113.067C33.3599 113.44 33.2354 113.801 33.0635 114.142C33.0822 113.763 33.1415 113.387 33.2404 113.02C33.3977 112.23 33.5764 111.338 33.7766 110.345C33.9642 109.073 34.2292 107.812 34.5702 106.57Z" fill="#FAFAFA"/>
<path d="M35.9548 114.98C35.8655 114.98 35.7768 114.966 35.692 114.938L34.9575 114.765L32.2765 114.073C30.0084 113.475 26.8555 112.689 23.4775 111.478C21.8879 110.909 20.34 110.234 18.8448 109.459C17.6233 108.823 16.4575 108.09 15.3595 107.267C14.6186 106.712 13.9197 106.106 13.2683 105.452C13.0378 105.222 12.8716 105.038 12.7321 104.928C12.6683 104.866 12.6141 104.796 12.5713 104.718C12.5713 104.718 12.8394 104.965 13.322 105.4C14.0018 106.019 14.7179 106.598 15.4667 107.136C16.5756 107.916 17.7403 108.617 18.952 109.233C20.4435 109.991 21.9838 110.653 23.5633 111.215C26.9199 112.421 30.0673 113.234 32.3194 113.884L35.0003 114.655L35.7242 114.881C35.8051 114.904 35.8826 114.938 35.9548 114.98Z" fill="#FAFAFA"/>
<path d="M36.1348 108.341C36.138 108.435 36.1126 108.528 36.0618 108.607C36.0109 108.687 35.9371 108.75 35.8495 108.788C35.762 108.826 35.6648 108.838 35.5703 108.822C35.4758 108.806 35.3883 108.763 35.319 108.698C35.2497 108.634 35.2017 108.55 35.1811 108.458C35.1606 108.367 35.1684 108.271 35.2036 108.184C35.2387 108.097 35.2997 108.022 35.3787 107.969C35.4576 107.915 35.551 107.886 35.6469 107.885C35.773 107.884 35.8948 107.931 35.986 108.016C36.0772 108.101 36.1306 108.218 36.1348 108.341Z" fill="#FAFAFA"/>
</svg>
