<svg width="207" height="213" viewBox="0 0 207 213" fill="none" xmlns="http://www.w3.org/2000/svg">
<path d="M195.703 133.81C195.579 127.619 195.931 117.061 191.96 112.714C188.47 108.897 185.757 114.077 184.778 118.256C182.406 128.392 183.519 139.569 183.527 150.033C183.527 150.191 183.527 150.35 183.527 150.528C183.342 158.231 182.663 166.563 183.28 174.251C183.28 174.251 182.674 166.548 178.249 169.85C173.824 173.151 180.462 190.474 180.462 190.474C180.462 190.474 175.231 185.25 172.816 189.651C170.4 194.053 175.834 199 175.834 199C175.834 199 170.803 197.076 170.803 199C170.803 200.923 172.413 202.573 177.041 203.401H201.988C201.988 203.401 206.014 200.373 205.209 197.076C204.404 193.78 200.175 195.679 200.175 195.679C200.175 195.679 206.617 184.952 206.214 180.278C205.811 175.604 197.56 181.106 197.56 181.106C197.56 181.106 203.998 158.831 202.79 148.932C201.84 141.136 197.411 146.454 194.999 149.468C195.567 144.286 195.802 139.047 195.703 133.81Z" fill="#3BB5B5" stroke="white" stroke-width="0.50835" stroke-linecap="round" stroke-linejoin="round"/>
<path opacity="0.5" d="M195.703 133.81C195.579 127.619 195.931 117.061 191.96 112.714C188.47 108.897 185.757 114.077 184.778 118.256C182.406 128.392 183.519 139.569 183.527 150.033C183.527 150.191 183.527 150.35 183.527 150.528C183.342 158.231 182.663 166.563 183.28 174.251C183.28 174.251 182.674 166.548 178.249 169.85C173.824 173.151 180.462 190.474 180.462 190.474C180.462 190.474 175.231 185.25 172.816 189.651C170.4 194.053 175.834 199 175.834 199C175.834 199 170.803 197.076 170.803 199C170.803 200.923 172.413 202.573 177.041 203.401H201.988C201.988 203.401 206.014 200.373 205.209 197.076C204.404 193.78 200.175 195.679 200.175 195.679C200.175 195.679 206.617 184.952 206.214 180.278C205.811 175.604 197.56 181.106 197.56 181.106C197.56 181.106 203.998 158.831 202.79 148.932C201.84 141.136 197.411 146.454 194.999 149.468C195.567 144.286 195.802 139.047 195.703 133.81Z" fill="white"/>
<path d="M187.696 203.104L189.51 127.48" stroke="white" stroke-width="0.50835" stroke-linecap="round" stroke-linejoin="round"/>
<path d="M188.704 171.48L198.16 159.38" stroke="white" stroke-width="0.50835" stroke-linecap="round" stroke-linejoin="round"/>
<path d="M193.13 165.978L195.143 158.28" stroke="white" stroke-width="0.50835" stroke-linecap="round" stroke-linejoin="round"/>
<path d="M180.856 180.829L188.1 191.555" stroke="white" stroke-width="0.50835" stroke-linecap="round" stroke-linejoin="round"/>
<path d="M200.173 186.881L188.099 195.406" stroke="white" stroke-width="0.50835" stroke-linecap="round" stroke-linejoin="round"/>
<path d="M193.736 191.827L198.161 191.555" stroke="white" stroke-width="0.50835" stroke-linecap="round" stroke-linejoin="round"/>
<path d="M187.696 203.104L189.51 127.48" stroke="#3BB5B5" stroke-width="0.50835" stroke-linecap="round" stroke-linejoin="round"/>
<path d="M188.704 171.48L198.16 159.38" stroke="#3BB5B5" stroke-width="0.50835" stroke-linecap="round" stroke-linejoin="round"/>
<path d="M193.13 165.978L195.143 158.28" stroke="#3BB5B5" stroke-width="0.50835" stroke-linecap="round" stroke-linejoin="round"/>
<path d="M180.856 180.829L188.1 191.555" stroke="#3BB5B5" stroke-width="0.50835" stroke-linecap="round" stroke-linejoin="round"/>
<path d="M200.173 186.881L188.099 195.406" stroke="#3BB5B5" stroke-width="0.50835" stroke-linecap="round" stroke-linejoin="round"/>
<path d="M193.736 191.827L198.161 191.555" stroke="#3BB5B5" stroke-width="0.50835" stroke-linecap="round" stroke-linejoin="round"/>
<g opacity="0.8">
<path d="M187.696 203.103L189.51 127.479" stroke="white" stroke-width="0.50835" stroke-linecap="round" stroke-linejoin="round"/>
<path d="M188.704 171.48L198.16 159.38" stroke="white" stroke-width="0.50835" stroke-linecap="round" stroke-linejoin="round"/>
<path d="M193.13 165.977L195.143 158.28" stroke="white" stroke-width="0.50835" stroke-linecap="round" stroke-linejoin="round"/>
<path d="M180.854 180.828L188.098 191.554" stroke="white" stroke-width="0.50835" stroke-linecap="round" stroke-linejoin="round"/>
<path d="M200.172 186.881L188.098 195.406" stroke="white" stroke-width="0.50835" stroke-linecap="round" stroke-linejoin="round"/>
<path d="M193.733 191.827L198.158 191.554" stroke="white" stroke-width="0.50835" stroke-linecap="round" stroke-linejoin="round"/>
</g>
<path d="M153.131 187.823C153.131 195.51 157.589 201.746 157.589 201.746C157.589 201.746 162.046 195.51 162.046 187.823C162.046 180.135 157.589 173.899 157.589 173.899C157.589 173.899 153.131 180.13 153.131 187.823Z" fill="#3BB5B5"/>
<path d="M150.04 199.684C152.217 203.019 155.895 203.381 155.895 203.381C155.895 203.381 156.072 198.33 153.911 194.995C151.749 191.659 148.056 191.297 148.056 191.297C148.056 191.297 147.875 196.348 150.04 199.684Z" fill="#3BB5B5"/>
<path d="M161.4 194.88C159.126 198.077 159.141 203.133 159.141 203.133C159.141 203.133 162.837 202.999 165.107 199.797C167.378 196.595 167.37 191.544 167.37 191.544C167.37 191.544 163.671 191.678 161.4 194.88Z" fill="#3BB5B5"/>
<g opacity="0.5">
<path d="M153.131 187.823C153.131 195.511 157.589 201.746 157.589 201.746C157.589 201.746 162.046 195.511 162.046 187.823C162.046 180.135 157.589 173.9 157.589 173.9C157.589 173.9 153.131 180.13 153.131 187.823Z" fill="white"/>
<path d="M157.587 201.746V173.9" stroke="white" stroke-width="0.50835" stroke-linecap="round" stroke-linejoin="round"/>
<path d="M157.589 183.798L155.094 180.819" stroke="white" stroke-width="0.50835" stroke-linecap="round" stroke-linejoin="round"/>
<path d="M157.629 188.398L160.719 182.282" stroke="white" stroke-width="0.50835" stroke-linecap="round" stroke-linejoin="round"/>
<path d="M157.588 191.05L153.903 186.56" stroke="white" stroke-width="0.50835" stroke-linecap="round" stroke-linejoin="round"/>
<path d="M157.629 194.625L161.274 190.188" stroke="white" stroke-width="0.50835" stroke-linecap="round" stroke-linejoin="round"/>
<path d="M157.628 197.712L154.773 194.624" stroke="white" stroke-width="0.50835" stroke-linecap="round" stroke-linejoin="round"/>
<path d="M150.04 199.685C152.217 203.02 155.895 203.382 155.895 203.382C155.895 203.382 156.072 198.331 153.911 194.996C151.749 191.66 148.056 191.298 148.056 191.298C148.056 191.298 147.875 196.349 150.04 199.685Z" fill="white"/>
<path d="M155.894 203.382L148.056 191.298" stroke="white" stroke-width="0.50835" stroke-linecap="round" stroke-linejoin="round"/>
<path d="M150.842 195.596L148.92 195.616" stroke="white" stroke-width="0.50835" stroke-linecap="round" stroke-linejoin="round"/>
<path d="M152.156 197.568L151.775 193.291" stroke="white" stroke-width="0.50835" stroke-linecap="round" stroke-linejoin="round"/>
<path d="M152.885 198.743L150.023 198.728" stroke="white" stroke-width="0.50835" stroke-linecap="round" stroke-linejoin="round"/>
<path d="M153.906 200.269L154.236 196.428" stroke="white" stroke-width="0.50835" stroke-linecap="round" stroke-linejoin="round"/>
<path d="M154.777 201.607L152.67 201.771" stroke="white" stroke-width="0.50835" stroke-linecap="round" stroke-linejoin="round"/>
<path d="M161.399 194.882C159.125 198.079 159.14 203.135 159.14 203.135C159.14 203.135 162.836 203.001 165.106 199.799C167.377 196.597 167.37 191.546 167.37 191.546C167.37 191.546 163.67 191.68 161.399 194.882Z" fill="white"/>
<path d="M159.14 203.135L167.37 191.546" stroke="white" stroke-width="0.50835" stroke-linecap="round" stroke-linejoin="round"/>
<path d="M164.443 195.664L164.287 193.047" stroke="white" stroke-width="0.50835" stroke-linecap="round" stroke-linejoin="round"/>
<path d="M163.101 197.603L166.195 196.76" stroke="white" stroke-width="0.50835" stroke-linecap="round" stroke-linejoin="round"/>
<path d="M162.3 198.683L162.097 194.782" stroke="white" stroke-width="0.50835" stroke-linecap="round" stroke-linejoin="round"/>
<path d="M161.26 200.19L164.089 200.358" stroke="white" stroke-width="0.50835" stroke-linecap="round" stroke-linejoin="round"/>
<path d="M160.349 201.474L160.073 198.619" stroke="white" stroke-width="0.50835" stroke-linecap="round" stroke-linejoin="round"/>
</g>
<path d="M157.588 201.746V173.899" stroke="#3BB5B5" stroke-width="0.50835" stroke-linecap="round" stroke-linejoin="round"/>
<path d="M157.589 183.798L155.094 180.819" stroke="#3BB5B5" stroke-width="0.50835" stroke-linecap="round" stroke-linejoin="round"/>
<path d="M157.629 188.397L160.719 182.28" stroke="#3BB5B5" stroke-width="0.50835" stroke-linecap="round" stroke-linejoin="round"/>
<path d="M157.588 191.05L153.903 186.559" stroke="#3BB5B5" stroke-width="0.50835" stroke-linecap="round" stroke-linejoin="round"/>
<path d="M157.629 194.623L161.274 190.187" stroke="#3BB5B5" stroke-width="0.50835" stroke-linecap="round" stroke-linejoin="round"/>
<path d="M157.629 197.711L154.774 194.623" stroke="#3BB5B5" stroke-width="0.50835" stroke-linecap="round" stroke-linejoin="round"/>
<g opacity="0.7">
<path d="M157.587 201.746V173.9" stroke="white" stroke-width="0.50835" stroke-linecap="round" stroke-linejoin="round"/>
<path d="M157.588 183.798L155.093 180.819" stroke="white" stroke-width="0.50835" stroke-linecap="round" stroke-linejoin="round"/>
<path d="M157.628 188.398L160.718 182.282" stroke="white" stroke-width="0.50835" stroke-linecap="round" stroke-linejoin="round"/>
<path d="M157.587 191.05L153.902 186.56" stroke="white" stroke-width="0.50835" stroke-linecap="round" stroke-linejoin="round"/>
<path d="M157.628 194.625L161.273 190.188" stroke="white" stroke-width="0.50835" stroke-linecap="round" stroke-linejoin="round"/>
<path d="M157.628 197.712L154.773 194.624" stroke="white" stroke-width="0.50835" stroke-linecap="round" stroke-linejoin="round"/>
</g>
<path d="M155.895 203.381L148.057 191.297" stroke="#3BB5B5" stroke-width="0.50835" stroke-linecap="round" stroke-linejoin="round"/>
<path d="M150.841 195.594L148.919 195.615" stroke="#3BB5B5" stroke-width="0.50835" stroke-linecap="round" stroke-linejoin="round"/>
<path d="M152.153 197.568L151.772 193.29" stroke="#3BB5B5" stroke-width="0.50835" stroke-linecap="round" stroke-linejoin="round"/>
<path d="M152.884 198.741L150.022 198.726" stroke="#3BB5B5" stroke-width="0.50835" stroke-linecap="round" stroke-linejoin="round"/>
<path d="M153.906 200.269L154.236 196.427" stroke="#3BB5B5" stroke-width="0.50835" stroke-linecap="round" stroke-linejoin="round"/>
<path d="M154.776 201.607L152.669 201.771" stroke="#3BB5B5" stroke-width="0.50835" stroke-linecap="round" stroke-linejoin="round"/>
<g opacity="0.7">
<path d="M155.895 203.381L148.057 191.297" stroke="white" stroke-width="0.50835" stroke-linecap="round" stroke-linejoin="round"/>
<path d="M150.843 195.594L148.921 195.615" stroke="white" stroke-width="0.50835" stroke-linecap="round" stroke-linejoin="round"/>
<path d="M152.155 197.566L151.774 193.289" stroke="white" stroke-width="0.50835" stroke-linecap="round" stroke-linejoin="round"/>
<path d="M152.884 198.741L150.022 198.726" stroke="white" stroke-width="0.50835" stroke-linecap="round" stroke-linejoin="round"/>
<path d="M153.907 200.269L154.237 196.427" stroke="white" stroke-width="0.50835" stroke-linecap="round" stroke-linejoin="round"/>
<path d="M154.777 201.607L152.67 201.771" stroke="white" stroke-width="0.50835" stroke-linecap="round" stroke-linejoin="round"/>
</g>
<path d="M159.141 203.133L167.37 191.544" stroke="#3BB5B5" stroke-width="0.50835" stroke-linecap="round" stroke-linejoin="round"/>
<path d="M164.445 195.664L164.289 193.047" stroke="#3BB5B5" stroke-width="0.50835" stroke-linecap="round" stroke-linejoin="round"/>
<path d="M163.102 197.601L166.195 196.759" stroke="#3BB5B5" stroke-width="0.50835" stroke-linecap="round" stroke-linejoin="round"/>
<path d="M162.3 198.683L162.097 194.782" stroke="#3BB5B5" stroke-width="0.50835" stroke-linecap="round" stroke-linejoin="round"/>
<path d="M161.259 200.189L164.088 200.357" stroke="#3BB5B5" stroke-width="0.50835" stroke-linecap="round" stroke-linejoin="round"/>
<path d="M160.349 201.474L160.073 198.619" stroke="#3BB5B5" stroke-width="0.50835" stroke-linecap="round" stroke-linejoin="round"/>
<g opacity="0.7">
<path d="M159.139 203.134L167.369 191.545" stroke="white" stroke-width="0.50835" stroke-linecap="round" stroke-linejoin="round"/>
<path d="M164.441 195.664L164.285 193.047" stroke="white" stroke-width="0.50835" stroke-linecap="round" stroke-linejoin="round"/>
<path d="M163.1 197.602L166.194 196.76" stroke="white" stroke-width="0.50835" stroke-linecap="round" stroke-linejoin="round"/>
<path d="M162.298 198.683L162.095 194.782" stroke="white" stroke-width="0.50835" stroke-linecap="round" stroke-linejoin="round"/>
<path d="M161.256 200.19L164.085 200.359" stroke="white" stroke-width="0.50835" stroke-linecap="round" stroke-linejoin="round"/>
<path d="M160.347 201.474L160.071 198.619" stroke="white" stroke-width="0.50835" stroke-linecap="round" stroke-linejoin="round"/>
</g>
<path d="M11.2716 133.81C11.3913 127.619 11.0431 117.061 15.0148 112.714C18.504 108.897 21.2171 114.077 22.1928 118.256C24.5685 128.392 23.4514 139.569 23.4477 150.033C23.4477 150.191 23.4477 150.35 23.4477 150.528C23.6363 158.231 24.311 166.563 23.698 174.251C23.698 174.251 24.3001 166.548 28.7288 169.85C33.1574 173.151 26.5126 190.474 26.5126 190.474C26.5126 190.474 31.7465 185.25 34.1621 189.651C36.5778 194.053 31.1517 198.98 31.1517 198.98C31.1517 198.98 36.1824 197.057 36.1824 198.98C36.1824 200.903 34.572 202.554 29.9438 203.381H4.98587C4.98587 203.381 0.959804 200.353 1.76502 197.057C2.57023 193.76 6.79578 195.679 6.79578 195.679C6.79578 195.679 0.357706 184.952 0.760313 180.278C1.16292 175.604 9.41454 181.106 9.41454 181.106C9.41454 181.106 2.97284 158.831 4.18065 148.947C5.13095 141.15 9.56325 146.469 11.9716 149.483C11.4044 144.296 11.1702 139.052 11.2716 133.81Z" fill="#3BB5B5" stroke="white" stroke-width="0.50835" stroke-linecap="round" stroke-linejoin="round"/>
<path opacity="0.5" d="M11.2716 133.81C11.3913 127.619 11.0431 117.061 15.0148 112.714C18.504 108.897 21.2171 114.077 22.1928 118.256C24.5685 128.392 23.4514 139.569 23.4477 150.033C23.4477 150.191 23.4477 150.35 23.4477 150.528C23.6363 158.231 24.311 166.563 23.698 174.251C23.698 174.251 24.3001 166.548 28.7288 169.85C33.1574 173.151 26.5126 190.474 26.5126 190.474C26.5126 190.474 31.7465 185.25 34.1621 189.651C36.5778 194.053 31.1517 198.98 31.1517 198.98C31.1517 198.98 36.1824 197.057 36.1824 198.98C36.1824 200.903 34.572 202.554 29.9438 203.381H4.98587C4.98587 203.381 0.959804 200.353 1.76502 197.057C2.57023 193.76 6.79578 195.679 6.79578 195.679C6.79578 195.679 0.357706 184.952 0.760313 180.278C1.16292 175.604 9.41454 181.106 9.41454 181.106C9.41454 181.106 2.97284 158.831 4.18065 148.947C5.13095 141.15 9.56325 146.469 11.9716 149.483C11.4044 144.296 11.1702 139.052 11.2716 133.81Z" fill="white"/>
<path d="M19.2728 203.104L17.4629 127.48" stroke="white" stroke-width="0.50835" stroke-linecap="round" stroke-linejoin="round"/>
<path d="M18.269 171.48L8.80957 159.38" stroke="white" stroke-width="0.50835" stroke-linecap="round" stroke-linejoin="round"/>
<path d="M13.8392 165.978L11.8262 158.28" stroke="white" stroke-width="0.50835" stroke-linecap="round" stroke-linejoin="round"/>
<path d="M26.1134 180.829L18.8701 191.555" stroke="white" stroke-width="0.50835" stroke-linecap="round" stroke-linejoin="round"/>
<path d="M6.79492 186.881L18.8695 195.406" stroke="white" stroke-width="0.50835" stroke-linecap="round" stroke-linejoin="round"/>
<path d="M13.2382 191.827L8.80957 191.555" stroke="white" stroke-width="0.50835" stroke-linecap="round" stroke-linejoin="round"/>
<path d="M19.2728 203.104L17.4629 127.48" stroke="#3BB5B5" stroke-width="0.50835" stroke-linecap="round" stroke-linejoin="round"/>
<path d="M18.269 171.48L8.80957 159.38" stroke="#3BB5B5" stroke-width="0.50835" stroke-linecap="round" stroke-linejoin="round"/>
<path d="M13.8392 165.978L11.8262 158.28" stroke="#3BB5B5" stroke-width="0.50835" stroke-linecap="round" stroke-linejoin="round"/>
<path d="M26.1134 180.829L18.8701 191.555" stroke="#3BB5B5" stroke-width="0.50835" stroke-linecap="round" stroke-linejoin="round"/>
<path d="M6.79492 186.881L18.8695 195.406" stroke="#3BB5B5" stroke-width="0.50835" stroke-linecap="round" stroke-linejoin="round"/>
<path d="M13.2382 191.827L8.80957 191.555" stroke="#3BB5B5" stroke-width="0.50835" stroke-linecap="round" stroke-linejoin="round"/>
<g opacity="0.8">
<path d="M19.2738 203.103L17.4639 127.479" stroke="white" stroke-width="0.50835" stroke-linecap="round" stroke-linejoin="round"/>
<path d="M18.268 171.48L8.80859 159.38" stroke="white" stroke-width="0.50835" stroke-linecap="round" stroke-linejoin="round"/>
<path d="M13.8412 165.977L11.8281 158.28" stroke="white" stroke-width="0.50835" stroke-linecap="round" stroke-linejoin="round"/>
<path d="M26.1134 180.828L18.8701 191.554" stroke="white" stroke-width="0.50835" stroke-linecap="round" stroke-linejoin="round"/>
<path d="M6.7959 186.881L18.8705 195.406" stroke="white" stroke-width="0.50835" stroke-linecap="round" stroke-linejoin="round"/>
<path d="M13.2373 191.827L8.80859 191.554" stroke="white" stroke-width="0.50835" stroke-linecap="round" stroke-linejoin="round"/>
</g>
<path d="M54.5673 187.823C54.5673 195.51 50.1096 201.746 50.1096 201.746C50.1096 201.746 45.6592 195.51 45.6592 187.823C45.6592 180.135 50.1169 173.899 50.1169 173.899C50.1169 173.899 54.5673 180.13 54.5673 187.823Z" fill="#3BB5B5"/>
<path d="M57.6555 199.684C55.4793 203.019 51.8014 203.381 51.8014 203.381C51.8014 203.381 51.6237 198.33 53.789 194.995C55.9544 191.659 59.6431 191.297 59.6431 191.297C59.6431 191.297 59.8064 196.348 57.6555 199.684Z" fill="#3BB5B5"/>
<path d="M46.2983 194.88C48.5689 198.077 48.558 203.133 48.558 203.133C48.558 203.133 44.862 202.999 42.5878 199.797C40.3136 196.595 40.3281 191.544 40.3281 191.544C40.3281 191.544 44.0241 191.678 46.2983 194.88Z" fill="#3BB5B5"/>
<g opacity="0.5">
<path d="M54.5693 187.821C54.5693 195.509 50.1116 201.744 50.1116 201.744C50.1116 201.744 45.6611 195.509 45.6611 187.821C45.6611 180.133 50.1188 173.898 50.1188 173.898C50.1188 173.898 54.5693 180.128 54.5693 187.821Z" fill="white"/>
<path d="M50.1104 201.744V173.898" stroke="white" stroke-width="0.50835" stroke-linecap="round" stroke-linejoin="round"/>
<path d="M50.1104 183.797L52.6058 180.818" stroke="white" stroke-width="0.50835" stroke-linecap="round" stroke-linejoin="round"/>
<path d="M50.0707 188.396L46.9805 182.28" stroke="white" stroke-width="0.50835" stroke-linecap="round" stroke-linejoin="round"/>
<path d="M50.1104 191.048L53.7955 186.558" stroke="white" stroke-width="0.50835" stroke-linecap="round" stroke-linejoin="round"/>
<path d="M50.071 194.622L46.4258 190.186" stroke="white" stroke-width="0.50835" stroke-linecap="round" stroke-linejoin="round"/>
<path d="M50.0713 197.71L52.9222 194.622" stroke="white" stroke-width="0.50835" stroke-linecap="round" stroke-linejoin="round"/>
<path d="M57.6565 199.684C55.4802 203.019 51.8024 203.381 51.8024 203.381C51.8024 203.381 51.6246 198.33 53.79 194.995C55.9554 191.659 59.6441 191.297 59.6441 191.297C59.6441 191.297 59.8073 196.348 57.6565 199.684Z" fill="white"/>
<path d="M51.8027 203.381L59.6445 191.297" stroke="white" stroke-width="0.50835" stroke-linecap="round" stroke-linejoin="round"/>
<path d="M56.8584 195.594L58.7771 195.614" stroke="white" stroke-width="0.50835" stroke-linecap="round" stroke-linejoin="round"/>
<path d="M55.5439 197.567L55.9248 193.289" stroke="white" stroke-width="0.50835" stroke-linecap="round" stroke-linejoin="round"/>
<path d="M54.8125 198.741L57.6779 198.726" stroke="white" stroke-width="0.50835" stroke-linecap="round" stroke-linejoin="round"/>
<path d="M53.7891 200.269L53.459 196.427" stroke="white" stroke-width="0.50835" stroke-linecap="round" stroke-linejoin="round"/>
<path d="M52.9219 201.606L55.0292 201.77" stroke="white" stroke-width="0.50835" stroke-linecap="round" stroke-linejoin="round"/>
<path d="M46.2993 194.88C48.5698 198.077 48.559 203.133 48.559 203.133C48.559 203.133 44.863 202.999 42.5888 199.797C40.3146 196.595 40.3291 191.544 40.3291 191.544C40.3291 191.544 44.0251 191.678 46.2993 194.88Z" fill="white"/>
<path d="M48.559 203.133L40.3291 191.544" stroke="white" stroke-width="0.50835" stroke-linecap="round" stroke-linejoin="round"/>
<path d="M43.2529 195.663L43.4125 193.046" stroke="white" stroke-width="0.50835" stroke-linecap="round" stroke-linejoin="round"/>
<path d="M44.5978 197.601L41.5039 196.758" stroke="white" stroke-width="0.50835" stroke-linecap="round" stroke-linejoin="round"/>
<path d="M45.3965 198.681L45.6032 194.78" stroke="white" stroke-width="0.50835" stroke-linecap="round" stroke-linejoin="round"/>
<path d="M46.4375 200.189L43.6084 200.357" stroke="white" stroke-width="0.50835" stroke-linecap="round" stroke-linejoin="round"/>
<path d="M47.3516 201.472L47.6236 198.617" stroke="white" stroke-width="0.50835" stroke-linecap="round" stroke-linejoin="round"/>
</g>
<path d="M50.1094 201.746V173.899" stroke="#3BB5B5" stroke-width="0.50835" stroke-linecap="round" stroke-linejoin="round"/>
<path d="M50.1094 183.798L52.6048 180.819" stroke="#3BB5B5" stroke-width="0.50835" stroke-linecap="round" stroke-linejoin="round"/>
<path d="M50.0707 188.397L46.9805 182.28" stroke="#3BB5B5" stroke-width="0.50835" stroke-linecap="round" stroke-linejoin="round"/>
<path d="M50.1094 191.05L53.7945 186.559" stroke="#3BB5B5" stroke-width="0.50835" stroke-linecap="round" stroke-linejoin="round"/>
<path d="M50.072 194.623L46.4268 190.187" stroke="#3BB5B5" stroke-width="0.50835" stroke-linecap="round" stroke-linejoin="round"/>
<path d="M50.0703 197.711L52.9212 194.623" stroke="#3BB5B5" stroke-width="0.50835" stroke-linecap="round" stroke-linejoin="round"/>
<g opacity="0.7">
<path d="M50.1084 201.746V173.9" stroke="white" stroke-width="0.50835" stroke-linecap="round" stroke-linejoin="round"/>
<path d="M50.1084 183.799L52.6038 180.82" stroke="white" stroke-width="0.50835" stroke-linecap="round" stroke-linejoin="round"/>
<path d="M50.0688 188.398L46.9785 182.282" stroke="white" stroke-width="0.50835" stroke-linecap="round" stroke-linejoin="round"/>
<path d="M50.1084 191.05L53.7935 186.56" stroke="white" stroke-width="0.50835" stroke-linecap="round" stroke-linejoin="round"/>
<path d="M50.0691 194.625L46.4238 190.188" stroke="white" stroke-width="0.50835" stroke-linecap="round" stroke-linejoin="round"/>
<path d="M50.0684 197.712L52.9192 194.624" stroke="white" stroke-width="0.50835" stroke-linecap="round" stroke-linejoin="round"/>
</g>
<path d="M51.8008 203.381L59.6425 191.297" stroke="#3BB5B5" stroke-width="0.50835" stroke-linecap="round" stroke-linejoin="round"/>
<path d="M56.8574 195.594L58.7762 195.615" stroke="#3BB5B5" stroke-width="0.50835" stroke-linecap="round" stroke-linejoin="round"/>
<path d="M55.543 197.568L55.9238 193.29" stroke="#3BB5B5" stroke-width="0.50835" stroke-linecap="round" stroke-linejoin="round"/>
<path d="M54.8096 198.741L57.675 198.726" stroke="#3BB5B5" stroke-width="0.50835" stroke-linecap="round" stroke-linejoin="round"/>
<path d="M53.7871 200.269L53.457 196.427" stroke="#3BB5B5" stroke-width="0.50835" stroke-linecap="round" stroke-linejoin="round"/>
<path d="M52.9199 201.607L55.0273 201.771" stroke="#3BB5B5" stroke-width="0.50835" stroke-linecap="round" stroke-linejoin="round"/>
<g opacity="0.7">
<path d="M51.8018 203.381L59.6435 191.297" stroke="white" stroke-width="0.50835" stroke-linecap="round" stroke-linejoin="round"/>
<path d="M56.8574 195.595L58.7762 195.615" stroke="white" stroke-width="0.50835" stroke-linecap="round" stroke-linejoin="round"/>
<path d="M55.5439 197.568L55.9248 193.29" stroke="white" stroke-width="0.50835" stroke-linecap="round" stroke-linejoin="round"/>
<path d="M54.8105 198.743L57.6759 198.728" stroke="white" stroke-width="0.50835" stroke-linecap="round" stroke-linejoin="round"/>
<path d="M53.7881 200.269L53.458 196.427" stroke="white" stroke-width="0.50835" stroke-linecap="round" stroke-linejoin="round"/>
<path d="M52.9219 201.607L55.0292 201.771" stroke="white" stroke-width="0.50835" stroke-linecap="round" stroke-linejoin="round"/>
</g>
<path d="M48.558 203.133L40.3281 191.544" stroke="#3BB5B5" stroke-width="0.50835" stroke-linecap="round" stroke-linejoin="round"/>
<path d="M43.252 195.664L43.4115 193.047" stroke="#3BB5B5" stroke-width="0.50835" stroke-linecap="round" stroke-linejoin="round"/>
<path d="M44.5968 197.601L41.5029 196.759" stroke="#3BB5B5" stroke-width="0.50835" stroke-linecap="round" stroke-linejoin="round"/>
<path d="M45.3945 198.683L45.6013 194.782" stroke="#3BB5B5" stroke-width="0.50835" stroke-linecap="round" stroke-linejoin="round"/>
<path d="M46.4385 200.189L43.6094 200.357" stroke="#3BB5B5" stroke-width="0.50835" stroke-linecap="round" stroke-linejoin="round"/>
<path d="M47.3496 201.474L47.6216 198.619" stroke="#3BB5B5" stroke-width="0.50835" stroke-linecap="round" stroke-linejoin="round"/>
<g opacity="0.7">
<path d="M48.559 203.133L40.3291 191.544" stroke="white" stroke-width="0.50835" stroke-linecap="round" stroke-linejoin="round"/>
<path d="M43.2529 195.663L43.4125 193.046" stroke="white" stroke-width="0.50835" stroke-linecap="round" stroke-linejoin="round"/>
<path d="M44.5978 197.601L41.5039 196.758" stroke="white" stroke-width="0.50835" stroke-linecap="round" stroke-linejoin="round"/>
<path d="M45.3955 198.682L45.6022 194.781" stroke="white" stroke-width="0.50835" stroke-linecap="round" stroke-linejoin="round"/>
<path d="M46.4375 200.189L43.6084 200.357" stroke="white" stroke-width="0.50835" stroke-linecap="round" stroke-linejoin="round"/>
<path d="M47.3516 201.472L47.6236 198.617" stroke="white" stroke-width="0.50835" stroke-linecap="round" stroke-linejoin="round"/>
</g>
<path d="M154.974 56.0691H56.9231C56.8938 56.0698 56.8646 56.0625 56.8373 56.0476C56.8101 56.0327 56.7853 56.0105 56.7643 55.9824C56.7434 55.9542 56.7268 55.9207 56.7154 55.8837C56.7041 55.8466 56.6982 55.8069 56.6982 55.7668C56.6982 55.6853 56.7219 55.6071 56.7641 55.5495C56.8063 55.4919 56.8635 55.4595 56.9231 55.4595H154.974C155.004 55.4595 155.033 55.4675 155.06 55.483C155.087 55.4985 155.111 55.5212 155.132 55.5498C155.152 55.5784 155.169 55.6123 155.18 55.6496C155.191 55.6868 155.196 55.7267 155.195 55.7668C155.195 55.847 155.172 55.9239 155.131 55.9806C155.089 56.0373 155.033 56.0691 154.974 56.0691Z" fill="#3BB5B5"/>
<g opacity="0.3">
<path d="M154.972 56.0691H56.9212C56.8918 56.0698 56.8627 56.0625 56.8354 56.0476C56.8081 56.0327 56.7833 56.0105 56.7624 55.9824C56.7414 55.9542 56.7248 55.9207 56.7135 55.8837C56.7021 55.8466 56.6963 55.8069 56.6963 55.7668C56.6963 55.6853 56.72 55.6071 56.7622 55.5495C56.8043 55.4919 56.8615 55.4595 56.9212 55.4595H154.972C155.002 55.4595 155.031 55.4675 155.058 55.483C155.085 55.4985 155.109 55.5212 155.13 55.5498C155.151 55.5784 155.167 55.6123 155.178 55.6496C155.189 55.6868 155.194 55.7267 155.193 55.7668C155.193 55.847 155.17 55.9239 155.129 55.9806C155.087 56.0373 155.031 56.0691 154.972 56.0691Z" fill="white"/>
</g>
<path d="M154.777 109.215H56.7259C56.6965 109.215 56.6673 109.208 56.6401 109.193C56.6128 109.178 56.588 109.156 56.5671 109.128C56.5461 109.1 56.5295 109.066 56.5182 109.029C56.5068 108.992 56.501 108.952 56.501 108.912C56.501 108.831 56.5247 108.753 56.5668 108.695C56.609 108.637 56.6662 108.605 56.7259 108.605H154.777C154.806 108.605 154.835 108.613 154.862 108.628C154.889 108.644 154.914 108.667 154.935 108.695C154.955 108.724 154.971 108.758 154.982 108.795C154.993 108.832 154.999 108.872 154.998 108.912C154.998 108.952 154.992 108.991 154.981 109.028C154.97 109.065 154.954 109.098 154.933 109.126C154.913 109.154 154.888 109.176 154.862 109.192C154.835 109.207 154.806 109.215 154.777 109.215Z" fill="#3BB5B5"/>
<g opacity="0.3">
<path d="M154.777 109.215H56.7259C56.6965 109.215 56.6673 109.208 56.6401 109.193C56.6128 109.178 56.588 109.156 56.5671 109.128C56.5461 109.1 56.5295 109.066 56.5182 109.029C56.5068 108.992 56.501 108.952 56.501 108.912C56.501 108.831 56.5247 108.753 56.5668 108.695C56.609 108.637 56.6662 108.605 56.7259 108.605H154.777C154.806 108.605 154.835 108.613 154.862 108.628C154.889 108.644 154.914 108.667 154.935 108.695C154.955 108.724 154.971 108.758 154.982 108.795C154.993 108.832 154.999 108.872 154.998 108.912C154.998 108.952 154.992 108.991 154.981 109.028C154.97 109.065 154.954 109.098 154.933 109.126C154.913 109.154 154.888 109.176 154.862 109.192C154.835 109.207 154.806 109.215 154.777 109.215Z" fill="white"/>
</g>
<path d="M154.777 152.66H56.7259C56.6662 152.66 56.609 152.628 56.5668 152.57C56.5247 152.512 56.501 152.434 56.501 152.353C56.501 152.313 56.5068 152.273 56.5182 152.236C56.5295 152.199 56.5461 152.165 56.5671 152.137C56.588 152.109 56.6128 152.087 56.6401 152.072C56.6673 152.057 56.6965 152.05 56.7259 152.05H154.777C154.806 152.05 154.835 152.058 154.862 152.073C154.888 152.089 154.913 152.111 154.933 152.139C154.954 152.167 154.97 152.2 154.981 152.237C154.992 152.274 154.998 152.313 154.998 152.353C154.999 152.393 154.993 152.433 154.982 152.47C154.971 152.507 154.955 152.541 154.935 152.57C154.914 152.598 154.889 152.621 154.862 152.637C154.835 152.652 154.806 152.66 154.777 152.66Z" fill="#3BB5B5"/>
<g opacity="0.3">
<path d="M154.777 152.66H56.7259C56.6662 152.66 56.609 152.628 56.5668 152.57C56.5247 152.512 56.501 152.434 56.501 152.353C56.501 152.313 56.5068 152.273 56.5182 152.236C56.5295 152.199 56.5461 152.165 56.5671 152.137C56.588 152.109 56.6128 152.087 56.6401 152.072C56.6673 152.057 56.6965 152.05 56.7259 152.05H154.777C154.806 152.05 154.835 152.058 154.862 152.073C154.888 152.089 154.913 152.111 154.933 152.139C154.954 152.167 154.97 152.2 154.981 152.237C154.992 152.274 154.998 152.313 154.998 152.353C154.999 152.393 154.993 152.433 154.982 152.47C154.971 152.507 154.955 152.541 154.935 152.57C154.914 152.598 154.889 152.621 154.862 152.637C154.835 152.652 154.806 152.66 154.777 152.66Z" fill="white"/>
</g>
<path d="M77.5693 160.009V205.223" stroke="#1F7A93" stroke-width="0.1348" stroke-miterlimit="10"/>
<path d="M82.2949 160.009V205.223" stroke="#1F7A93" stroke-width="0.1348" stroke-miterlimit="10"/>
<path d="M87.0215 160.009V205.223" stroke="#1F7A93" stroke-width="0.1348" stroke-miterlimit="10"/>
<path d="M91.748 160.009V205.223" stroke="#1F7A93" stroke-width="0.1348" stroke-miterlimit="10"/>
<path d="M96.4746 160.009V205.223" stroke="#1F7A93" stroke-width="0.1348" stroke-miterlimit="10"/>
<path d="M101.2 160.009V205.223" stroke="#1F7A93" stroke-width="0.1348" stroke-miterlimit="10"/>
<path d="M105.926 160.009V205.223" stroke="#1F7A93" stroke-width="0.1348" stroke-miterlimit="10"/>
<path d="M110.652 160.009V205.223" stroke="#1F7A93" stroke-width="0.1348" stroke-miterlimit="10"/>
<path d="M115.379 160.009V205.223" stroke="#1F7A93" stroke-width="0.1348" stroke-miterlimit="10"/>
<path d="M120.104 160.009V205.223" stroke="#1F7A93" stroke-width="0.1348" stroke-miterlimit="10"/>
<path d="M124.83 160.009V205.223" stroke="#1F7A93" stroke-width="0.1348" stroke-miterlimit="10"/>
<path d="M129.558 160.009V205.223" stroke="#1F7A93" stroke-width="0.1348" stroke-miterlimit="10"/>
<path d="M77.8066 164.207H129.322" stroke="#1F7A93" stroke-width="0.1348" stroke-miterlimit="10"/>
<path d="M77.8066 170.343H129.322" stroke="#1F7A93" stroke-width="0.1348" stroke-miterlimit="10"/>
<path d="M77.8066 176.48H129.322" stroke="#1F7A93" stroke-width="0.1348" stroke-miterlimit="10"/>
<path d="M77.8066 182.616H129.322" stroke="#1F7A93" stroke-width="0.1348" stroke-miterlimit="10"/>
<path d="M77.8066 188.752H129.322" stroke="#1F7A93" stroke-width="0.1348" stroke-miterlimit="10"/>
<path d="M77.8066 194.888H129.322" stroke="#1F7A93" stroke-width="0.1348" stroke-miterlimit="10"/>
<path d="M77.8066 201.025H129.322" stroke="#1F7A93" stroke-width="0.1348" stroke-miterlimit="10"/>
<path d="M88.629 175.87L81.7158 204.996H96.1951L89.2783 175.87C89.2562 175.776 89.2129 175.694 89.1546 175.636C89.0962 175.578 89.0259 175.547 88.9537 175.547C88.8815 175.547 88.8111 175.578 88.7528 175.636C88.6944 175.694 88.6511 175.776 88.629 175.87Z" fill="#3BB5B5" stroke="#1F7A93" stroke-width="0.539198" stroke-miterlimit="10"/>
<path d="M101.809 166.225L92.6074 204.996H111.671L102.459 166.225C102.437 166.131 102.393 166.049 102.335 165.991C102.277 165.933 102.206 165.901 102.134 165.901C102.062 165.901 101.991 165.933 101.933 165.991C101.875 166.049 101.831 166.131 101.809 166.225Z" fill="#1F7A93" stroke="#1F7A93" stroke-width="0.539198" stroke-miterlimit="10"/>
<path d="M113.938 182.532L108.603 204.995H119.919L114.573 182.532C114.548 182.444 114.504 182.37 114.447 182.317C114.391 182.264 114.324 182.236 114.255 182.236C114.187 182.236 114.12 182.264 114.063 182.317C114.007 182.37 113.963 182.444 113.938 182.532Z" fill="#3BB5B5" stroke="#1F7A93" stroke-width="0.539198" stroke-miterlimit="10"/>
<path d="M121.248 190.244L117.748 204.995H125.398L121.897 190.244C121.875 190.15 121.832 190.068 121.774 190.01C121.715 189.952 121.645 189.921 121.573 189.921C121.501 189.921 121.43 189.952 121.372 190.01C121.314 190.068 121.27 190.15 121.248 190.244Z" fill="#1F7A93" stroke="#1F7A93" stroke-width="0.539198" stroke-miterlimit="10"/>
<path d="M76.9498 145.72C74.8759 145.72 72.8485 144.88 71.1241 143.305C69.3997 141.73 68.0557 139.492 67.2621 136.874C66.4684 134.256 66.2608 131.374 66.6654 128.595C67.07 125.815 68.0686 123.262 69.5351 121.258C71.0016 119.254 72.87 117.889 74.9041 117.336C76.9381 116.783 79.0465 117.067 80.9626 118.151C82.8786 119.236 84.5163 121.073 85.6685 123.429C86.8207 125.786 87.4357 128.556 87.4357 131.39C87.4328 135.19 86.3271 138.832 84.3613 141.519C82.3954 144.205 79.7299 145.716 76.9498 145.72ZM76.9498 121.269C75.4851 121.27 74.0534 121.864 72.8359 122.977C71.6184 124.09 70.6697 125.671 70.1096 127.52C69.5496 129.37 69.4035 131.405 69.6897 133.368C69.9758 135.331 70.6815 137.134 71.7175 138.549C72.7535 139.964 74.0732 140.928 75.5098 141.318C76.9464 141.708 78.4354 141.507 79.7886 140.741C81.1417 139.975 82.2983 138.677 83.1119 137.013C83.9256 135.349 84.3599 133.392 84.3599 131.39C84.358 128.706 83.5766 126.132 82.1872 124.234C80.7978 122.337 78.9141 121.27 76.9498 121.269Z" fill="#1F7A93" stroke="#1F7A93" stroke-width="0.539198" stroke-miterlimit="10"/>
<path d="M76.9496 145.72C75.5344 145.726 74.1332 145.337 72.8316 144.578C71.5301 143.819 70.3556 142.704 69.3799 141.304L71.6033 138.394C72.2922 139.384 73.1217 140.171 74.041 140.707C74.9603 141.243 75.9501 141.517 76.9496 141.512C77.9222 141.512 78.8854 141.25 79.784 140.741C80.6826 140.233 81.499 139.487 82.1868 138.547C82.8746 137.607 83.4201 136.492 83.7923 135.264C84.1645 134.036 84.3561 132.719 84.3561 131.39C84.3561 130.061 84.1645 128.745 83.7923 127.517C83.4201 126.289 82.8746 125.173 82.1868 124.233C81.499 123.293 80.6826 122.548 79.784 122.039C78.8854 121.531 77.9222 121.269 76.9496 121.269V117.061C78.3266 117.061 79.6902 117.431 80.9624 118.151C82.2346 118.871 83.3906 119.927 84.3643 121.258C85.338 122.588 86.1104 124.168 86.6373 125.907C87.1643 127.645 87.4355 129.508 87.4355 131.39C87.4355 133.272 87.1643 135.135 86.6373 136.874C86.1104 138.613 85.338 140.192 84.3643 141.523C83.3906 142.854 82.2346 143.909 80.9624 144.629C79.6902 145.349 78.3266 145.72 76.9496 145.72Z" fill="#3BB5B5" stroke="#1F7A93" stroke-width="0.539198" stroke-miterlimit="10"/>
<path d="M102.812 145.72C100.738 145.721 98.71 144.881 96.9852 143.307C95.2603 141.733 93.9157 139.496 93.1215 136.877C92.3273 134.259 92.1191 131.378 92.5233 128.598C92.9275 125.818 93.9259 123.264 95.3922 121.259C96.8586 119.255 98.727 117.89 100.761 117.336C102.795 116.783 104.904 117.066 106.82 118.151C108.736 119.235 110.374 121.072 111.527 123.429C112.679 125.785 113.294 128.556 113.294 131.39C113.291 135.189 112.186 138.83 110.221 141.517C108.256 144.203 105.591 145.715 102.812 145.72ZM102.812 121.269C101.347 121.271 99.916 121.866 98.6989 122.979C97.4819 124.093 96.5337 125.674 95.9743 127.524C95.4148 129.373 95.2691 131.408 95.5557 133.371C95.8424 135.334 96.5483 137.136 97.5844 138.551C98.6205 139.965 99.9403 140.928 101.377 141.318C102.813 141.708 104.302 141.507 105.655 140.74C107.008 139.974 108.164 138.677 108.978 137.012C109.791 135.348 110.226 133.392 110.226 131.39C110.223 128.705 109.44 126.132 108.051 124.234C106.661 122.337 104.777 121.27 102.812 121.269Z" fill="#1F7A93" stroke="#1F7A93" stroke-width="0.539198" stroke-miterlimit="10"/>
<path d="M106.893 144.59L105.696 140.719C107.269 139.808 108.563 138.182 109.36 136.116C110.156 134.051 110.406 131.673 110.067 129.384C109.728 127.096 108.82 125.039 107.498 123.56C106.176 122.081 104.521 121.271 102.812 121.269V117.061C105.232 117.061 107.577 118.205 109.45 120.298C111.323 122.391 112.608 125.305 113.089 128.545C113.569 131.786 113.214 135.154 112.085 138.078C110.956 141.002 109.122 143.303 106.893 144.59Z" fill="#3BB5B5" stroke="#1F7A93" stroke-width="0.539198" stroke-miterlimit="10"/>
<path d="M128.669 145.72C126.595 145.72 124.567 144.88 122.843 143.305C121.118 141.73 119.774 139.492 118.981 136.874C118.187 134.256 117.98 131.374 118.384 128.595C118.789 125.815 119.787 123.262 121.254 121.258C122.72 119.254 124.589 117.889 126.623 117.336C128.657 116.783 130.765 117.067 132.681 118.151C134.597 119.236 136.235 121.073 137.387 123.429C138.539 125.786 139.154 128.556 139.154 131.39C139.152 135.19 138.046 138.832 136.08 141.519C134.114 144.205 131.449 145.716 128.669 145.72ZM128.669 121.269C127.204 121.269 125.772 121.862 124.554 122.975C123.336 124.087 122.386 125.667 121.826 127.517C121.265 129.366 121.119 131.401 121.404 133.365C121.69 135.328 122.396 137.132 123.431 138.547C124.467 139.963 125.787 140.927 127.224 141.317C128.66 141.708 130.15 141.507 131.503 140.741C132.856 139.975 134.013 138.678 134.827 137.013C135.641 135.349 136.075 133.392 136.075 131.39C136.073 128.707 135.292 126.134 133.904 124.236C132.515 122.339 130.632 121.271 128.669 121.269Z" fill="#1F7A93" stroke="#1F7A93" stroke-width="0.539198" stroke-miterlimit="10"/>
<path d="M135.931 129.373C135.587 127.089 134.678 125.037 133.357 123.561C132.036 122.085 130.383 121.275 128.677 121.269V117.061C131.093 117.069 133.434 118.214 135.306 120.304C137.177 122.394 138.465 125.301 138.952 128.535L135.931 129.373Z" fill="#3BB5B5" stroke="#1F7A93" stroke-width="0.539198" stroke-miterlimit="10"/>
<path d="M81.1309 101.195H130.376" stroke="#1F7A93" stroke-width="0.539198" stroke-miterlimit="10"/>
<path d="M81.1309 101.195V99.7627" stroke="#1F7A93" stroke-width="0.539198" stroke-miterlimit="10"/>
<path d="M90.9785 101.195V99.7627" stroke="#1F7A93" stroke-width="0.539198" stroke-miterlimit="10"/>
<path d="M100.83 101.195V99.7627" stroke="#1F7A93" stroke-width="0.539198" stroke-miterlimit="10"/>
<path d="M110.677 101.195V99.7627" stroke="#1F7A93" stroke-width="0.539198" stroke-miterlimit="10"/>
<path d="M120.524 101.195V99.7627" stroke="#1F7A93" stroke-width="0.539198" stroke-miterlimit="10"/>
<path d="M130.377 101.195V99.7627" stroke="#1F7A93" stroke-width="0.539198" stroke-miterlimit="10"/>
<path d="M89.6007 82.0674H82.5098V93.5421H89.6007V82.0674Z" fill="#3BB5B5" stroke="#1F7A93" stroke-width="0.539198" stroke-miterlimit="10"/>
<path d="M99.4464 68.6787H92.3555V95.4546H99.4464V68.6787Z" fill="#3BB5B5" stroke="#1F7A93" stroke-width="0.539198" stroke-miterlimit="10"/>
<path d="M109.3 49.938H102.209V79.7771H109.3V49.938Z" fill="#3BB5B5" stroke="#1F7A93" stroke-width="0.539198" stroke-miterlimit="10"/>
<path d="M119.146 77.8643H112.055V83.6041H119.146V77.8643Z" fill="#3BB5B5" stroke="#1F7A93" stroke-width="0.539198" stroke-miterlimit="10"/>
<path d="M128.993 74.4189H121.902V89.3385H128.993V74.4189Z" fill="#3BB5B5" stroke="#1F7A93" stroke-width="0.539198" stroke-miterlimit="10"/>
<path d="M89.6007 93.5469H82.5098V101.2H89.6007V93.5469Z" fill="#1F7A93" stroke="#1F7A93" stroke-width="0.539198" stroke-miterlimit="10"/>
<path d="M99.4464 95.46H92.3555V101.2H99.4464V95.46Z" fill="#1F7A93" stroke="#1F7A93" stroke-width="0.539198" stroke-miterlimit="10"/>
<path d="M109.3 79.7725H102.209V101.195H109.3V79.7725Z" fill="#1F7A93" stroke="#1F7A93" stroke-width="0.539198" stroke-miterlimit="10"/>
<path d="M119.146 83.5991H112.055V101.195H119.146V83.5991Z" fill="#1F7A93" stroke="#1F7A93" stroke-width="0.539198" stroke-miterlimit="10"/>
<path d="M128.993 89.3389H121.902V101.195H128.993V89.3389Z" fill="#1F7A93" stroke="#1F7A93" stroke-width="0.539198" stroke-miterlimit="10"/>
<path d="M143.497 44.5199C143.411 44.5207 143.327 44.4926 143.252 44.4381C143.177 44.3836 143.112 44.3044 143.065 44.2076L127.81 13.8034L112.333 36.3562L96.5296 22.2793L81.2414 27.1269L65.7138 44.3612C65.6061 44.4809 65.468 44.5371 65.3299 44.5176C65.1918 44.4981 65.0651 44.4044 64.9775 44.2572C64.89 44.1099 64.8488 43.9212 64.8631 43.7325C64.8774 43.5438 64.946 43.3706 65.0537 43.2509L80.7699 25.8085L96.729 20.7477L112.173 34.5074L127.94 11.5283L143.928 43.3997C143.983 43.5066 144.014 43.6318 144.02 43.7616C144.026 43.8915 144.006 44.0211 143.962 44.1364C143.918 44.2518 143.852 44.3485 143.77 44.416C143.689 44.4836 143.596 44.5195 143.5 44.5199H143.497Z" fill="#1F7A93"/>
<path d="M66.6981 43.8066C66.6981 44.1566 66.6222 44.4987 66.4799 44.7897C66.3376 45.0807 66.1354 45.3075 65.8988 45.4415C65.6622 45.5754 65.4018 45.6104 65.1506 45.5422C64.8995 45.4739 64.6687 45.3054 64.4877 45.0579C64.3066 44.8104 64.1832 44.4951 64.1333 44.1519C64.0833 43.8086 64.109 43.4528 64.207 43.1295C64.305 42.8061 64.4709 42.5298 64.6839 42.3353C64.8968 42.1409 65.1472 42.0371 65.4033 42.0371C65.7467 42.0371 66.076 42.2235 66.3189 42.5554C66.5617 42.8872 66.6981 43.3373 66.6981 43.8066Z" fill="#3BB5B5"/>
<path d="M81.0068 28.2378C81.7219 28.2378 82.3016 27.4455 82.3016 26.4683C82.3016 25.491 81.7219 24.6987 81.0068 24.6987C80.2916 24.6987 79.7119 25.491 79.7119 26.4683C79.7119 27.4455 80.2916 28.2378 81.0068 28.2378Z" fill="#3BB5B5"/>
<path d="M96.6298 23.2812C97.345 23.2812 97.9247 22.489 97.9247 21.5117C97.9247 20.5344 97.345 19.7422 96.6298 19.7422C95.9147 19.7422 95.335 20.5344 95.335 21.5117C95.335 22.489 95.9147 23.2812 96.6298 23.2812Z" fill="#3BB5B5"/>
<path d="M112.252 37.1982C112.967 37.1982 113.547 36.406 113.547 35.4287C113.547 34.4514 112.967 33.6592 112.252 33.6592C111.537 33.6592 110.957 34.4514 110.957 35.4287C110.957 36.406 111.537 37.1982 112.252 37.1982Z" fill="#3BB5B5"/>
<path d="M129.167 12.6685C129.167 13.0184 129.091 13.3606 128.949 13.6516C128.806 13.9426 128.604 14.1694 128.368 14.3033C128.131 14.4372 127.871 14.4723 127.619 14.404C127.368 14.3357 127.137 14.1672 126.956 13.9197C126.775 13.6722 126.652 13.3569 126.602 13.0137C126.552 12.6704 126.578 12.3146 126.676 11.9913C126.774 11.6679 126.94 11.3916 127.153 11.1971C127.366 11.0027 127.616 10.8989 127.872 10.8989C128.215 10.8989 128.545 11.0854 128.788 11.4172C129.03 11.7491 129.167 12.1991 129.167 12.6685Z" fill="#3BB5B5"/>
<path d="M144.789 43.8066C144.789 44.1566 144.713 44.4987 144.571 44.7897C144.428 45.0807 144.226 45.3075 143.99 45.4415C143.753 45.5754 143.493 45.6104 143.241 45.5422C142.99 45.4739 142.76 45.3054 142.578 45.0579C142.397 44.8104 142.274 44.4951 142.224 44.1519C142.174 43.8086 142.2 43.4528 142.298 43.1295C142.396 42.8061 142.562 42.5298 142.775 42.3353C142.988 42.1409 143.238 42.0371 143.494 42.0371C143.838 42.0371 144.167 42.2235 144.41 42.5554C144.653 42.8872 144.789 43.3373 144.789 43.8066Z" fill="#3BB5B5"/>
<path d="M171.42 212.462C185.246 212.462 196.454 210.404 196.454 207.867C196.454 205.329 185.246 203.272 171.42 203.272C157.594 203.272 146.386 205.329 146.386 207.867C146.386 210.404 157.594 212.462 171.42 212.462Z" fill="#3BB5B5"/>
<path opacity="0.7" d="M171.42 212.462C185.246 212.462 196.454 210.404 196.454 207.867C196.454 205.329 185.246 203.272 171.42 203.272C157.594 203.272 146.386 205.329 146.386 207.867C146.386 210.404 157.594 212.462 171.42 212.462Z" fill="white"/>
<path d="M34.264 212.462C47.0223 212.462 57.3649 210.404 57.3649 207.867C57.3649 205.329 47.0223 203.272 34.264 203.272C21.5057 203.272 11.1631 205.329 11.1631 207.867C11.1631 210.404 21.5057 212.462 34.264 212.462Z" fill="#3BB5B5"/>
<path opacity="0.7" d="M34.264 212.462C47.0223 212.462 57.3649 210.404 57.3649 207.867C57.3649 205.329 47.0223 203.272 34.264 203.272C21.5057 203.272 11.1631 205.329 11.1631 207.867C11.1631 210.404 21.5057 212.462 34.264 212.462Z" fill="white"/>
<path d="M164.353 45.9966C164.353 45.9966 173.863 44.7376 174.407 46.9037C174.951 49.0698 174.77 54.0165 174.77 54.0165C175.249 54.1867 175.716 54.4139 176.166 54.6956C176.293 54.8641 177.701 56.1231 176.388 58.19C176.045 58.7141 175.629 59.1403 175.165 59.4441C174.586 59.7943 174.036 60.2262 173.522 60.7328L171.614 63.6919L171.977 67.5036C171.977 67.5036 172.829 68.3462 173.87 71.2855C173.87 71.2855 176.33 73.2682 177.773 74.3933C178.96 75.2458 180.195 75.9684 181.465 76.5545C181.465 76.5545 182.126 76.8469 182.078 77.4962C182.031 78.1455 178.792 92.8619 178.792 92.8619L177.088 100.297C177.055 101.211 176.968 102.119 176.826 103.013C176.583 104.614 175.669 105.665 174.723 105.338L174.817 110.79C174.817 110.79 170.37 113.829 163.036 113.313C163.036 113.313 159.583 112.857 157.03 110.275L156.983 97.536L145.216 94.4232C145.216 94.4232 143.726 93.992 144.491 92.158C145.256 90.3241 147.828 85.7738 147.828 85.7738L156.094 71.9547C156.094 71.9547 156.663 71.0377 156.874 70.7452C157.084 70.4528 157.599 70.2496 159.641 70.0166C161.683 69.7837 163.972 69.2434 163.972 69.2434C163.972 69.2434 165.213 67.7861 165.39 67.7861C165.568 67.7861 165.604 65.6052 165.604 65.6052C164.977 64.9866 164.455 64.1894 164.075 63.2687C163.695 62.3479 163.466 61.3255 163.403 60.2718C163.225 56.7328 164.36 48.4403 164.36 48.4403L164.353 45.9966Z" fill="white"/>
<path d="M157.174 110.225C157.174 110.225 156.173 130.547 156.173 140.272C156.173 149.997 156.619 157.873 156.84 164.704C157.061 171.534 156.173 176.238 156.949 181.244C157.725 186.25 159.506 200.823 159.506 200.823L161.599 202.548C161.599 202.548 161.962 190.954 162.723 186.86C163.485 182.766 163.724 165.462 164.174 160.149C164.624 154.835 166.064 136.02 166.064 136.02C166.064 136.02 171.617 155.747 172.955 163.489C174.294 171.232 178.842 188.679 179.847 192.927C180.852 197.175 182.4 203.47 182.4 203.47C182.871 203.658 183.365 203.709 183.851 203.619C184.061 203.595 184.263 203.5 184.438 203.34C184.613 203.18 184.756 202.962 184.852 202.706C184.852 202.706 183.376 189.998 182.727 183.822C181.925 176.183 180.619 164.704 179.825 160.456C179.031 156.208 177.827 149.526 177.827 146.339C177.827 143.152 174.831 111.147 174.831 111.147C174.831 111.147 164.392 117.358 157.174 110.225Z" fill="#1F7A93"/>
<path d="M166.056 136.019L161.602 128.921" stroke="white" stroke-width="0.269599" stroke-miterlimit="10" stroke-linecap="round"/>
<path d="M160.465 129.442L164.132 134.106" stroke="white" stroke-width="0.269599" stroke-miterlimit="10" stroke-linecap="round"/>
<path d="M168.302 129.962C169.241 126.716 170.986 124.024 173.231 122.359" stroke="white" stroke-width="0.269599" stroke-miterlimit="10" stroke-linecap="round"/>
<path d="M173.484 112.862C173.484 112.862 172.98 115.45 173.611 117.006C174.242 118.562 174.876 118.562 174.876 118.562C174.876 118.562 176.012 127.023 176.012 131.861C176.012 136.699 175.254 137.214 176.012 142.568C176.77 147.921 177.278 149.651 177.278 152.758C177.278 155.866 178.286 157.943 179.171 159.842C180.056 161.74 180.31 167.277 180.31 169.512C180.31 171.747 180.814 174.176 181.322 176.422C181.322 176.422 181.442 181.458 182.08 182.637C182.718 183.817 182.838 187.822 182.838 187.822" stroke="white" stroke-width="0.269599" stroke-miterlimit="10" stroke-linecap="round"/>
<path d="M165.142 135.316C165.142 135.316 165.392 139.281 164.507 146.196C163.622 153.11 162.991 155.004 162.864 162.949C162.737 170.895 163.245 172.278 162.991 176.422C162.737 180.565 161.221 187.113 161.221 190.087C161.221 193.061 161.453 202.568 161.453 202.568" stroke="white" stroke-width="0.269599" stroke-miterlimit="10" stroke-linecap="round"/>
<path d="M162.361 113.898L162.615 115.281L164.258 115.796L164.004 114.071" stroke="white" stroke-width="0.269599" stroke-miterlimit="10" stroke-linecap="round"/>
<path d="M164.265 115.796C164.265 115.796 167.297 115.623 168.813 114.934L168.45 113.551" stroke="white" stroke-width="0.269599" stroke-miterlimit="10" stroke-linecap="round"/>
<path d="M169.816 113.204L170.179 114.933C170.179 114.933 172.606 114.745 172.968 114.249" stroke="white" stroke-width="0.269599" stroke-miterlimit="10" stroke-linecap="round"/>
<path d="M162.615 115.281C161.777 115.245 160.956 114.948 160.214 114.413L159.075 113.551L159.438 112.341" stroke="white" stroke-width="0.269599" stroke-miterlimit="10" stroke-linecap="round"/>
<path d="M159.506 200.823C159.506 200.823 154.065 205.675 153.286 207.95C152.506 210.226 155.618 209.318 157.838 208.104C160.057 206.89 161.465 202.548 161.465 202.548L159.506 200.823Z" fill="white" stroke="#1F7A93" stroke-width="0.539198" stroke-miterlimit="10" stroke-linecap="round"/>
<path d="M182.573 203.535C182.848 205.614 183.388 207.61 184.169 209.433C185.366 211.976 187.626 214.157 187.626 210.157C187.626 206.157 184.837 202.722 184.837 202.722C184.837 202.722 183.451 203.748 182.573 203.535Z" fill="white" stroke="#1F7A93" stroke-width="0.539198" stroke-miterlimit="10" stroke-linecap="round"/>
<path d="M164.319 48.7427C164.319 48.7427 163.14 58.7353 163.539 61.2136C164.45 66.7601 167.645 66.5222 169.644 65.4615C171.512 64.4702 173.376 60.9658 173.616 60.5048C173.633 60.4723 173.657 60.448 173.684 60.4354C173.982 60.3214 175.828 59.5185 176.641 57.5705C177.529 55.4441 175.864 54.537 175.864 54.537" fill="white"/>
<mask id="mask0_224_4403" style="mask-type:luminance" maskUnits="userSpaceOnUse" x="163" y="48" width="14" height="19">
<path d="M164.317 48.7427C164.317 48.7427 163.139 58.7353 163.538 61.2136C164.448 66.7601 167.643 66.5222 169.642 65.4615C171.51 64.4702 173.374 60.9658 173.614 60.5048C173.631 60.4723 173.655 60.448 173.682 60.4354C173.98 60.3214 175.826 59.5185 176.639 57.5705C177.527 55.4441 175.862 54.537 175.862 54.537" fill="white"/>
</mask>
<g mask="url(#mask0_224_4403)">
<g style="mix-blend-mode:multiply" opacity="0.5">
<path d="M171.882 63.0772L173.644 60.4303C173.644 60.4303 175.73 59.553 176.64 57.5455C177.174 56.3708 176.88 55.3448 176.557 55.0672C176.115 54.74 175.658 54.4503 175.19 54.1998L174.598 55.9792L174.094 56.0982C174.094 56.0982 174.305 54.2642 173.695 53.1787C173.086 52.0932 172.948 48.9507 172.948 48.9507C172.948 48.9507 172.096 55.2159 171.99 57.838C171.963 59.2972 171.63 60.715 171.029 61.9223C171.029 61.9223 171.138 63.5233 171.348 65.1243C171.374 65.3126 171.399 65.5952 171.425 65.9471L171.715 65.3126L171.874 65.9173C171.693 64.8764 171.61 63.7711 171.882 63.0772Z" fill="#3BB5B5"/>
</g>
</g>
<path d="M164.319 48.7427C164.319 48.7427 163.14 58.7353 163.539 61.2136C164.45 66.7601 167.645 66.5222 169.644 65.4615C171.512 64.4702 173.376 60.9658 173.616 60.5048C173.633 60.4723 173.657 60.448 173.684 60.4354C173.982 60.3214 175.828 59.5185 176.641 57.5705C177.529 55.4441 175.864 54.537 175.864 54.537" stroke="#1F7A93" stroke-width="0.539198" stroke-miterlimit="10" stroke-linecap="round"/>
<path d="M168.831 53.8235C168.762 54.2201 168.831 54.577 168.965 54.6216C169.099 54.6662 169.281 54.3886 169.349 53.997C169.418 53.6055 169.349 53.2486 169.215 53.199C169.081 53.1494 168.9 53.432 168.831 53.8235Z" fill="#1F7A93"/>
<path d="M165.716 52.7875C165.647 53.184 165.716 53.5409 165.85 53.5855C165.984 53.6301 166.165 53.3526 166.234 52.961C166.303 52.5694 166.234 52.2076 166.1 52.163C165.966 52.1184 165.781 52.391 165.716 52.7875Z" fill="#1F7A93"/>
<path d="M170.765 52.0882C170.593 51.6761 170.349 51.3291 170.055 51.0789C169.76 50.8287 169.424 50.6832 169.078 50.6558" stroke="#1F7A93" stroke-width="0.539198" stroke-miterlimit="10" stroke-linecap="round"/>
<path d="M166.691 50.7312C166.406 50.5606 166.089 50.5129 165.783 50.5944C165.478 50.6759 165.197 50.8826 164.979 51.1872" stroke="#1F7A93" stroke-width="0.539198" stroke-miterlimit="10" stroke-linecap="round"/>
<path d="M166.901 52.5342C166.908 53.1982 166.872 53.8617 166.793 54.5168C166.673 55.3446 166.201 55.5082 166.321 56.1476C166.441 56.787 167.046 56.8514 167.046 56.8514" stroke="#1F7A93" stroke-width="0.539198" stroke-miterlimit="10" stroke-linecap="round"/>
<path d="M167.679 59.4351C167.935 59.5468 168.207 59.5812 168.474 59.5358C168.742 59.4905 168.999 59.3665 169.227 59.1724" stroke="#1F7A93" stroke-width="0.539198" stroke-miterlimit="10" stroke-linecap="round"/>
<path d="M173.423 41.7637C173.423 41.7637 170.982 38.8789 168.65 38.8789C166.318 38.8789 164.428 40.703 162.985 40.8616C161.541 41.0202 160.544 39.1912 159.655 41.6199C158.766 44.0487 162.1 48.1479 164.319 48.7526C166.539 49.3573 169.648 48.4502 170.536 48.2966C171.388 48.2168 172.242 48.2168 173.093 48.2966C173.093 48.2966 172.426 51.1813 173.093 52.0934C173.761 53.0054 173.87 53.6101 173.87 54.2148C173.908 54.8822 173.982 55.5449 174.091 56.1975L174.758 56.5048L175.092 54.8344C175.992 53.5223 176.608 51.8935 176.869 50.1305C177.199 47.3994 175.534 44.6782 175.534 44.6782L173.423 41.7637Z" fill="#1F7A93"/>
<path d="M164.073 47.5084C164.073 47.5084 167.871 48.4998 170.845 46.8096C173.819 45.1193 171.255 41.7637 171.255 41.7637" stroke="white" stroke-width="0.269599" stroke-miterlimit="10" stroke-linecap="round"/>
<path d="M171.883 41.4814C172.191 41.4814 174.755 44.1432 174.24 46.106C173.725 48.0689 172.703 48.2126 172.703 48.2126" stroke="white" stroke-width="0.269599" stroke-miterlimit="10" stroke-linecap="round"/>
<path d="M171.463 101.69L168.256 99.3798C167.432 99.3175 166.613 99.1717 165.804 98.9436C165.057 98.6511 157.39 97.6499 157.39 97.6499L157.273 100.128C157.273 100.128 166.018 101.734 167.828 102.027C169.638 102.319 171.241 103.484 171.561 104.213C171.88 104.941 172.522 105.67 172.203 107.682C171.883 109.695 169.751 112.639 169.751 112.639C169.649 112.431 174.879 111.915 174.829 111.152C174.716 109.635 174.125 105.204 174.125 105.204L171.463 101.69Z" fill="#3BB5B5"/>
<path opacity="0.5" d="M171.463 101.69L168.256 99.3798C167.432 99.3175 166.613 99.1717 165.804 98.9436C165.057 98.6511 157.39 97.6499 157.39 97.6499L157.273 100.128C157.273 100.128 166.018 101.734 167.828 102.027C169.638 102.319 171.241 103.484 171.561 104.213C171.88 104.941 172.522 105.67 172.203 107.682C171.883 109.695 169.751 112.639 169.751 112.639C169.667 112.416 174.89 111.91 174.829 111.152C174.658 109.219 174.125 105.204 174.125 105.204L171.463 101.69Z" fill="white"/>
<path d="M182.038 77.4416C181.755 75.6275 179.644 75.8703 178.371 74.8641C177.098 73.8579 174.018 71.5283 174.018 71.5283L172.528 68.4651C172.259 67.6392 172.041 66.7836 171.878 65.9074L171.719 65.3027L171.429 65.9372C171.614 68.6534 171.791 75.6076 171.791 75.6076L172.43 79.9794C172.43 79.9794 174.885 94.4033 175.524 97.6103C176.162 100.817 176.162 102.998 175.738 104.019C175.313 105.04 175.455 105.506 175.455 105.506C175.455 105.506 177.12 103.747 177.018 102.002C176.884 99.9498 182.237 78.6709 182.038 77.4416Z" fill="#3BB5B5"/>
<path opacity="0.5" d="M182.038 77.4416C181.893 75.5977 179.644 75.8703 178.371 74.8641C177.098 73.8579 174.018 71.5283 174.018 71.5283L172.528 68.4651C172.259 67.6392 172.041 66.7836 171.878 65.9074L171.719 65.3027L171.429 65.9372C171.614 68.6534 171.791 75.6076 171.791 75.6076L172.43 79.9794C172.43 79.9794 174.885 94.4033 175.524 97.6103C176.162 100.817 176.162 102.998 175.738 104.019C175.313 105.04 175.455 105.506 175.455 105.506C175.455 105.506 177.167 103.742 177.018 102.002C176.848 100.133 182.169 78.9732 182.038 77.4416Z" fill="white"/>
<path d="M172.721 75.623C172.721 75.623 172.054 67.4296 171.72 65.3032C171.386 63.1768 171.611 61.9674 170.168 61.9674C168.724 61.9674 166.947 61.6601 167.266 62.7258C167.585 63.7914 169.805 62.8745 170.168 63.3305C170.53 63.7865 170.277 64.8472 170.277 64.8472C170.277 64.8472 167.375 65.1545 167.375 66.2152C167.375 67.276 167.487 70.1806 168.042 70.4631C168.597 70.7456 168.818 69.1 168.818 69.1C168.818 69.1 168.931 72.5697 169.486 73.8039C169.839 74.5661 170.249 75.277 170.708 75.9253L172.721 75.623Z" fill="white" stroke="#1F7A93" stroke-width="0.539198" stroke-miterlimit="10" stroke-linecap="round"/>
<path d="M170.721 77.8987C170.721 77.8987 170.387 96.734 170.942 99.7526C171.497 102.771 174.496 106.885 176.049 104.913C177.601 102.94 176.829 98.6919 176.829 96.7192C176.829 94.7464 173.274 80.1788 173.274 79.1131C173.221 78.2281 173.071 77.3592 172.828 76.5356" stroke="#1F7A93" stroke-width="0.539198" stroke-miterlimit="10" stroke-linecap="round"/>
<path d="M170.942 80.1774L173.162 79.8701" stroke="#1F7A93" stroke-width="0.539198" stroke-miterlimit="10" stroke-linecap="round"/>
<path d="M156.747 89.5954L157.175 72.837C157.175 72.837 156.642 72.4008 156.428 74.0018C156.214 75.6028 156.108 78.8147 156.108 78.8147C156.108 78.8147 153.548 76.6288 154.19 77.9374C154.832 79.2459 155.894 82.1654 155.894 82.1654L151.934 87.5533L153.747 88.5744L156.747 89.5954Z" fill="#3BB5B5"/>
<path opacity="0.5" d="M156.747 89.5954L157.175 72.837C157.175 72.837 156.642 72.4008 156.428 74.0018C156.214 75.6028 156.108 78.8147 156.108 78.8147C156.108 78.8147 153.548 76.6288 154.19 77.9374C154.832 79.2459 155.894 82.1654 155.894 82.1654L151.934 87.5533L153.747 88.5744L156.747 89.5954Z" fill="white"/>
<path d="M162.055 76.5797C162.055 76.5797 161.852 77.571 162.705 77.571C163.557 77.571 165.055 76.7433 165.055 76.7433L164.946 75.0977C164.946 75.0977 162.897 76.4607 162.055 76.5797Z" fill="#3BB5B5"/>
<path opacity="0.5" d="M162.055 76.5797C162.055 76.5797 161.852 77.571 162.705 77.571C163.557 77.571 165.055 76.7433 165.055 76.7433L164.946 75.0977C164.946 75.0977 162.897 76.4607 162.055 76.5797Z" fill="white"/>
<path d="M165.717 65.4971C165.717 65.4971 164.607 74.4191 165.274 76.4017C165.942 78.3844 166.939 77.9185 167.715 77.0114C168.491 76.1043 169.492 73.8243 169.492 73.8243" stroke="#1F7A93" stroke-width="0.539198" stroke-miterlimit="10" stroke-linecap="round"/>
<path d="M156.949 97.7793L157.174 110.225C157.174 110.225 159.713 113.561 164.613 113.561C169.513 113.561 174.831 111.133 174.831 111.133V106.731" stroke="#1F7A93" stroke-width="0.539198" stroke-miterlimit="10" stroke-linecap="round"/>
<path d="M171.943 67.2759C171.943 67.2759 173.942 70.007 173.942 72.5894C173.942 75.1718 173.608 75.7766 173.608 75.7766" stroke="#1F7A93" stroke-width="0.539198" stroke-miterlimit="10" stroke-linecap="round"/>
<path d="M173.716 71.0728C173.716 71.0728 176.715 73.4966 178.38 74.8646C180.045 76.2326 182.047 76.2277 182.047 77.4421C182.047 78.6564 177.383 99.296 177.383 99.296" stroke="#1F7A93" stroke-width="0.539198" stroke-miterlimit="10" stroke-linecap="round"/>
<path d="M175.608 77.8989L174.498 83.9708" stroke="#1F7A93" stroke-width="0.539198" stroke-miterlimit="10" stroke-linecap="round"/>
<path d="M156.979 81.4609L155.184 76.3159" stroke="#1F7A93" stroke-width="0.269599" stroke-miterlimit="10" stroke-linecap="round"/>
<path d="M156.978 82.9342L154.287 80.7285" stroke="#1F7A93" stroke-width="0.269599" stroke-miterlimit="10" stroke-linecap="round"/>
<path d="M165.759 94.4434L165.223 98.1212" stroke="#1F7A93" stroke-width="0.269599" stroke-miterlimit="10" stroke-linecap="round"/>
<path d="M180.279 77.2983C180.279 77.2983 177.591 78.0319 175.081 82.1955" stroke="#1F7A93" stroke-width="0.269599" stroke-miterlimit="10" stroke-linecap="round"/>
<path d="M178.486 77.076C178.486 77.076 177.761 76.8281 175.262 79.7674" stroke="#1F7A93" stroke-width="0.269599" stroke-miterlimit="10" stroke-linecap="round"/>
<path d="M165.76 78.2798L164.687 89.7892L165.582 90.037L166.301 86.3641" stroke="#1F7A93" stroke-width="0.269599" stroke-miterlimit="10" stroke-linecap="round"/>
<path d="M166.478 108.406C163.25 112.084 158.771 111.836 158.771 111.836" stroke="#1F7A93" stroke-width="0.269599" stroke-miterlimit="10" stroke-linecap="round"/>
<path d="M152.836 88.4158C152.836 88.4158 150.642 85.6698 147.533 89.1642" stroke="#1F7A93" stroke-width="0.269599" stroke-miterlimit="10" stroke-linecap="round"/>
<path d="M165.504 67.7314C165.504 67.7314 164.616 68.0338 163.615 70.1602C162.614 72.2866 161.395 75.9248 162.283 76.2272C163.172 76.5295 164.822 75.1664 164.822 75.1664" stroke="#1F7A93" stroke-width="0.539198" stroke-miterlimit="10" stroke-linecap="round"/>
<path d="M168.944 75.7769L170.054 77.1399" stroke="#1F7A93" stroke-width="0.539198" stroke-miterlimit="10" stroke-linecap="round"/>
<path d="M163.946 69.2485C163.946 69.2485 159.837 70.0069 158.172 70.1606C156.507 70.3142 156.83 71.1519 156.286 71.6773C155.408 72.515 145.339 89.9575 144.679 91.6279C144.019 93.2983 144.124 94.0566 145.234 94.5126C146.344 94.9686 157.399 97.6254 157.399 97.6254L167.167 98.9935L167.943 95.6527C167.943 95.6527 170.214 96.0641 170.613 96.0641" stroke="#1F7A93" stroke-width="0.539198" stroke-miterlimit="10" stroke-linecap="round"/>
<path d="M166.834 94.4228C164.678 93.5682 162.594 92.4052 160.617 90.9531" stroke="#1F7A93" stroke-width="0.539198" stroke-miterlimit="10" stroke-linecap="round"/>
<path d="M159.728 90.6465C159.728 90.6465 156.463 88.991 154.697 88.6886C152.93 88.3862 150.225 88.2871 150.225 88.2871" stroke="#1F7A93" stroke-width="0.539198" stroke-miterlimit="10" stroke-linecap="round"/>
<path d="M156.729 88.6742L157.062 76.6841" stroke="#1F7A93" stroke-width="0.539198" stroke-miterlimit="10" stroke-linecap="round"/>
<path d="M167.167 98.9937C167.929 99.5172 168.727 99.9357 169.55 100.243" stroke="#1F7A93" stroke-width="0.539198" stroke-miterlimit="10" stroke-linecap="round"/>
<path d="M21.8427 89.3337L23.1521 79.5542L31.44 75.0932C31.44 75.0932 31.8426 72.0547 32.2488 71.9209C32.655 71.7871 33.054 70.538 33.054 70.538L32.8545 68.0349C32.8545 68.0349 33.6126 64.0696 37.4246 67.1576C37.4246 67.1576 36.2712 68.2084 36.4707 68.6446C36.6702 69.0807 36.2495 70.4686 36.7536 70.4686C37.2578 70.4686 38.277 71.3459 38.7921 72.0547C39.1525 72.584 39.4711 73.1638 39.7424 73.7846L44.0332 74.1217C44.473 74.1267 44.9106 74.2083 45.3353 74.3645C45.4079 71.4996 45.1503 69.3137 44.6425 67.6136C42.7964 61.4772 39.4304 59.2864 38.948 56.2133C38.4656 53.1401 38.7086 52.8179 38.7086 52.8179C39.1991 52.1364 39.5583 51.2992 39.7539 50.3814C39.9495 49.4636 39.9754 48.4938 39.8294 47.5589C39.3506 44.2726 37.5044 41.9678 30.8487 41.5316C24.193 41.0954 25.1578 47.3359 25.1578 47.3359L25.2376 47.7721C25.2376 47.7721 20.9867 49.7547 21.7919 57.0856C22.5971 64.4165 24.9185 67.6037 24.8387 69.9035C24.7589 72.2034 22.2707 73.0808 18.7415 78.3299C15.2124 83.579 14.4942 91.4749 15.9378 96.6249C16.6632 99.1578 18.0814 101.269 19.8623 102.846L21.8427 89.3337Z" fill="#1F7A93"/>
<path d="M27.3993 90.3003V92.511L24.3271 105.483C26.2468 106.177 28.2601 106.234 30.1994 105.651C31.2941 105.261 32.3404 104.651 33.3042 103.842L27.3993 90.3003Z" fill="#1F7A93"/>
<path d="M36.2312 68.5652L36.5939 70.7957C36.5939 70.7957 37.682 69.3087 39.8075 73.8242C39.8075 73.8242 44.2253 73.6805 45.4295 74.5033C45.4295 74.5033 45.6798 74.6024 46.4959 75.787C47.312 76.9717 50.3805 80.7437 50.3805 80.7437C50.3805 80.7437 54.3195 85.74 54.7112 86.1266C55.1029 86.5132 56.5719 88.4315 57.6709 89.1006L60.6161 79.9358L61.9291 75.4004L62.6545 71.668H62.8867L62.9374 68.6594L62.7597 65.0707C62.7886 64.8882 62.8496 64.7181 62.9374 64.5751C63.2415 63.9991 63.4755 63.3597 63.6302 62.6816C63.6302 62.3446 63.3799 60.352 63.3799 60.352C63.3799 60.352 63.2566 59.8563 63.525 59.7968C63.7934 59.7374 64.7836 60.2082 64.9069 61.155L65.2696 60.9864C65.57 60.0057 65.9444 59.0704 66.3868 58.1958C66.9744 57.1549 67.5765 56.5007 67.9501 56.8377C68.0526 56.9343 68.1265 57.0778 68.1584 57.2423C68.1903 57.4068 68.1782 57.5815 68.1242 57.7349L66.9562 60.6692C66.9562 60.6692 66.4412 61.6159 67.0796 61.953C67.0796 61.953 68.4615 63.1674 68.5522 64.2331C68.6428 65.2987 68.1423 66.2157 67.6998 66.9989C67.2573 67.782 66.4775 69.4772 66.4775 69.4772L65.5707 70.5726L65.208 72.4611L65.636 73.1897L64.9976 76.9717L64.537 79.8069L64.3048 81.5268L62.854 88.3175L61.4032 94.2357C61.4032 94.2357 60.656 97.6261 58.8461 97.5319C57.0362 97.4377 55.0521 96.0994 54.4102 95.6632C53.7682 95.2271 48.4762 91.4501 48.4762 91.4501L47.3881 90.7462C47.5333 91.4232 47.5958 92.1282 47.5731 92.833C47.555 94.1415 46.5249 97.0263 46.2238 97.6806L46.0461 102.796C45.9758 103.683 45.988 104.579 46.0824 105.463C46.242 106.796 47.0581 114.34 47.2358 115.282C47.2358 115.282 45.473 117.463 40.221 118.499C34.969 119.535 32.5098 117.854 32.5098 117.854L30.1703 115.976L33.0539 108.189C33.0539 108.189 33.7793 105.874 33.7067 105.264C33.6342 104.655 32.3937 102.028 32.3937 102.028L27.8418 90.9544L27.6278 91.0536L26.9205 94.2853L24.3634 105.244L20.9974 118.925C20.9974 118.925 20.0762 122.395 19.6953 123.421L18.6326 127.847C18.6916 128.638 18.8346 129.412 19.057 130.147L16.3838 127.782L16.8589 124.313L17.4502 119.138L18.1756 113.512L18.8139 108.858L19.8331 102.652L20.1959 100.937L20.9213 96.0895L22.198 87.2964L23.2861 79.7672L30.903 75.6284L31.3782 75.1328C31.4838 74.1745 31.7413 73.2594 32.1326 72.4512C32.4042 71.9195 32.7276 71.4409 33.0938 71.0286C33.0938 71.0286 33.0575 70.3793 33.0321 69.7647C33.0067 69.1501 32.8907 68.0199 32.8907 68.0199C32.8907 68.0199 35.2446 69.4029 36.2312 68.5652Z" fill="white"/>
<path d="M26.0283 48.6451C26.0283 48.6451 27.4393 44.3774 30.2611 44.3774C33.083 44.3774 38.9262 51.9512 38.9262 51.9512" stroke="white" stroke-width="0.269599" stroke-miterlimit="10" stroke-linecap="round"/>
<path d="M27.2363 49.319C27.2363 49.319 28.9483 46.8406 31.0665 47.8022C33.1847 48.7638 33.4858 52.2087 33.4858 52.2087" stroke="white" stroke-width="0.269599" stroke-miterlimit="10" stroke-linecap="round"/>
<path d="M25.8253 49.7441C25.8253 49.7441 23.3081 51.6723 23.105 55.2559C22.9019 58.8396 26.6305 63.1023 27.1347 67.9252C27.6388 72.748 25.0201 73.8434 20.7873 77.8385C16.5545 81.8336 17.2617 90.7803 18.1685 92.7085" stroke="white" stroke-width="0.269599" stroke-miterlimit="10" stroke-linecap="round"/>
<path d="M18.6729 93.814C18.6729 93.814 19.2749 95.6033 20.1817 96.1535" stroke="white" stroke-width="0.269599" stroke-miterlimit="10" stroke-linecap="round"/>
<path d="M26.1304 59.1084C26.0112 59.4582 25.9577 59.8431 25.9748 60.2282C25.9919 60.6134 26.079 60.9866 26.2283 61.3141C26.7325 62.5533 30.5808 68.7491 30.2616 71.6438C29.9424 74.5385 27.9439 76.3229 27.9439 76.3229" stroke="white" stroke-width="0.269599" stroke-miterlimit="10" stroke-linecap="round"/>
<path d="M28.0407 49.7441C28.0407 49.7441 25.723 51.1221 25.8245 54.2894C25.9261 57.4567 26.4303 58.2845 26.4303 58.2845" stroke="white" stroke-width="0.269599" stroke-miterlimit="10" stroke-linecap="round"/>
<path d="M38.9258 60.2231C39.6459 62.4511 40.6341 64.4984 41.8492 66.2802C43.6628 68.7585 43.8622 72.3422 43.8622 72.3422" stroke="white" stroke-width="0.269599" stroke-miterlimit="10" stroke-linecap="round"/>
<path d="M41.041 68.0596C41.041 68.0596 41.9478 70.9543 41.9478 72.7436" stroke="white" stroke-width="0.269599" stroke-miterlimit="10" stroke-linecap="round"/>
<path d="M36.0251 68.8282L33.1778 72.3326C33.1778 72.3326 32.8731 73.3933 32.3 75.0934C31.727 76.7936 31.8213 80.0501 31.8213 80.0501L33.5768 84.8234C33.5768 84.8234 30.2 79.5297 30.0077 78.8754C29.8155 78.2211 26.2827 79.4008 25.6153 79.7924C24.9479 80.1839 24.0847 80.9671 24.2769 82.1418C24.4692 83.3165 25.3288 84.8779 24.9443 85.1406C24.5598 85.4033 23.5116 84.749 23.5116 85.5322C23.5116 86.3153 24.7557 89.3191 24.1826 90.36C23.6095 91.4009 19.9788 108.244 19.9788 108.244C19.9788 108.244 22.2711 105.631 21.6981 106.677C21.125 107.723 18.3575 116.204 18.3575 116.204L17.3057 121.161L19.7902 103.545L21.8903 88.6747L23.1525 79.5544C24.3712 78.9993 31.4404 75.0934 31.4404 75.0934C31.4404 75.0934 31.999 71.8815 33.0545 70.5383L32.855 68.0352C32.855 68.0352 34.781 68.9571 36.0251 68.8282Z" fill="#3BB5B5"/>
<path opacity="0.5" d="M36.0251 68.8282L33.1778 72.3326C33.1778 72.3326 32.8731 73.3933 32.3 75.0934C31.727 76.7936 31.8213 80.0501 31.8213 80.0501L33.5768 84.8234C33.5768 84.8234 30.2 79.5297 30.0077 78.8754C29.8155 78.2211 26.2827 79.4008 25.6153 79.7924C24.9479 80.1839 24.0847 80.9671 24.2769 82.1418C24.4692 83.3165 25.3288 84.8779 24.9443 85.1406C24.5598 85.4033 23.5116 84.749 23.5116 85.5322C23.5116 86.3153 24.7557 89.3191 24.1826 90.36C23.6095 91.4009 19.9788 108.244 19.9788 108.244C19.9788 108.244 22.2711 105.631 21.6981 106.677C21.125 107.723 18.3575 116.204 18.3575 116.204L17.3057 121.161L19.7902 103.545L21.8903 88.6747L23.1525 79.5544C24.3712 78.9993 31.4404 75.0934 31.4404 75.0934C31.4404 75.0934 31.5928 72.1194 33.0581 71.0785L32.855 68.0352C32.855 68.0352 34.781 68.9571 36.0251 68.8282Z" fill="white"/>
<path d="M46.623 86.4443C46.623 86.4443 48.3423 82.5335 48.5345 83.4455C48.7268 84.3575 48.0558 87.4852 48.0558 87.4852C48.0558 87.4852 49.8693 86.5732 49.6807 87.3563C49.4921 88.1395 49.1076 88.531 49.2019 88.9226C49.2962 89.3142 55.5058 93.7504 56.2711 94.2709C57.0364 94.7913 58.85 91.7925 59.7096 92.7045C60.5692 93.6166 59.7096 96.7442 57.9903 96.7492C56.2711 96.7541 51.3056 93.7752 51.3056 93.7752L47.3956 90.6674" fill="#3BB5B5"/>
<path opacity="0.5" d="M46.623 86.4443C46.623 86.4443 48.3423 82.5335 48.5345 83.4455C48.7268 84.3575 48.0558 87.4852 48.0558 87.4852C48.0558 87.4852 49.8693 86.5732 49.6807 87.3563C49.4921 88.1395 49.1076 88.531 49.2019 88.9226C49.2962 89.3142 55.5058 93.7504 56.2711 94.2709C57.0364 94.7913 58.85 91.7925 59.7096 92.7045C60.5692 93.6166 59.7096 96.7442 57.9903 96.7492C56.2711 96.7541 51.3056 93.7752 51.3056 93.7752L47.4101 90.6773" fill="white"/>
<path d="M36.3115 102.236C36.3115 102.236 47.4757 94.1465 45.6622 97.1452C43.8486 100.144 37.8385 103.544 36.3115 102.236Z" fill="#3BB5B5"/>
<path opacity="0.5" d="M36.3115 102.236C36.3115 102.236 47.4757 94.1465 45.6622 97.1452C43.8486 100.144 37.8385 103.544 36.3115 102.236Z" fill="white"/>
<path d="M32.8545 68.0596C32.8545 68.0596 32.9343 70.1414 33.1773 72.3322C33.4203 74.5231 33.3369 74.5231 34.8603 77.1501C36.3836 79.7771 37.9868 81.9729 38.2262 81.5367" stroke="#1F7A93" stroke-width="0.539198" stroke-miterlimit="10" stroke-linecap="round"/>
<path d="M38.3071 80.7688C38.3071 80.7688 38.4667 76.9323 37.9081 74.4143C37.3496 71.8963 36.5444 71.0141 36.5444 70.449C36.5172 69.8602 36.4639 69.2743 36.3848 68.6943" stroke="#1F7A93" stroke-width="0.539198" stroke-miterlimit="10" stroke-linecap="round"/>
<path d="M32.8536 71.2373C32.2129 72.0257 31.7647 73.0637 31.5696 74.2113C31.3302 75.961 31.0908 78.0428 31.0908 78.0428L33.5754 84.8384C33.7917 83.655 34.1146 82.5129 34.5366 81.4381C34.7455 80.9077 35.0163 80.4272 35.3381 80.0155" stroke="#1F7A93" stroke-width="0.539198" stroke-miterlimit="10" stroke-linecap="round"/>
<path d="M38.8681 78.9055C39.0435 78.8454 39.2259 78.8338 39.4046 78.8712C39.5834 78.9087 39.7549 78.9945 39.9091 79.1235C40.551 79.5647 41.835 81.8646 41.835 81.8646C41.835 81.8646 40.9537 76.1644 39.4303 73.2102C37.9069 70.2561 36.8623 70.4692 36.8623 70.4692" stroke="#1F7A93" stroke-width="0.539198" stroke-miterlimit="10" stroke-linecap="round"/>
<path d="M30.8488 75.5093L23.1521 79.5539C23.1521 79.5539 20.3483 100.481 19.3037 106.067C18.2591 111.653 16.5 127.435 16.5 127.435L18.5819 127.981L19.3074 125.135" stroke="#1F7A93" stroke-width="0.50835" stroke-linecap="round" stroke-linejoin="round"/>
<path d="M19.7051 123.5C19.7051 123.5 20.1839 122.509 21.4678 117.057C22.7518 111.604 26.1831 98.2213 26.7598 95.5794C27.3365 92.9375 27.8007 91.1978 27.8007 91.1978" stroke="#1F7A93" stroke-width="0.539198" stroke-miterlimit="10" stroke-linecap="round"/>
<path d="M26.4385 87.9805C26.4385 87.9805 32.931 103.842 33.4932 104.526C34.0554 105.21 33.2538 107.044 33.0906 108.03" stroke="#1F7A93" stroke-width="0.539198" stroke-miterlimit="10" stroke-linecap="round"/>
<path d="M32.371 110.023L30.2891 115.941C30.2891 115.941 31.6528 118.791 37.4235 118.791C40.8578 118.805 44.2428 117.676 47.2856 115.5C47.2856 115.5 45.9218 105.641 46.0016 103.886C46.0814 102.132 46.2446 97.5319 46.2446 97.5319C46.2446 97.5319 47.6955 94.5579 47.525 92.2729C47.3545 89.9879 46.6436 87.341 46.6436 86.9049C46.6436 86.4687 46.484 81.7549 46.484 81.7549" stroke="#1F7A93" stroke-width="0.539198" stroke-miterlimit="10" stroke-linecap="round"/>
<path d="M37.4141 100.283L43.1594 95.4648" stroke="#1F7A93" stroke-width="0.269599" stroke-miterlimit="10" stroke-linecap="round"/>
<path d="M40.4385 98.7713L43.5614 96.293" stroke="#1F7A93" stroke-width="0.269599" stroke-miterlimit="10" stroke-linecap="round"/>
<path d="M57.6305 89.2041L56.459 93.1248" stroke="#1F7A93" stroke-width="0.269599" stroke-miterlimit="10" stroke-linecap="round"/>
<path d="M57.1639 90.9199L56.0576 92.4367" stroke="#1F7A93" stroke-width="0.269599" stroke-miterlimit="10" stroke-linecap="round"/>
<path d="M24.4139 104.833C24.4139 104.833 22.4988 107.861 21.1895 109.1" stroke="#1F7A93" stroke-width="0.269599" stroke-miterlimit="10" stroke-linecap="round"/>
<path d="M23.309 105.655C23.309 105.655 19.9829 109.234 19.1777 110.062" stroke="#1F7A93" stroke-width="0.269599" stroke-miterlimit="10" stroke-linecap="round"/>
<path d="M23.9004 80.1782C24.903 82.1156 25.8117 84.1406 26.6207 86.2402" stroke="#1F7A93" stroke-width="0.269599" stroke-miterlimit="10" stroke-linecap="round"/>
<path d="M26.9355 87.2021L27.6392 88.8527" stroke="#1F7A93" stroke-width="0.269599" stroke-miterlimit="10" stroke-linecap="round"/>
<path d="M46.6455 86.9044L47.5269 80.7681" stroke="#1F7A93" stroke-width="0.269599" stroke-miterlimit="10" stroke-linecap="round"/>
<path d="M46.9678 87.3409L48.3279 84.7139" stroke="#1F7A93" stroke-width="0.269599" stroke-miterlimit="10" stroke-linecap="round"/>
<path d="M27.8024 91.1777L23.9541 88.3276" stroke="#1F7A93" stroke-width="0.269599" stroke-miterlimit="10" stroke-linecap="round"/>
<path d="M38.1465 82.0815C38.1465 82.0815 39.5973 86.0469 40.0725 88.8771" stroke="#1F7A93" stroke-width="0.269599" stroke-miterlimit="10" stroke-linecap="round"/>
<path d="M61.957 75.1775C62.3408 75.1389 62.7263 75.2068 63.0903 75.3771C63.4544 75.5475 63.7894 75.8168 64.0753 76.1689" stroke="#1F7A93" stroke-width="0.269599" stroke-miterlimit="10" stroke-linecap="round"/>
<path d="M17.8906 124.714L18.8844 125.22" stroke="#1F7A93" stroke-width="0.269599" stroke-miterlimit="10" stroke-linecap="round"/>
<path d="M16.474 127.634C16.4865 129.518 16.4138 131.402 16.2564 133.274C16.017 135.579 16.0968 140.838 16.416 142.479C16.7352 144.12 16.8984 144.462 17.2176 143.47C17.5367 142.479 18.5015 136.68 18.5015 136.68C18.5015 136.68 18.6611 140.511 19.3829 140.184C20.1047 139.857 19.7057 137.993 19.7057 136.348C19.7057 134.702 19.7855 134.157 19.7057 132.843C19.6259 131.53 18.5559 128.283 18.5559 128.283" fill="white"/>
<path d="M16.474 127.634C16.4865 129.518 16.4138 131.402 16.2564 133.274C16.017 135.579 16.0968 140.838 16.416 142.479C16.7352 144.12 16.8984 144.462 17.2176 143.47C17.5367 142.479 18.5015 136.68 18.5015 136.68C18.5015 136.68 18.6611 140.511 19.3829 140.184C20.1047 139.857 19.7057 137.993 19.7057 136.348C19.7057 134.702 19.7855 134.157 19.7057 132.843C19.6259 131.53 18.5559 128.283 18.5559 128.283" stroke="#1F7A93" stroke-width="0.50835" stroke-miterlimit="10" stroke-linecap="round"/>
<path d="M62.8937 71.5837C62.8572 70.6145 62.8572 69.6433 62.8937 68.6741C62.959 67.7621 62.6942 66.399 62.7595 65.2045C62.8248 64.0099 63.6916 63.5688 63.5574 62.0223C63.4232 60.4758 63.1584 60.2924 63.3579 59.9306C63.5574 59.5687 64.8088 60.109 64.8886 61.1103C64.9597 62.1406 64.9597 63.1778 64.8886 64.2082C64.8233 64.4808 65.2875 66.1908 65.0228 66.9343C64.8711 67.3371 64.7589 67.7654 64.6891 68.2082" stroke="#1F7A93" stroke-width="0.447777" stroke-miterlimit="10" stroke-linecap="round"/>
<path d="M65.1562 61.0314C65.1562 61.0314 66.6869 56.848 67.5537 56.7538C68.4206 56.6596 68.1522 57.7451 67.8838 58.3003C67.6154 58.8554 66.7522 60.848 66.6869 61.6708C66.6216 62.4936 65.82 65.2148 65.82 65.2148" stroke="#1F7A93" stroke-width="0.447777" stroke-miterlimit="10" stroke-linecap="round"/>
<path d="M66.6991 61.6714C66.6991 61.6714 69.0313 63.5797 68.5126 65.141C67.9939 66.7024 67.711 67.3269 67.312 67.1237C66.9583 66.8767 66.642 66.5403 66.3799 66.1324" stroke="#1F7A93" stroke-width="0.447777" stroke-miterlimit="10" stroke-linecap="round"/>
<path d="M67.5553 67.1284C67.5553 67.1284 66.9532 68.4915 66.4889 69.3143C66.2219 69.7895 65.9054 70.2087 65.5495 70.5584L65.2666 71.9017" stroke="#1F7A93" stroke-width="0.447777" stroke-miterlimit="10" stroke-linecap="round"/>
<path d="M39.5889 73.7543C39.5889 73.7543 45.1202 73.6453 45.842 74.8497C46.5638 76.0542 55.305 87.0134 56.3605 87.9998C57.416 88.9861 57.6445 89.2042 57.6445 89.2042C57.6445 89.2042 61.9716 75.8212 61.9716 75.1769C61.9716 74.5325 62.697 71.5635 62.697 71.5635C62.697 71.5635 64.0608 71.7816 64.3836 71.7816C64.7064 71.7816 65.5842 73.2091 65.5842 73.2091C65.5842 73.2091 64.3836 79.8907 64.3836 80.6441C64.3836 81.3975 62.1385 91.8214 61.0939 95.0184C60.0493 98.2154 58.6093 97.7545 56.2843 96.7681C53.9594 95.7817 47.6265 90.8548 47.6265 90.8548" stroke="#1F7A93" stroke-width="0.539198" stroke-miterlimit="10" stroke-linecap="round"/>
<path d="M30.2896 115.941C30.2896 115.941 27.0797 126.915 26.2128 134.384C25.3459 141.854 25.7159 159.321 25.4656 161.19C25.2153 163.059 21.7406 171.876 21.7406 176.119C21.7406 180.362 19.8799 202.246 19.8799 202.246L21.1203 203.262C21.1203 203.262 25.4729 184.922 27.0796 180.189C28.6864 175.455 30.928 164.243 31.5482 162.037C32.1684 159.832 36.5173 142.186 36.764 139.98C37.0106 137.775 38.5013 132.347 38.5013 132.347C38.5013 132.347 41.7294 159.321 42.3497 164.922C42.9699 170.523 47.3152 200.888 47.3152 200.888C47.6005 200.983 47.8921 201.04 48.1857 201.056C48.5484 201.056 48.6826 200.209 48.6826 200.209C48.6826 200.209 50.4199 178.662 49.923 172.893C49.4261 167.123 47.939 160.005 47.939 157.963C47.939 155.921 50.1733 138.285 50.1733 132.188C50.1733 126.092 47.2716 115.509 47.2716 115.509C47.2716 115.509 36.9743 122.607 30.2896 115.941Z" fill="#1F7A93"/>
<path d="M47.8932 159.083C47.8932 159.083 46.7869 165.557 45.2744 168.997" stroke="white" stroke-width="0.269599" stroke-miterlimit="10" stroke-linecap="round"/>
<path d="M47.5914 165.696C47.5914 165.696 46.6846 170.375 44.8711 172.581" stroke="white" stroke-width="0.269599" stroke-miterlimit="10" stroke-linecap="round"/>
<path d="M26.1299 163.628C26.1299 163.628 26.8335 169.274 27.6388 171.614" stroke="white" stroke-width="0.269599" stroke-miterlimit="10" stroke-linecap="round"/>
<path d="M25.9277 166.935C25.9277 166.935 26.5335 170.93 27.6397 173.27" stroke="white" stroke-width="0.269599" stroke-miterlimit="10" stroke-linecap="round"/>
<path d="M38.8252 132.372L42.8549 127.827" stroke="white" stroke-width="0.269599" stroke-miterlimit="10" stroke-linecap="round"/>
<path d="M40.7402 130.444L45.4772 127.549" stroke="white" stroke-width="0.269599" stroke-miterlimit="10" stroke-linecap="round"/>
<path d="M30.3594 122.732C30.3594 122.732 33.4859 125.483 35.2995 127.827" stroke="white" stroke-width="0.269599" stroke-miterlimit="10" stroke-linecap="round"/>
<path d="M20.0121 202.231C20.0121 202.231 15.2969 207.684 15.2969 210.39C15.2969 213.096 17.1576 212.933 19.1452 210.39C21.1329 207.847 21.2344 202.608 21.2344 202.608L20.0121 202.231Z" fill="white" stroke="#1F7A93" stroke-width="0.539198" stroke-miterlimit="10" stroke-linecap="round"/>
<path d="M47.3154 200.889C47.3154 200.889 48.9295 206.316 50.6705 208.695C52.4115 211.074 53.4017 211.917 53.4017 209.369C53.4017 206.822 52.2845 203.942 48.6865 200.209C48.6828 200.209 49.6767 201.226 47.3154 200.889Z" fill="white" stroke="#1F7A93" stroke-width="0.539198" stroke-miterlimit="10" stroke-linecap="round"/>
<path d="M30.6601 50.6571C30.3373 50.4935 30.0326 50.2953 29.717 50.1119C29.4015 49.9285 28.8248 49.8293 28.6072 51.1825C28.2843 53.1652 30.5295 54.8009 29.8077 56.4415C29.3587 57.4396 28.6838 58.2105 27.8854 58.6373C27.7554 58.6984 27.62 58.7351 27.4828 58.7464C26.8408 58.8554 25.7998 58.7464 26.119 60.278C26.4382 61.8096 27.4828 63.1281 28.1247 63.1281H28.7667C28.7667 63.1281 29.4922 66.102 32.2125 67.7278C34.9328 69.3536 36.7826 69.2644 37.4246 67.1826C38.0666 65.1008 38.549 63.3461 38.549 60.6051C38.549 57.8641 37.8236 53.2643 37.8236 53.2643C37.8236 53.2643 37.1816 54.4737 34.697 52.9372C33.054 51.921 31.5161 51.0982 30.6601 50.6571Z" fill="white"/>
<mask id="mask1_224_4403" style="mask-type:luminance" maskUnits="userSpaceOnUse" x="26" y="50" width="13" height="19">
<path d="M30.6591 50.6571C30.3363 50.4935 30.0316 50.2953 29.7161 50.1119C29.4005 49.9285 28.8238 49.8293 28.6062 51.1825C28.2834 53.1652 30.5285 54.8009 29.8067 56.4415C29.3577 57.4396 28.6828 58.2105 27.8844 58.6373C27.7544 58.6984 27.619 58.7351 27.4818 58.7464C26.8398 58.8554 25.7988 58.7464 26.118 60.278C26.4372 61.8096 27.4818 63.1281 28.1238 63.1281H28.7658C28.7658 63.1281 29.4912 66.102 32.2115 67.7278C34.9318 69.3536 36.7816 69.2644 37.4236 67.1826C38.0656 65.1008 38.548 63.3461 38.548 60.6051C38.548 57.8641 37.8226 53.2643 37.8226 53.2643C37.8226 53.2643 37.1806 54.4737 34.6961 52.9372C33.053 51.921 31.5151 51.0982 30.6591 50.6571Z" fill="white"/>
</mask>
<g mask="url(#mask1_224_4403)">
<g style="mix-blend-mode:multiply" opacity="0.5">
<path d="M34.7008 52.9369C34.7008 52.9369 30.867 52.6444 30.2939 52.7733C29.7209 52.9022 30.3882 55.2516 30.1996 57.6011C30.011 59.9505 30.1017 63.7374 30.867 64.9122C31.7701 66.1234 32.7271 67.2573 33.7324 68.3075C33.7324 68.3075 30.7908 67.6581 29.7209 65.958C28.6509 64.2579 28.4804 63.3459 28.4804 63.3459C28.4804 63.3459 25.9958 61.3632 25.8036 59.8217C25.6114 58.2801 27.2544 59.098 28.0415 58.3347C28.484 57.9183 30.3157 57.1352 29.8551 55.0484C29.3944 52.9616 28.6509 52.5701 28.6218 51.1723C28.6001 50.181 29.2384 49.8935 29.6302 49.8042C29.8068 49.7636 29.9882 49.8 30.1488 49.9083L34.7008 52.9369Z" fill="#3BB5B5"/>
</g>
</g>
<path d="M30.6601 50.6571C30.3373 50.4935 30.0326 50.2953 29.717 50.1119C29.4015 49.9285 28.8248 49.8293 28.6072 51.1825C28.2843 53.1652 30.5295 54.8009 29.8077 56.4415C29.3587 57.4396 28.6838 58.2105 27.8854 58.6373C27.7554 58.6984 27.62 58.7351 27.4828 58.7464C26.8408 58.8554 25.7998 58.7464 26.119 60.278C26.4382 61.8096 27.4828 63.1281 28.1247 63.1281H28.7667C28.7667 63.1281 29.4922 66.102 32.2125 67.7278C34.9328 69.3536 36.7826 69.2644 37.4246 67.1826C38.0666 65.1008 38.549 63.3461 38.549 60.6051C38.549 57.8641 37.8236 53.2643 37.8236 53.2643C37.8236 53.2643 37.1816 54.4737 34.697 52.9372C33.054 51.921 31.5161 51.0982 30.6601 50.6571Z" stroke="#1F7A93" stroke-width="0.539198" stroke-miterlimit="10" stroke-linecap="round"/>
<path d="M33.4922 57.1496C33.543 57.566 33.4596 57.9327 33.3036 57.9674C33.1476 58.0021 32.988 57.6899 32.9409 57.2735C32.8937 56.8572 32.9772 56.4854 33.1295 56.4507C33.2818 56.416 33.4414 56.7531 33.4922 57.1496Z" fill="#1F7A93"/>
<path d="M36.8109 56.3914C36.8581 56.8078 36.7746 57.1745 36.6223 57.2092C36.47 57.2439 36.3068 56.9317 36.2596 56.5153C36.2124 56.099 36.2922 55.7322 36.4446 55.6975C36.5969 55.6628 36.7601 55.975 36.8109 56.3914Z" fill="#1F7A93"/>
<path d="M31.5703 55.128C31.7733 54.7157 32.0485 54.3795 32.371 54.1501C32.6935 53.9206 33.053 53.8052 33.4165 53.8145" stroke="#1F7A93" stroke-width="0.539198" stroke-miterlimit="10" stroke-linecap="round"/>
<path d="M35.9014 54.1418C36.2095 53.9946 36.543 53.9789 36.8578 54.0966C37.1726 54.2143 37.4538 54.46 37.6641 54.801" stroke="#1F7A93" stroke-width="0.539198" stroke-miterlimit="10" stroke-linecap="round"/>
<path d="M35.5813 56.0044C35.537 56.697 35.537 57.3936 35.5813 58.0862C35.6611 58.9635 36.1399 59.1816 35.9803 59.8408C35.8207 60.5001 35.1787 60.4951 35.1787 60.4951" stroke="#1F7A93" stroke-width="0.539198" stroke-miterlimit="10" stroke-linecap="round"/>
<path d="M34.3776 63.1282C34.1029 63.2168 33.8174 63.2233 33.5407 63.1472C33.264 63.071 33.0026 62.9141 32.7744 62.687" stroke="#1F7A93" stroke-width="0.539198" stroke-miterlimit="10" stroke-linecap="round"/>
</svg>
