<?xml version="1.0" encoding="UTF-8"?>
<svg id="Calque_2" data-name="Calque 2" xmlns="http://www.w3.org/2000/svg" viewBox="0 0 503.84 503.84">
  <defs>
    <style>
      .cls-1 {
        fill: #1f7a93;
      }
    </style>
  </defs>
  <g id="Calque_1-2" data-name="Calque 1">
    <path class="cls-1" d="M251.92,45.39c67.27,0,75.23.26,101.8,1.47,24.56,1.12,37.9,5.22,46.78,8.67,10.94,4.04,20.84,10.48,28.97,18.84,8.37,8.13,14.81,18.02,18.85,28.97,3.45,8.88,7.55,22.22,8.67,46.78,1.21,26.57,1.47,34.53,1.47,101.8s-.26,75.23-1.47,101.8c-1.12,24.56-5.23,37.9-8.67,46.78-8.48,21.97-25.84,39.34-47.81,47.81-8.88,3.45-22.22,7.55-46.78,8.67-26.56,1.21-34.53,1.47-101.8,1.47s-75.24-.26-101.8-1.47c-24.56-1.12-37.9-5.23-46.78-8.67-10.94-4.04-20.84-10.48-28.97-18.85-8.37-8.13-14.81-18.02-18.85-28.97-3.45-8.88-7.55-22.22-8.67-46.78-1.21-26.56-1.47-34.53-1.47-101.8s.26-75.23,1.47-101.8c1.12-24.56,5.22-37.9,8.67-46.78,4.04-10.94,10.48-20.84,18.85-28.97,8.13-8.37,18.02-14.81,28.97-18.85,8.88-3.45,22.22-7.55,46.78-8.67,26.57-1.21,34.53-1.47,101.8-1.47M251.92,0c-68.42,0-77,.29-103.87,1.52-26.82,1.22-45.13,5.48-61.15,11.71-16.81,6.33-32.04,16.24-44.62,29.06-12.82,12.58-22.74,27.81-29.07,44.62-6.22,16.03-10.48,34.34-11.7,61.15-1.23,26.87-1.52,35.45-1.52,103.87s.29,77,1.52,103.87c1.22,26.82,5.48,45.13,11.71,61.15,6.33,16.81,16.24,32.04,29.06,44.62,12.58,12.82,27.81,22.73,44.62,29.06,16.03,6.23,34.34,10.49,61.15,11.71,26.87,1.23,35.45,1.52,103.87,1.52s77-.29,103.87-1.52c26.82-1.22,45.13-5.48,61.15-11.71,33.84-13.09,60.59-39.84,73.68-73.68,6.23-16.02,10.49-34.34,11.71-61.15,1.23-26.87,1.52-35.45,1.52-103.87s-.29-77-1.52-103.87c-1.22-26.82-5.48-45.13-11.71-61.15-6.33-16.81-16.24-32.04-29.06-44.62-12.58-12.82-27.81-22.74-44.62-29.06-16.02-6.22-34.34-10.48-61.15-11.7C328.92.29,320.34,0,251.92,0h0Z"/>
    <path class="cls-1" d="M251.92,122.56c-71.45,0-129.37,57.92-129.37,129.36s57.92,129.37,129.37,129.37,129.37-57.92,129.37-129.37h0c0-71.45-57.92-129.36-129.36-129.36ZM251.92,335.89c-46.38,0-83.97-37.6-83.97-83.97s37.6-83.97,83.97-83.97c46.38,0,83.97,37.6,83.97,83.97,0,46.38-37.6,83.97-83.97,83.97Z"/>
    <circle class="cls-1" cx="386.4" cy="117.45" r="30.23"/>
  </g>
</svg>