<?xml version="1.0" encoding="UTF-8"?>
<svg id="Calque_2" data-name="Calque 2" xmlns="http://www.w3.org/2000/svg" viewBox="0 0 420 420">
  <defs>
    <style>
      .cls-1 {
        fill: #1f7a93;
      }
    </style>
  </defs>
  <g id="Calque_1-2" data-name="Calque 1">
    <path class="cls-1" d="M370,0H50C22.4,0,0,22.4,0,50v320c0,27.6,22.4,50,50,50h320c27.6,0,50-22.4,50-50V50c0-27.6-22.4-50-50-50ZM130,160v190h-60v-190h60ZM70,104.7c0-14,12-24.7,30-24.7s29.3,10.7,30,24.7c0,14-11.2,25.3-30,25.3s-30-11.3-30-25.3ZM350,350h-60v-100c0-20-10-40-35-40.4h-.8c-24.2,0-34.2,20.6-34.2,40.4v100h-60v-190h60v25.6s19.3-25.6,58.1-25.6,71.9,27.3,71.9,82.6v107.4Z"/>
  </g>
</svg>